<mxfile host="Electron" modified="2024-05-11T18:02:17.885Z" agent="Mozilla/5.0 (Windows NT 10.0; Win64; x64) AppleWebKit/537.36 (KHTML, like Gecko) draw.io/21.6.1 Chrome/112.0.5615.204 Electron/24.6.1 Safari/537.36" etag="7OXe0_naY4Y2DCff5GJ-" version="21.6.1" type="device">
  <diagram name="Page-1" id="BMrjSgJJtTzfgCPZ4tzO">
    <mxGraphModel dx="1430" dy="582" grid="1" gridSize="10" guides="1" tooltips="1" connect="1" arrows="1" fold="1" page="1" pageScale="1" pageWidth="827" pageHeight="1169" math="0" shadow="0">
      <root>
        <mxCell id="0" />
        <mxCell id="1" parent="0" />
        <mxCell id="vap1PaF85c1a8E5EsQ3I-2" value="" style="rounded=1;whiteSpace=wrap;html=1;fillColor=#FFFFFF;strokeColor=none;" vertex="1" parent="1">
          <mxGeometry width="1120" height="100" as="geometry" />
        </mxCell>
        <mxCell id="A_eStXad5IxPxG3o9evb-5" style="edgeStyle=orthogonalEdgeStyle;rounded=0;orthogonalLoop=1;jettySize=auto;html=1;strokeColor=#000000;" parent="1" source="A_eStXad5IxPxG3o9evb-11" target="A_eStXad5IxPxG3o9evb-2" edge="1">
          <mxGeometry relative="1" as="geometry">
            <mxPoint x="100" y="49.08333333333337" as="sourcePoint" />
          </mxGeometry>
        </mxCell>
        <mxCell id="A_eStXad5IxPxG3o9evb-6" value="Submit a change" style="edgeLabel;html=1;align=center;verticalAlign=middle;resizable=0;points=[];labelBackgroundColor=none;fontColor=#000000;" parent="A_eStXad5IxPxG3o9evb-5" vertex="1" connectable="0">
          <mxGeometry x="-0.0369" y="-1" relative="1" as="geometry">
            <mxPoint y="-10" as="offset" />
          </mxGeometry>
        </mxCell>
        <mxCell id="A_eStXad5IxPxG3o9evb-7" style="edgeStyle=orthogonalEdgeStyle;rounded=0;orthogonalLoop=1;jettySize=auto;html=1;entryX=0;entryY=0.5;entryDx=0;entryDy=0;strokeColor=#000000;" parent="1" source="A_eStXad5IxPxG3o9evb-2" target="A_eStXad5IxPxG3o9evb-3" edge="1">
          <mxGeometry relative="1" as="geometry" />
        </mxCell>
        <mxCell id="A_eStXad5IxPxG3o9evb-8" value="&lt;font style=&quot;&quot;&gt;Create a review&lt;/font&gt;" style="edgeLabel;html=1;align=center;verticalAlign=middle;resizable=0;points=[];labelBackgroundColor=none;fontColor=#000000;" parent="A_eStXad5IxPxG3o9evb-7" vertex="1" connectable="0">
          <mxGeometry x="0.1333" relative="1" as="geometry">
            <mxPoint x="-13" y="-10" as="offset" />
          </mxGeometry>
        </mxCell>
        <mxCell id="A_eStXad5IxPxG3o9evb-2" value="" style="shape=image;verticalLabelPosition=bottom;labelBackgroundColor=default;verticalAlign=top;aspect=fixed;imageAspect=0;image=data:image/svg+xml,PHN2ZyB4bWxuczp4bGluaz0iaHR0cDovL3d3dy53My5vcmcvMTk5OS94bGluayIgeG1sbnM9Imh0dHA6Ly93d3cudzMub3JnLzIwMDAvc3ZnIiB4bWw6c3BhY2U9InByZXNlcnZlIiBzdHlsZT0iZW5hYmxlLWJhY2tncm91bmQ6bmV3IDAgMCA2NTIgNjUyOyIgdmlld0JveD0iMCAwIDY1MiA2NTIiIHk9IjBweCIgeD0iMHB4IiBpZD0ibGF5ZXIiIHZlcnNpb249IjEuMSI+JiN4YTs8c3R5bGUgdHlwZT0idGV4dC9jc3MiPiYjeGE7CS5zdDB7ZmlsbDojRjFGMUYyO30mI3hhOwkuc3Qxe2ZpbGw6IzAwQUVFRjt9JiN4YTsJLnN0MntmaWxsOiM0MDQwNDA7fSYjeGE7PC9zdHlsZT4mI3hhOzxnPiYjeGE7CTxnPiYjeGE7CQk8Zz4mI3hhOwkJCTxwYXRoIGQ9Ik0yMi4zLDI4Mi43Yy0xLDAuNi0xLjgsMi0xLjgsMy4zdjcyLjVjMCwxLjIsMC44LDIuNywxLjgsMy4zTDg1LDM5OGMxLDAuNiwyLjcsMC42LDMuNywwbDYyLjktMzYuNSYjMTA7JiM5OyYjOTsmIzk7JiM5O2MxLTAuNiwxLjgtMiwxLjgtMy4zdi03Mi4zYzAtMS4yLTAuOC0yLjctMS44LTMuM2wtNjIuOS0zNi4zYy0xLTAuNi0yLjctMC42LTMuNywwTDIyLjMsMjgyLjd6IiBjbGFzcz0ic3QwIi8+JiN4YTsJCQk8Zz4mI3hhOwkJCQk8Zz4mI3hhOwkJCQkJPGc+JiN4YTsJCQkJCQk8cGF0aCBkPSJNOTkuNywzMjcuMUg3NS4zYy0yLjksMC01LjMtMi4zLTUuMy01LjNjMC0yLjksMi4zLTUuMyw1LjMtNS4zaDI0LjRjMi45LDAsNS4zLDIuMyw1LjMsNS4zJiMxMDsmIzk7JiM5OyYjOTsmIzk7JiM5OyYjOTsmIzk7QzEwNS4xLDMyNC45LDEwMi42LDMyNy4xLDk5LjcsMzI3LjF6IiBjbGFzcz0ic3QxIi8+JiN4YTsJCQkJCTwvZz4mI3hhOwkJCQkJPGc+JiN4YTsJCQkJCQk8cGF0aCBkPSJNMTIyLjcsMzIzLjJjMC4yLTIuOSwyLjMtMTcuMi0yMi43LTMwLjljLTEuNiwyLjMtNC4xLDQuNy03LjYsNy42YzAuMiwwLjIsNC41LDIuOSw0LjcsMi45JiMxMDsmIzk7JiM5OyYjOTsmIzk7JiM5OyYjOTsmIzk7YzE1LjQsNy44LDE1LjIsMTguNiwxNS4yLDE5Ljd2MC4ydjAuNmMwLDEtMC42LDktMTUsMTcuNGMtMTguNCwxMC45LTIxLjcsMjAuMS0yMi4xLDIxLjdsMTAsMi43YzAsMCwwLDAsMCwwLjImIzEwOyYjOTsmIzk7JiM5OyYjOTsmIzk7JiM5OyYjOTtjMCwwLDAuOC0yLjMsNC4xLTUuNWwxNi44LDkuNGMwLjgsMC40LDEuNiwwLjYsMi43LDAuNmMxLjgsMCwzLjctMSw0LjUtMi43YzEuNC0yLjUsMC42LTUuNy0yLTcuMmwtMTMuMS03LjQmIzEwOyYjOTsmIzk7JiM5OyYjOTsmIzk7JiM5OyYjOTtjMS40LTEsMi45LTEuOCw0LjUtMi45QzEyMS44LDMzOC42LDEyMi43LDMyNi4xLDEyMi43LDMyMy4yeiIgY2xhc3M9InN0MSIvPiYjeGE7CQkJCQkJPHBhdGggZD0iTTUyLjYsMzIxYy0wLjIsMi45LTIuMywxNy4yLDIyLjcsMzAuOWMxLjYtMi4zLDQuMS00LjcsNy42LTcuNmMtMC4yLTAuMi00LjUtMi45LTQuNy0yLjkmIzEwOyYjOTsmIzk7JiM5OyYjOTsmIzk7JiM5OyYjOTtjLTE1LjQtNy44LTE1LjItMTguNi0xNS4yLTE5Ljd2LTAuMlYzMjFjMC0xLDAuNi05LDE1LTE3LjRjMTguNC0xMC45LDIxLjctMjAuMSwyMi4xLTIxLjdsLTEwLTIuN2MwLDAsMCwwLDAtMC4yJiMxMDsmIzk7JiM5OyYjOTsmIzk7JiM5OyYjOTsmIzk7YzAsMC0wLjgsMi4zLTQuMSw1LjVsLTE2LjgtOS40Yy0wLjgtMC40LTEuNi0wLjYtMi43LTAuNmMtMS44LDAtMy43LDEtNC41LDIuN2MtMS40LDIuNS0wLjYsNS43LDIsNy4ybDEzLjEsNy40JiMxMDsmIzk7JiM5OyYjOTsmIzk7JiM5OyYjOTsmIzk7Yy0xLjQsMS0yLjksMS44LTQuNSwyLjlDNTMuNCwzMDUuNiw1Mi42LDMxOC4xLDUyLjYsMzIxeiIgY2xhc3M9InN0MSIvPiYjeGE7CQkJCQk8L2c+JiN4YTsJCQkJPC9nPiYjeGE7CQkJPC9nPiYjeGE7CQk8L2c+JiN4YTsJPC9nPiYjeGE7CTxnPiYjeGE7CQk8cGF0aCBkPSJNMTk1LjQsMjg4LjhoNy4ydjMwLjNoMzguMXYtMzAuM2g3LjJ2NjkuOWgtNy4ydi0zM2gtMzguMXYzM2gtNy4yVjI4OC44eiIgY2xhc3M9InN0MiIvPiYjeGE7CQk8cGF0aCBkPSJNMjY4LjcsMzM3LjRjMC4yLDIuMywwLjgsNC41LDEuNiw2LjZjMC44LDIsMiwzLjksMy43LDUuM2MxLjQsMS40LDMuMywyLjcsNS4zLDMuNWMyLDAuOCw0LjEsMS4yLDYuNCwxLjImIzEwOyYjOTsmIzk7JiM5O2MzLjUsMCw2LjYtMC44LDktMi41YzIuNS0xLjYsNC41LTMuNSw1LjctNS41bDUuMSw0LjFjLTIuNywzLjUtNS43LDUuOS05LjIsNy42Yy0zLjMsMS40LTcsMi4zLTEwLjcsMi4zYy0zLjUsMC02LjYtMC42LTkuNC0xLjgmIzEwOyYjOTsmIzk7JiM5O2MtMi45LTEuMi01LjUtMi45LTcuNi01LjFzLTMuNy00LjctNC45LTcuOGMtMS4yLTIuOS0xLjgtNi4xLTEuOC05LjZzMC42LTYuOCwxLjgtOS42YzEuMi0yLjksMi45LTUuNSw0LjktNy44czQuNS0zLjksNy40LTUuMSYjMTA7JiM5OyYjOTsmIzk7YzIuOS0xLjIsNS45LTEuOCw5LjItMS44YzMuNSwwLDYuNiwwLjYsOS40LDEuOGMyLjcsMS4yLDUuMSwyLjksNyw0LjlzMy4zLDQuNSw0LjMsNy40YzEsMi45LDEuNCw1LjcsMS40LDl2Mi45aC0zOC43VjMzNy40eiYjMTA7JiM5OyYjOTsmIzk7IE0zMDAuMywzMzJjMC00LjUtMS4yLTgtMy45LTEwLjdjLTIuNy0yLjctNi40LTQuMS0xMS4xLTQuMWMtMiwwLTQuMSwwLjQtNi4xLDEuMmMtMiwwLjgtMy43LDEuOC01LjEsMy4zcy0yLjcsMi45LTMuNSw0LjcmIzEwOyYjOTsmIzk7JiM5O3MtMS40LDMuNy0xLjQsNS41QzI2OS4xLDMzMiwzMDAuMywzMzIsMzAwLjMsMzMyeiIgY2xhc3M9InN0MiIvPiYjeGE7CQk8cGF0aCBkPSJNMzI3LjEsMzU4LjloLTYuNnYtNzQuOGg2LjZWMzU4Ljl6IiBjbGFzcz0ic3QyIi8+JiN4YTsJCTxwYXRoIGQ9Ik0zNTIuMywyOTQuOGMwLDEuNC0wLjQsMi41LTEuNCwzLjVjLTEsMC44LTIsMS4yLTMuMywxLjJzLTIuMy0wLjQtMy4zLTEuMmMtMS0wLjgtMS40LTItMS40LTMuNSYjMTA7JiM5OyYjOTsmIzk7YzAtMS40LDAuNC0yLjUsMS40LTMuNWMxLTEsMi0xLjIsMy4zLTEuMnMyLjMsMC40LDMuMywxLjJDMzUxLjksMjkyLjMsMzUyLjMsMjkzLjUsMzUyLjMsMjk0Ljh6IE0zNTAuOSwzNTguOWgtNi42di00Ni4zaDYuNiYjMTA7JiM5OyYjOTsmIzk7VjM1OC45eiIgY2xhc3M9InN0MiIvPiYjeGE7CQk8cGF0aCBkPSJNMzc4LjUsMzM0LjFsLTE2LjgtMjEuNWg4LjhsMTIuOSwxNy4ybDEyLjMtMTcuMmg4bC0xNiwyMS41bDE5LjMsMjQuNmgtOC44bC0xNS42LTIwLjNsLTE1LDIwLjNoLTguMiYjMTA7JiM5OyYjOTsmIzk7TDM3OC41LDMzNC4xeiIgY2xhc3M9InN0MiIvPiYjeGE7CQk8cGF0aCBkPSJNNDU5LjgsMzA3Yy0xLjQtMS44LTMuMy0zLjMtNS41LTQuM2MtMi4zLTEtNC43LTEuNC03LjYtMS40cy01LjUsMC42LTgsMS42Yy0yLjUsMS00LjUsMi43LTYuNCw0LjcmIzEwOyYjOTsmIzk7JiM5O2MtMS44LDItMy4zLDQuMy00LjMsNy4yYy0xLDIuNy0xLjQsNS43LTEuNCw5YzAsMy4zLDAuNCw2LjQsMS40LDljMSwyLjcsMi41LDUuMSw0LjEsNy4yYzEuOCwyLDMuOSwzLjUsNi40LDQuNyYjMTA7JiM5OyYjOTsmIzk7YzIuNSwxLDQuOSwxLjYsNy44LDEuNmMzLjEsMCw1LjktMC42LDguNC0yYzIuNS0xLjIsNC41LTMuMSw1LjktNS41bDEyLjksOS42Yy0yLjksNC4xLTYuOCw3LjItMTEuMyw5LjJzLTkuMiwyLjktMTMuOSwyLjkmIzEwOyYjOTsmIzk7JiM5O2MtNS41LDAtMTAuNC0wLjgtMTUuMi0yLjdjLTQuNS0xLjYtOC42LTQuMS0xMS45LTcuNHMtNS45LTctNy44LTExLjdjLTEuOC00LjUtMi45LTkuNi0yLjktMTUuMmMwLTUuNSwxLTEwLjcsMi45LTE1LjImIzEwOyYjOTsmIzk7JiM5O2MxLjgtNC41LDQuNS04LjQsNy44LTExLjdzNy40LTUuNywxMS45LTcuNGM0LjUtMS42LDkuNi0yLjcsMTUuMi0yLjdjMiwwLDQuMSwwLjIsNi4xLDAuNmMyLDAuNCw0LjMsMSw2LjQsMS42JiMxMDsmIzk7JiM5OyYjOTtjMiwwLjgsNC4xLDEuOCw1LjksMy4xYzEuOCwxLjIsMy43LDIuOSw1LjEsNC45TDQ1OS44LDMwN3oiIGNsYXNzPSJzdDEiLz4mI3hhOwkJPHBhdGggZD0iTTQ3NS4yLDMzNC43YzAtMy45LDAuNi03LjIsMi0xMC40YzEuNC0zLjEsMy4zLTUuNyw1LjctOGMyLjUtMi4zLDUuMy0zLjksOC40LTUuMWMzLjMtMS4yLDYuOC0xLjgsMTAuNC0xLjgmIzEwOyYjOTsmIzk7JiM5O2MzLjcsMCw3LjIsMC42LDEwLjQsMS44YzMuMywxLjIsNi4xLDIuOSw4LjQsNS4xYzIuNSwyLjMsNC4zLDQuOSw1LjcsOGMxLjQsMy4xLDIsNi42LDIsMTAuNGMwLDMuOS0wLjYsNy4yLTIsMTAuNCYjMTA7JiM5OyYjOTsmIzk7Yy0xLjQsMy4xLTMuMyw1LjctNS43LDhjLTIuNSwyLjMtNS4zLDMuOS04LjQsNS4xYy0zLjMsMS4yLTYuOCwxLjgtMTAuNCwxLjhjLTMuNywwLTcuMi0wLjYtMTAuNC0xLjhjLTMuMy0xLjItNi4xLTIuOS04LjQtNS4xJiMxMDsmIzk7JiM5OyYjOTtjLTIuNS0yLjMtNC4zLTQuOS01LjctOFM0NzUuMiwzMzguNiw0NzUuMiwzMzQuN3ogTTQ5MCwzMzQuN2MwLDMuNywxLDYuNiwzLjEsOC44YzIsMi4zLDQuOSwzLjMsOC44LDMuM2MzLjksMCw2LjgtMSw4LjgtMy4zJiMxMDsmIzk7JiM5OyYjOTtjMi0yLjMsMy4xLTUuMSwzLjEtOC44cy0xLTYuNi0zLjEtOC44Yy0yLTIuMy00LjktMy4zLTguOC0zLjNjLTMuOSwwLTYuOCwxLTguOCwzLjNDNDkxLDMyOC4zLDQ5MCwzMzEuMiw0OTAsMzM0Ljd6IiBjbGFzcz0ic3QxIi8+JiN4YTsJCTxwYXRoIGQ9Ik01MzUsMzEwLjdoMTQuN3Y3LjhoMC4yYzEuNi0yLjksMy41LTUuMSw1LjUtNi44YzIuMy0xLjQsNC45LTIuMyw4LjItMi4zYzAuOCwwLDEuNiwwLDIuNywwJiMxMDsmIzk7JiM5OyYjOTtjMC44LDAsMS42LDAuMiwyLjUsMC40djEzLjVjLTEtMC40LTItMC42LTMuMS0wLjhjLTEtMC4yLTItMC4yLTMuMy0wLjJjLTIuOSwwLTUuMSwwLjQtNi44LDEuMmMtMS42LDAuOC0yLjksMS44LTMuOSwzLjMmIzEwOyYjOTsmIzk7JiM5O2MtMC44LDEuNC0xLjQsMy4xLTEuNiw1LjFjLTAuMiwyLTAuNCw0LjEtMC40LDYuNnYyMC4xSDUzNUw1MzUsMzEwLjdMNTM1LDMxMC43eiIgY2xhc3M9InN0MSIvPiYjeGE7CQk8cGF0aCBkPSJNNjE4LDM1MC41Yy0yLjUsMy4xLTUuMyw1LjMtOSw3Yy0zLjcsMS42LTcuNCwyLjUtMTEuMywyLjVjLTMuNywwLTcuMi0wLjYtMTAuNC0xLjhzLTYuMS0yLjktOC40LTUuMSYjMTA7JiM5OyYjOTsmIzk7Yy0yLjUtMi4zLTQuMy00LjktNS43LThjLTEuNC0zLjEtMi02LjYtMi0xMC40YzAtMy45LDAuNi03LjIsMi0xMC40YzEuNC0zLjEsMy4zLTUuNyw1LjctOGMyLjUtMi4zLDUuMy0zLjksOC40LTUuMSYjMTA7JiM5OyYjOTsmIzk7YzMuMy0xLjIsNi44LTEuOCwxMC40LTEuOGMzLjUsMCw2LjYsMC42LDkuNCwxLjhjMi45LDEuMiw1LjEsMi45LDcuMiw1LjFjMS44LDIuMywzLjUsNC45LDQuNSw4YzEsMy4xLDEuNiw2LjYsMS42LDEwLjR2NC43JiMxMDsmIzk7JiM5OyYjOTtoLTM0LjZjMC42LDIuOSwxLjgsNS4xLDMuOSw2LjhjMiwxLjYsNC41LDIuNSw3LjQsMi41YzIuNSwwLDQuNS0wLjYsNi4xLTEuNmMxLjYtMSwzLjEtMi41LDQuMy00LjFMNjE4LDM1MC41eiBNNjA1LjUsMzI5LjQmIzEwOyYjOTsmIzk7JiM5O2MwLTIuNS0wLjgtNC43LTIuNS02LjRjLTEuNi0xLjgtMy45LTIuNy02LjYtMi43Yy0xLjYsMC0zLjEsMC4yLTQuMywwLjhjLTEuMiwwLjYtMi4zLDEuMi0zLjMsMmMtMC44LDAuOC0xLjYsMS44LTIsMi45JiMxMDsmIzk7JiM5OyYjOTtjLTAuNCwxLTAuOCwyLjMtMC44LDMuNWgxOS41VjMyOS40eiIgY2xhc3M9InN0MSIvPiYjeGE7CTwvZz4mI3hhOzwvZz4mI3hhOzwvc3ZnPg==;clipPath=inset(36.67% 4.33% 37.33% 1.67%);" parent="1" vertex="1">
          <mxGeometry x="257" y="28.319999999999993" width="150.04" height="41.5" as="geometry" />
        </mxCell>
        <mxCell id="A_eStXad5IxPxG3o9evb-9" style="edgeStyle=orthogonalEdgeStyle;rounded=0;orthogonalLoop=1;jettySize=auto;html=1;entryX=0;entryY=0.5;entryDx=0;entryDy=0;strokeColor=#000000;" parent="1" source="A_eStXad5IxPxG3o9evb-3" target="A_eStXad5IxPxG3o9evb-4" edge="1">
          <mxGeometry relative="1" as="geometry">
            <mxPoint x="951" y="52.785000000000025" as="targetPoint" />
          </mxGeometry>
        </mxCell>
        <mxCell id="A_eStXad5IxPxG3o9evb-10" value="Trigger a build" style="edgeLabel;align=center;verticalAlign=middle;resizable=0;points=[];html=1;labelBackgroundColor=none;fontColor=#000000;" parent="A_eStXad5IxPxG3o9evb-9" vertex="1" connectable="0">
          <mxGeometry x="0.2561" relative="1" as="geometry">
            <mxPoint x="-18" y="-9" as="offset" />
          </mxGeometry>
        </mxCell>
        <mxCell id="A_eStXad5IxPxG3o9evb-3" value="" style="shape=image;verticalLabelPosition=bottom;labelBackgroundColor=default;verticalAlign=top;aspect=fixed;imageAspect=0;image=data:image/png,iVBORw0KGgoAAAANSUhEUgAAAl8AAAA8CAMAAABvni/yAAAAAXNSR0IArs4c6QAAAMBQTFRFAAAA8fHyY6cKQEBA8fHyY6cKQEBA8fHyY6cKQEBA8fHyY6cKQEBA8fHyY6cKQEBA8fHyY6cKQEBA8fHyY6cKQEBA8fHyY6cKQEBA8fHyY6cKQEBA8fHyY6cKQEBA8fHyY6cKQEBA8fHyY6cKQEBA8fHyY6cKQEBA8fHyY6cKQEBA8fHyY6cKQEBA8fHy6Ozk3+jV1uPHzt+4xdqqvNWbs9GNqsx+ocdwmMNhj75Th7pEfrU2dbAnbKwZY6cKQEBAv7xAlQAAAC50Uk5TABAQECAgIDAwMEBAQFBQUGBgYHBwcICAgI+Pj5+fn6+vr7+/v8/Pz9/f3+/v77ES2tEAAAZsSURBVHja7Z3deqI8EIBTLBarS5euFlari8KiKGK1ru7aNnP/d/XxFxKq2Kpobb95T0pCj8L7ZIYJJgRBPoSr+58XOArIcbi4931/dIcDgRyDu5EfMfiGY4EUzfXAT+ld4nggRXLZ8zNgGoYUx8VP/zWjHzgsSDH8GPkbGFzjyCCHc/3bz+EXpmHIgVz+8rdwh2kYcgAXd/52Rt9xkJB9+T7y3+Q3pmHIXlz3/Hdxj2kYsjOX9/57GWEahuyaeI38d4FLRsjuXA38HekdOoXZdgvH/f9Cz9+ZO3IYADZ5D7KmW5bVrCv4lL6GX7MnmsO/hy1+2QA1ImIAGO/xq2FUSC5VizJcXcIH9fn9mtN8XqbF+9UAGJdIDm0q4uIc9un9mtJtPE8K96sLALWtenGa+KQ+u19/6Vbmhft1A9Anm9FpljY+qE/v1yrMs2YbeaaULorPv8p5s5fk0QwO5l9fwi8uUZZV4X5tR0u0UgmRVAv1+nJ+PUyjjOzhg/xq0hA30QrfHr+aX/Poaklf5h/jl0VDTLIPUrUqbexWiIhclfktfDs9mV8s01/FHcsC/KoZhnFT2t0vl4iYVogay2GtNdrRZd2iEaZGIjQrRCOqG3RarK1Iuhe0vbZMiKS7NMCpogon8mvyRAPmST1sNTnMr1JnDBGdsuCXeFEDgBb77zGAkVYnLHmtYmHy/CzbaBIiNSnHkvh7qN6Mu1i77tIYT5EcmqCjCyfxa/ocllMfozD5Elw+TQ/xqzIGxvh2s1/E4HWwbtylpZbUU8UUGiGJ1TESYtIQhcgOFbG4Xw7N+uVRhmvSFJzBTuHXY+JUAHNt9rZfHUPEBjC4XsNGmZRueDE14xezalwSK/qSS1McPVEs7tNIABNEJQEslkoOzaDxOprgVz4WynB8vyKlWF7PJrA3/XoN86s0BOiUSMQtwDDHr9IwviqPmYOKRwWaQqwzw7tiVV+NQx6JBbPUNE6aO/pF8TX1FPFxsqLMpiUN+Dfx9/bLAOgSRhfgdrNfpBKnXX0eVxV3rb4q0xAvuKrTBDeNlTKJBGuL9Q3Br3aVEEVN245Cqi6N0SWpjgHyRH5xrZbhX9bzpl+NmkiHeTIEKBNGhcmW9YtNblAzojZDc1/HLofFRIsylCRsOiSDktxkPtWz606elM57VOfvqyracJr6xJzVJ1igfAw6Zjvm98woDgDk+UU6AGOWhTGUpptJpjS2FBkZ58biKKJAkta2Mgm7/qrQoQuL5UJQ1PEN8kR+sbw+rk88T/2Y2eLB392vGoBtcIZb/CJ92PQ1hdIWFrilJECqkQzRHYfo3BIp6trgV5swRJFoBEG/TupXLnv41YAseX6x/x2WiIiY6Vu8LKE2aYCixmI5aSFMdmmOXzr6dSZ+LQvzi70y2hly/apASJeso3G/YqXaTpzme5ETLHryrMyzLAv9Oj+//tGAp9U6y8meftXWjNnkF6tQGCAuKzVlEqNyv2KlvEiyZDZzWb7OihZxtQz9Oj+/5jSPp8l+fpUAxu/zqxua2BAysCZ1qySAVU3NuFfM97Xs14d1IdGvol9n5BcPkHn82cMvVrkgKeVcv4ww94rr+GUeFE2tWtVdKnijUIYcpvsMlTsSS2miX2fo12RJc1js6VcNYFwhCbfQyvGrBgCVJEr2mV4ZPImvEaX1LpPd5EpSRyZEMTG/Pye/OA/zxWteDpi/4hnpJu2Em3W/kmWhRlrH77DwxuGPvi7+3EMTG0RmtuH749n5lc8fGvAy2devUh8A+kbtpjWEUJ2NfvUBukId/5YoXt7PO2SuDm8oaz858tCvz+HXNJq+Hv19/SKlLjDGjc35V0us23eiUCmZG2cvHhNJhJOpzktWqpeCfn0KvyZPPPvK96tl2xUicmvbt4RR644hYNgqi/tP8Iuybdtcz1LXtjtR4d6jMW5bJhzVCmmKX6fWCUNzaPJZqhWi8O9XGWLbihC70YYT+/WXBqwO3n+iXKuVyM4oVV3Xq8quH9/L+EzPiR9+PnOefAmMcBtD5NBNo3nyNcOtpJHC917lyRfuwYocZe/oh8Vi8WeGe0gjRR86xMGjiJDiD00TwaPUkKLPHsIziJCjnp2GZ6ghx+AqJw27x8QLKYRvA3+N3hWOC1IUdyM8UAE5Ihf3mQNhcECQgrnu4YFWyDH5PogSL6xJIEc79WqAi0HIgfwHJ1+OTnmLrvkAAAAASUVORK5CYII=;clipPath=inset(0% 54% 0% 0%);" parent="1" vertex="1">
          <mxGeometry x="590" y="29.039999999999992" width="190.9" height="41.5" as="geometry" />
        </mxCell>
        <mxCell id="A_eStXad5IxPxG3o9evb-4" value="" style="shape=image;verticalLabelPosition=bottom;labelBackgroundColor=default;verticalAlign=top;aspect=fixed;imageAspect=0;image=data:image/png,iVBORw0KGgoAAAANSUhEUgAABLAAAAFvCAYAAABacTKSAAAAAXNSR0IArs4c6QAAIABJREFUeF7s3Qd4FMX7B/Dv7pVcekIvIQlJkKoIKCiCiiIKCgrSLBQrClgQFOz6R1GxggU79gIIWMCK4A+kSu+QhORSKIGQXq7s/p/ZhJByuZLchRC+8zwR5GZnZj+7KLx55x0JbOeygARA7tGjh1xYWCh+rrWCgoJGkt3eTpWkTrIk9ZSASwApFoCfR1iqaoMknYCqxqsSNsqquk6yWncZbLYUNG1qOTVWsz17lFWAgpIvNgpQgAIUoAAFKEABClCAAhSgAAUoUEGgLGhBlwYvIMXFxRlFEMpisegMBoPBZrPFycBNMqQbVFVtL0mSXOcKqpoHCWsU4Ad9UdHfhQZDlizLalBhoXVPRkYRAFudr4kTUoACFKAABShAAQpQgAIUoAAFKFCvBBjAqlePw7uLiYuL87Pb7WE6i8WgAAGSXj8KwLjSbCrvTubl0VQVf9oldZ7BZtskS5JaJMsFZrM5B4Ddy1NxOApQgAIUoAAFKEABClCAAhSgAAXquQADWPX8AXm6vKZNmwaF+Pm1UAwGnWxTL4WMxwB09HScetW/ZCviL4A6V9Xp0lRVLdbpdEfi4+OL69U6uRgKUIACFKAABShAAQpQgAIUoAAFfCLAAJZPWOt20PZN2gcrgUURKuCvqNLlgPqsJElhdbuKOptNgaruhSrNVPTSPp3FciIiLe3IKm41rLMHwIkoQAEKUIACFKAABShAAQpQgAJ1LcAAVl2Le2k+sT1QUZQoyW5voqrSxZDwkAREAziHnqmapwK/y4ryhV2vT5IkKTkxMTHbS8QchgIUoAAFKEABClCAAhSgAAUoQIF6InAOBTvqiXjtliGdFxHRStHr41RFioKkjgNwmcenA9ZuDfX0anU3gM8VRVkvG437ExISjtXThXJZFKAABShAAQpQgAIUoAAFKEABCngowACWh2BnoruoaxVsMnWUJX1bRVIulyANB9D8TKxFkiT4GQ0wGo0wGHQwGgzaMuyKArvNDkVVUVhYhKJiy5lYHgA1VVWlryUZq6DTbWEg6ww9Bk5LAQpQgAIUoAAFKEABClCAAhTwogADWF7E9PZQsc1jm6l+1p4S5E6Q1CGA1LuutgiKwFSzpo0QHdkKYaHB0MmydnsigBUcHIjgwAD4+5sQFOgPqBIsNiuKi62w2+3IzMpGTm4+oKplJBarDSezcnD46HEczTiBoiKf118/AglfQFV/lwyG/+Lj48UJhmwUoAAFKEABClCAAhSgAAUoQAEKnIUCDGDVv4emi4qKitSran9IUntAGgEg0ufLlIDG4aE4v2M7tGjeBP4mP8S1bYPuXTuhVYsm0Ol0tVqCCFilHT6GfQeTEJ9oRm5+gTbeicwsHEhIRtrhDNhstlrNUc3FO1QVS1RFWtyoeaO9mzdvtvpiEo5JAQpQgAIUoAAFKEABClCAAhSggO8EGMDyna2nI8sxrWIiJIN9FFSpCySMqovaVgH+JnTpGIfOHWLRsnkT9O51IaLbtPJ07TXuLzKytmzfi8TkVFgsVhzPzMLmbXu0TC21XAZXjSc4daGKn1QVq2CQP2Wh91prcgAKUIACFKAABShAAQpQgAIUoECdCjCAVafcjieLjIwM1wMPSJBjAPU2SJLe18sKCQ5Crx5dcOH57XHh+R1wQad22vbAM90yjp/Euv92aNlaqqLgn7WbsXtfgleWpapqvgTpY9VufS8xLS0egOKVgTkIBShAAQpQgAIUoAAFKEABClCAAj4VOPMRC5/eXv0fPCY6eoqkoIMqqXdJkGq3T8+N2w0M8EffS7vjkosuQPeuHRATFeHGVWeuy7qN27EvPknLzvp3w1Zs2bGv1otRoS6WVPW3BLP5Ewaxas3JAShAAQpQgAIUoAAFKEABClCAAj4XYADL58SOJ4htE32TKkvXSFBGAlITXy/DYNDj0ou74rqreuOCzudpxdnPpma12bBrTzz2xydp2VnL/lyNYxmZtbkFswp1UWJy8tTaDMJrKUABClCAAhSgAAUoQAEKUIACFPC9AANYvjeuMENMRMT5sk5/v6qqfSFJnT05VTAoKAjBwcHIyclBfn6+WysX2wI7tY/BuNGDEdu2DdrHRbt1XX3tJOpiZWXnYvvuA0hNP6ptMRRZWjVsFqj4xi8oYMKePXssNRyDl1GAAhSgAAUoQAEKUIACFKAABSjgYwEGsHwMfGr49u3bB1uLip6XgIsBqScAoztTh4aGonfv3ujevRtM/ib4Gf2QlZ2FH5f+hN27dzsdIjgoAM/PmIjmzRqja+fz3JnurOpTXGzBIXM6ksxpWLtxu5aVJX7NwybqYH1vy1enJh9PPuzhtexOAQpQgAIUoAAFKEABClCAAhSgQB0IMIDle2R92zZRj0mSdIUk4VIAwa6m9PPzQ7duF+K6665DYFAQWrRojqZNm5YVWS8sLMTbc9/BihUrHA4lsq4en3InYqPboGf3LvWiOLure67N5yIr68ix40gyp+OvfzZg2R+rkZdf4PaQKmCXgN9Vxf5cYkrKJrcvZEcKUIACFKAABShAAQpQgAIUoAAF6kSAASwfMsdERd0KSRotKeqlkKTGrrYLimyrUaNHomPHjggLC0OLFi0gy3KFFYpgzZLFS/D99wuQlZVVZfUD+l2Kmwf3R7fz2yMgwN+Hd+dqaFU7RVBR7FAVG1S7DVAVQFVdXVj955IESdZB0hkg6/QQNe8rn5x47HgmDh85ju+W/IY/V61DUZG7GVmqDZD+g2J/KyEl5fuaL5JXUoACFKAABShAAQpQgAIUoAAFKOBtAQawvC0KIDoiupesUydLQD9AagbA4Gya1q1bY+q0qQgMCECz5s0QEBBQpXtGRgaWL1uOTZs2ISPjeJXgVUhwEJ6bfp+2VbBpk/AqgS8f3KY2pGK3Q7VbodiKoar2itOUBqtE0K0kcFWL4NWpkUUQCxIglX6V/rok6SAb/CDrjJBkGRnHM7Ui73M+/AYbNu+E3S52Crps4gbiVRXzEs1Jc1z2ZgcKUIACFKAABShAAQpQgAIUoAAF6kSAASwvMkdERDQy6HQPy8AdpScLmpwN36lzJ0ybOhV6gx7NmjWrdqvf+nXrMX/+fBw7loGCgqpb4+4dN1w7XbBtVGuI0wZ91RSbFXZrkRawqhCMUlVoQSpvBKhqvPiSgNapjCwtU8tgwsnsAuzZfwiz3/4MySnp7owu0sTSVUn6ODEp6Xl3LmAfClCAAhSgAAUoQAEKUIACFKAABXwrwACWd3x1sZGRtwHyU6qEVhIQ6GzYi3tejIkT74c4VTAkJKTarkVFRVi16h98/tnnOHnyZGmQ6HT31i2bYdrkcejT60KYTH7erXWlqlDsFtiLC6AqJZlVWv7UGQ9UefDASrO1bIqK/GIVT730PjZs2QWbrVKmWNUhxa1mqCreTzQnPevBjOxKAQpQgAIUoAAFKEABClCAAhSggA8EGMCqJWpMm5iLISkvSBL6AhAZV9WaxsbGYPqM6WjevDlMpuqTs7Kzc7B6zb/YtHETtmz+DxZL1TpOt4+8HrePuB4tmzeBTqer5V2UXq4qWoaV3VIIVdSrKgtYeWf4MzqKJKGwsBjf//wPPvl2GQoKi10tR4TqTkpQ5yUkJz/lqjM/pwAFKEABClCAAhSgAAUoQAEKUMB3Agxg1dC2VatWAf56/RhIuncAVUSQqrUUmVbPPvcMOnXqpAWbKhceL4kTqTh5MgvLf/0NR48eQ9KhRBw8cKBK1pXJz4ipk8Zi1NBrvVTnSoXdKjKt8rVi6w29KaqK+KQ03DX1dRQUFrm8XQnIVKG+lZCcPNNlZ3agAAUoQAEKUIACFKAABShAAQpQwCcCDGB5zirFRkZ2VyX5awloX93lIkgl62RMnjwJV199Nfz8/Bx2VRQFeXl5WLhoifZjXm4utm7ZjNzc3Ar9xWmE3S/oiMn3jMZFF3byfNWVrhAZViLTSgSuzsVms9tx5fBHUOjeKYXHAHV2QnLym6Ju/bnoxXumAAUoQAEKUIACFKAABShAAQqcSQEGsNzXl9o3aRJk8ffvJ8u6H51dJoJVF13UA7ePuR0xMTEOu9psNm1r4A+LlyIzs6S+VXZ2Ntb9u6ZK1pWf0aBlXD1w763wNzkOhLl1G1qxdQW24nwoVtfZR26NeRZ3EicT9h/9KHLyqhbGr3pbaqoqSbPCGzf+ePPmzaKKPRsFKEABClCAAhSgAAUoQAEKUIACdSTAAJZ70HJMREyspFeegoqx1V1iMBgQGhqKsWPH4JoB1zjc4ieCJoVFhVj77zrs21+yRVB8ZWZmYsO6tRWG1ulkNAoPxS3DroM4abDGrSxwVQDFWljjYRriheJ53DDuSRw7keX69lQclKD8nzEoaMGePXuqFiZzPQJ7UIACFKAABShAAQpQgAIUoAAFKFADAQawXKOVbBmEvESS0Ka67sHBwejZ82IMHTYU7dq1c9hNbAsU9a1WrFiJouLTRcRPnDhRJXhlNBrQpUMcxt0yGFdf3sv1KqvpIepa2a3F5+xWQXfgRC2sWyfPQkp6hjvd/5HseC4+NWkNgIZfNMwdEfahAAUoQAEKUIACFKAABShAAQr4WIABLOfAuujo6It0KtZX103UpgoLD8PNw4Zh2M3DHGZdWa1WiJMF//jzLxw/fqLCFsGc7GysWf2/CsOLbYJX9O6BiXePQkxURI1eAVWxa0XZrQXZNbr+XLsoMysXE6a/iUTzYde3ruJ7CcrMeLN5L2tiueZiDwpQgAIUoAAFKEABClCAAhSgQG0FGMCqXlCObtPmGp2s+626LiaTCW1j2mLQwIEYcO0Ah91EXatkcyr++69qYXYR2Ppn5UpYLKezsfz9TRjUvw8efWA8ggL9PX++qgpFscFWlAvVzgQhdwFVFUg/koEpz89DQrLrIJaq4n3Y5JcS0xPN7s7BfhSgAAUoQAEKUIACFKAABShAAQrUTIABLMduupioqOskyEsBVe+oS1BQEC7rcxluvHEIYmNjq3QRda1EttX6DZtgNpshirZXbvEHD+LA/n1lvywyrwZfdwVmPHQnxBZCT5vIuFJsVtiK8wARkWHzSEDUw9q57xCeff0zpB4+7sa16ut2SXotKSnpiBud2YUCFKAABShAAQpQgAIUoAAFKECBGgowgFUVToqJihoGSF9IQIAjV1HvatD1gzB8+M0ICQmp0kVkVh05ehTr1m7A4SOOYxsiM2vtmtVl2wn9/Iy4+YarMf3hO6GTZY8fp2KzwG4p0AJYAINXHgOWXlBQWIxfV27Ee5//hKycPDeGkWZJxbq34o/Eu1VAy40B2YUCFKAABShAAQpQgAIUoAAFKECBSgIMYFUCEcErCdLHAMKrC16JWlejR49yWO8qP78AycnJ2LptB44fd5zFI7KzNm1YX/a5waDH6GHXYfqDd3j+gqoq7CJ4VZwHUfeKrfYCxzOzMX/B7/hh2f9gtbk0LVSgPmrMz/9i//HjubWfnSNQgAIUoAAFKEABClCAAhSgAAUoUFmAAaxyIm0jI6+RIc2HJLV29KoEBgZi1OiRGDVqlMM3SWRV7d23H3v37kdOTk61b1tqagp279wJu90OWZJwy80DMePhOyFJnj0OVVGg2Iq1zCsGr7z7mzsl/RjmfroUf/+71fXAqrpLUZVJh1JS1vJkQtdc7EEBClCAAhSgAAUoQAEKUIACFPBUwLOIiaejn0X9o6OjW+hUfAtV7QNJqlL3yt/fH7fdfhtGjBju8K5OnMjE9u07EJ+QiMLCwmrvvKioCOvX/ouCggKtz8gbB2D6w3fAz2j0SEsUaLdbi6BYi6CqikfXsrN7AgcPpeGtTxZj/eY9Li9QoS7S2+0PH0hNTXPZmR0oQAEKUIACFKAABShAAQpQgAIU8EiAAaxSrtioqKckSFNUoFFlQaPRiLHjxlYbvMrMzMSm/7YgISERov6Vs7Zvzx4kJydp2VeX9+6BWU89gLDQYI8emmK3lta7srBYu0dyrjtLsg6y3ghIMhRFxZadB/DWh99j1954lxerUN+wqeoLZrP5pMvO7EABClCAAhSgAAUoQAEKUIACFKCA2wIMYAGIi4wcrkryqwCiK8vJsoy77r4Tw4YNc1jzKisrG5s3b8H+AwddBq/E1kERwLJYLGjSOAzvvfokOrWPcfthiY5a8Ko4X/uRJw16ROe0syTroTOaIEk6SHpj2XbO/IJCLF32N977dAGyXRR1V4ECCertfoGBy/bs2WPx3uo4EgUoQAEKUIACFKAABShAAQpQ4NwWYAAL0MdGRS+Eqt7gaOugOG1w0qSJ0Our7CpEbl4etm3djj179qKouNjpm5Qv+m7bipzsbO3kwReenIwbB17pUd0rEbSyFedD5UmDXv1dqzcFoyzzysHI6Ucy8P5nC7Hkl7/LTo2sbgEqsEFvtdxwID3dcQV/r66cg1GAAhSgAAUoQAEKUIACFKAABc4NgXM+gBXTJvo+SVafBKSIyo+8devWeOnll9C8ebMqb0NxsQX79u/Hxo3/ldWzqu6Vsdtt2LtnD9JS0yB+PuX+2zF21GCI0wfdbWWZVzYm9rhr5k4/vX8IdAaTy66JyWl456Nv8cfKdS77qpDeUyR1alJSUpHLzuxAAQpQgAIUoAAFKEABClCAAhSggEuBcz2AZYiNiv4OwE0A5Mpar8x+GRdeeGEVRJFBlZaWjhV/r4TYQuisFRcXIzEhHqkpKdoWww7tojHvtafQtEm4y4dzqoOq2GArLoBiFVleqtvXsaNzAYN/KGSDn9tM23btx9wPvsHGLbucXqMC+YqELklJSUluD86OFKAABShAAQpQgAIUoAAFKEABClQrcE4HsOIiI8eokvwcgCqFqCY/MAk33CB2FVYlOnHiBJYt/w0JCQnIzs5GcVExTCYTgoKDEOAfAIPRqGVapael4XjGcWRlZcGmbfsD3n5lBvpe0h16vc6t11JV7FrBdnHioE9qXkkSRP0nsYVOBMfE6YZizobexLZBndHfo9u0WKxY9PNf+PjLxTiWkenq2n8SkpP6A7C56sjPKUABClCAAhSgAAUoQAEKUIACFHAucE4HsGKjoj6CivGVa181adoE7777DsLCwsr0RNaVCFwtXLgIu3fvRkbGcdisVi2rSlEUrcC7qJOl0+khy5JWK6mwsFD7XPxctJE3DcBDE25FaIh7pw6K6xRrkVb3CqrivXdZkrXgjXbaHlAapCt9FVRVhLGg2Ipht4igmRfn9d4d1GokSZJhCGoE8aOjJuqZ7TtwCFt27MPBRDNE4Kp500bo3CEWMdER+GbRr/jp11WwK05tVKWwoOWhY8eO1mqxvJgCFKAABShAAQpQgAIUoAAFKEABnLMBrJjWrc+DXv+uBElkyVRor742G126dNGCUuLEwB9//Akr/14Jq82KjGMZWmCqJu3zd2ei2wUdHJ5m6Gg8xWaBrTAHqreCSJIMvV9ASeBKkqsN4Ii1iDlFNpZWNF6ceNiAmj4gFDp9xa2DiqIi/pAZz73yPkR9s4LCQuTmFaCwsBiKqsBoMCAwwB9BQQHIys7FySxRjN85iqpiU6I5qWcDouOtUIACFKAABShAAQpQgAIUoAAFzojAuRvAiox+VpLwMIDTaVYA2rZtiwkT7sWGjRuxadMmKHYFOTk5yMvLq9UDum34QEy4YwQahYW6NY524mCBCJJ4JwNK1vtBbwoqCVo52BZZ3aJEEMtalKMFsxpKMwY1Lt0yWXJHhUXFeObl97Btxz4cOXbC5UmDHjgoCclJIlLWcPA8uHl2pQAFKEABClCAAhSgAAUoQAEKeEvgnA1gxUZHfwAV94gddOUxxTbAgIAAiOLr4stbrVeP8zHz8Ylo1bLqiYaV59CCRiLzSvFO3MMQGK4FbKrbMifmF9sgDx89jh17DiAxKQ0moxFdOsVp2+b8jTLsxXlQnW+Z8xaVT8cR9b4MgWFlFna7HUPHTEFK+lFYrd7xrngD6ncJycm3+PSmODgFKEABClCAAhSgAAUoQAEKUKCBC5yTAay2UVGTZEhPAGhVV89Xp5Ox4NNX0T4u2umUou6VvbgAdkt+7ZcmSfALalJtxpUIWokT9d7+6DskHErRMo9EQEfUdpIgQaxZfIWGBmPWo+PRuX20w6L2tV9o3Y2g8wuE3hhQZvLMS+9hybK/vZl1VflmChOSkwLq7g45EwUoQAEKUIACFKAABShAAQpQoOEJnFMBrJjIyP6SJM0EJFGXyHEFbw+esaiR1bRZU1xzzTW47rpr0ahRo7Kr586Zi99++73CaG+/8jj6XnKhVuy9uia2DlrzT3qwCsddRaaRMSi8coKZ1vlU4OqJmXNxIjPbVTFy7Rpxrw/dORTDBvVFgH/F+lG1XmwdDqD3D4HOINZf8uqf32e4L4NXUAG7qipDD5nNP9fhbXIqClCAAhSgAAUoQAEKUIACFKBAgxI4VwJY+tioqCmANLumT0+SJC3w5O/vj6v7X427777LaSBqzltzsfzX5RARjFOtd8+umPXUA2jSWASWqjZVscOSd6KmSyy7TtLpYQwIr5J5JTKsUtOP4pU587Hq3/9qNM+0CSMwdGAfmPxKTjA825rYTinrDNqy3/9sEd756NsqtyCe9al26gTJWt5nRkJykuu9o7WchJdTgAIUoAAFKEABClCAAhSgAAUaqkCDD2C1b9Ik2BIY+IAM6cWaPESj0agFrTp37oynn3nK7RMEV6z4G199+RXS09MrTLvsu3cQ1aZl1aWoqnbin91SUJNlnr5GlmEMbFSl3pXFasXOPQcxbuLTtRsfwLLPX0SLZqezzWo9YB0OoDMFQ28wacG9a4bdh8NHM7TZ/U1+MBj0MOh1aNm8EUICA7SaWEdPZCErJ18cywiL1YZii7UmGVtZkkHfIj4+3ntF1erQjFNRgAIUoAAFKEABClCAAhSgAAXOtECDDmCJ4JUtIOB+SPIrnkKLwFVIaAiuH3Q9br3NvRrcIlvHarVqXxkZGfjg/Q+wZctWtwJYqt0KSy23Dooi7acKtpefNDevACv+WY+nZr3rKYPD/q8/cx/69jxfq491tjVJZ4AhIFTLjOvWbzQMej2aNg7Fg3cORb/eF1Z7OyJw9duqTfj+p1U4evwk8vILYbPZ3b39YlVVnks0m1929wL2owAFKEABClCAAhSgAAUoQAEKUOC0QIMNYDVv3jww2GQar0J6x5MHLmo9tWjRAj16dMfESROdZlyJgJU4qbCoqFirK1VQWIBDiUk4cPAg8vLysW3rFqSnpVWYfulXbyE2OqJCMXRVVWDNy4T4seZN0k7XO7U97tQ4Wdm5+GrhMrw/f2HNh6505StP3oN+l3aFTqfz2ph1OZAhIBzWwiyMmPB/6Ne7KyaOHeLR9P9t349vlq7E9j0JyMkr0J69Gy0tITkpwo1+7EIBClCAAhSgAAUoQAEKUIACFKBAJYEGGcCKi4vzs1ssIyRIn0siLcnN1rhxY7Rp0wZPPvUEQkJCHF4lglaFhUXIy8vTgleJhw5h79792s8rN0cBrDdfmIYr+16sZf6canZLIWxFuW6u0nE3WW+E3hQMST4dVMrOycW8TxdqASxXTTttMDgQjcJCYDRULTIvTibMzMqFyOZa8vFzaNbEcR0vV/PUp8/FvQQH1fyAwCW/rcHyvzdiX7wZBYUudwcetkvolJSUlFWfDLgWClCAAhSgAAUoQAEKUIACFKDA2SDQMANYkZGdFcjzJQkXu/sQYmNjcfPwm9Gnz2Xw86t6yp7dbsfJk2LrWAGSk5KxY+cul5k3jgJY0yaPw+ih18JkKpnDK4XbJQmGgIrZVyIr7OOvFuP9+YuqJZAlCeFhwYho2QRhIUG4pHtH9OvdTdtSV7kVFhXj7zVbsXV3Ah66a2itAj/uPpOzoV9+QRHe+/wnLPt7gxbcc9JyFahPHEpO9igj8Gww4BopQAEKUIACFKAABShAAQpQgAK+FmhwAay4uLgQu9V6jwzpNXfwDAYD2rVrhymPPIzIyMgql4iMq/T0w8jNzcXmzVtx/IT7pwRu37YVaampFcYcO3owJt01CoEB/tqvi8wrkYFVmyYbTND7BZZlX4k1L12+Es+9Mg92u+PtbeGhQTi/Q1tc1LU9brruMgT6m2qzhHP+2nfmL4XIyMrOzRf13h01RYW6JTE52e2g6jmPSgAKUIACFKAABShAAQpQgAIUoECpQEMLYElxUVHdVEhrAVRNo6r02MU2wQsuuADj7xinbR2s3I4cOYqsrCys+Xcd8vPzPX5pdu7YgdSUlAq1rW65eSAennAbAgP9odptsORnejxu5Qu07Cu9seyX/92wDQ8/+aq21bFKX70e0W2aY8DlPTBm+DUVtjLWeiHn+AAffPULvvtxpVYXy3FT4xOSkzsBsJ7jVLx9ClCAAhSgAAUoQAEKUIACFKCARwINKoBVmn31oAxppiuFsLAw9OvXD0OH3YTmzZtX6G6z2ZCQkIjt23fg8JGjroaq9vNdO3ciNcVcYavhbcMH4cEJt2oZWNaCbCg2l7WTnM8vTh70D4WsN2j9jmacwB2Tn0FK2lGITKzyzeRnRJ+eXXBD/0u0UwTZvC8w74uf8fWSv1BYZHE0eJoN6ojk5OR13p+ZI1KAAhSgAAUoQAEKUIACFKAABRquQIMKYLWLjIxRJHkbgGBnj0wEr66++ioMuXGIduJg+ZaRcRzmlBSsW7cBou5VbZqjANb9d4zEnbfdCD+jHlYvZF/Jej/oTUFl2wffev9rfL1wGUTNqvLNz2jAkAG9MWZYf7Ru2aQ2t8VrXQi88t73WPLralhtVd6fQkVVFhwym8cTkQIUoAAFKEABClCAAhSgAAUoQAH3BRpMAKtTp05GS17hTaqkfu/s9kWB9v79r8aIkSPRsmXF4NWBg/HYv/8AkpPNtQ5eiTVoNbDSUoFyiVAvPvUABva/DJK1oPbZVwB0fkHQGf3v4yWXAAAgAElEQVQhSRLMqYdx10PP4/CRjAoEer0ON157Ge4fMxii9hWbbwWyc/Nw6+SXcOSYw+2hWxOSk7r7dgUcnQIUoAAFKEABClCAAhSgAAUo0LAEGkwA67xWrZrYDcafAVzi7BFdcsklGDd+LGJiYip027fvADZs3ITs7OwqW+9q+sgdnUL41QezcH6HGNgKs1BdtW9P5tP7h0BnKCnA/vKcT/HDzysq1L4Sga1e3TrgmSlj0bxJmCdDs28tBH5YvhqvvPsd7ErFIvoqsD2xJIDluLp+LebkpRSgAAUoQAEKUIACFKAABShAgYYq0HACWBERre06fcUj/yo9tfbtz8P4O8aje/eKCTB79+3Hxo3/eTV4JaZ2FMBa9t07aNUkEIq1aoH1mrxkhgBR/8pPC7oNv2Ma9h9MqjBMYIAJb8+cjK6dYmsyPK+poYCiqOgz9CEUWyrVa1dx0AplqNls3l3DoXkZBShAAQpQgAIUoAAFKEABClDgnBNoKAEsXVybtlersvp7dU9QlmUMHTYUY8eOgclUkrEkmtg2uGHDJpw8edJrmVenxnYYwPp2LlqGi4CTdxJwTmVg7dmfiGlPvw5z2pEKBM9PHacVbWere4E3PlqErxevqDxxlqpiTqI56bm6XxFnpAAFKEABClCAAhSgAAUoQAEKnJ0CDSKA1apVqwCTzvClJEvDqnsMnTt3xh13jsf5558+fe/48RNYveZfpKamVTgp0FuP0lEA66fPX0br5mFe2T4o1qkzBkDnF4A33/sKC378A3n5hWXLH3RVT8x89A5v3Q7H8VAg40Q2rrt9RuWr7FDxV4I56ToPh2N3ClCAAhSgAAUoQAEKUIACFKDAOSvQIAJYMTExoZJdSXF2+uANg2/AhAn3wmg0ag/bblewbt167Ny1GxaLxesvgNjSt33rVqSnp5WN3bJ5E3w0ewpaNmvktfkkWQeRhXXvI7OwcctOiK1roonC7QvmPY2oiOZem4sDeS7Qa/Bk2KqcRij9m5B8qI/no/EKClCAAhSgAAUoQAEKUIACFKDAuSnQIAJY0dHRYToVJ6t7hGFhYRg1ehSGDRta1mXrtu3YvHkr8vPzffLkCwsLsGvnTmQcO1Y2/vAbrsTEsYMRGhzg1Tl1piCMf/AFbNu5v2zcWTPuxIDLL9JOJ2Q7cwIz53yNpb+tqbyAtQnJSSKAVe58yjO3Rs5MAQpQgAIUoAAFKEABClCAAhSo7wINIrrRpk2bWKOsi68O+6KLLsKE+yYgMrKN1kXUu/rf6n+RlJTss+dz7OhR7N+/D7k5OWVzzJ05WTsRUK/TeXVeSZJx92OvY+vOg1odrwCTH5Z98SJCggO9Og8H81zAnH4MQ+96tsKFErBdsVlHJqalHfB8RF5BAQpQgAIUoAAFKEABClCAAhQ49wQaQgBLjmkTdZ8kS+9W9/iuvXYAHnr4IehKA0cbNm7Ssq+s1konxHnx+ccfPIhDiQkV5vj67SfQIa4kiObt9uvKTZjzyQ8QdZdeeeJu9OvdDTqd7O1pOJ6HAlarDZcMeaDyVWlQlecTzOaPPByO3SlAAQpQgAIUoAAFKEABClCAAuekQEMIYOliIyMXQ5KHVPcEBw4ciIenPKR9LLKv1qxZh8RDh3z6wHft3AGz2VyhWPu37z6J82IifDJvUbEFH333J376/X/4as4MNG8a7pN5OKhnAqL+laiDVakVQVW+TzCbx3s2GntTgAIUoAAFKEABClCAAhSgAAXOTYGzPoB1JaA3R0YdlyQp1NEjDAoKxE1Dh2LMmNu1jzdu+g8bN/4Hu93u0ye+c8d2pIgAVmmLjWqF156egMjWzXw2rwVG5GWfRFiwP2SZ2Ve+ghbBQvEbx2g0uKwxJt6zWya9iITkw+WXo0LFHzyJ0FdPiONSgAIUoAAFKEABClCAAhSgQEMTOOsDWD169DBkHT9RDGgxhSotMjISY8eNQd++faEoCtauW69tH/R1qxzAun/sEIwaciWCA/19OLUgODN1wS0WK3buS0LXzrHQN/CtiwcPpeGHX1ej36UXajXNnDXxzs2etwALf/mnQjdJwp/xSUkDfPgycGgKUIACFKAABShAAQpQgAIUoECDEWgoASxLdU+ke/dumDR5EiIiIhCfkIh169YjM7PaAwu98mBtVqt2AmF6elrZeJ+8Ng0Xdo71yvj1cZDs3Hz835tfISjQhOenjquPS/TamvYeNOOtjxfjxmt7Y2C/nnB20KMoqr9y7TY8+sKHDGB57QlwIApQgAIUoAAFKEABClCAAhQ41wQafACrb98+mDptKvz9/bFp02YtA8vXTdTZ2rd3D05mZpZN9enr09C1U8MNYJ3MzsW909+ETtbh67cfb9AF5EUG1psfLUJWTj4en3wLzu/Q1ukrlXEiC9fd/nilPupfCcnJ1wJQfP0+cnwKUIACFKAABShAAQpQgAIUoMDZLtDgA1hXXdUP02dMh8iEEQGsdes3+PyZJSclIT7+IIqLirS5TH4GvP/yFJeBDp8vzNsTaKlHEmRJh+wCKybOmI209GMYO2IAxo9oaLvjJIhUK53RHzkFNsx642P89vdavPT43ejfp5vTmmO5+YW4cvgjFfRVYINVsd+WkpKS4O3HwvEoQAEKUIACFKAABShAAQpQgAINTeCcCWDl5eVh/fqN2L1nr8+f4d49u3EoMbFsnv59u+Ohu4ahVfPGPp/b9xNIWuFySdZBHxAKSSopFp+XX4C35n2F75b8jgs6xuDD2Y/AoNf5fDmioHpObgFMJiNCggJ8M58IXBn8ofcL1IJYoj33yjws+ukv9O7RCY9MGIG2bVpUO7ejABaA/aoqT0s0J/7im0VzVApQgAIUoAAFKEABClCAAhSgQMMRONsDWHLbiLZdZJ26vbpHcioDKykpGf+uXYfjx0/4/Ont2b0bSYdOB7CenTIG115xEfz8jD6f25cTiKCVpDPAYAouC+Scms9ms2PNhq2Y/NhL2kmL0yeOxiXdO/pyOdrYq9Ztx8y3vsLlvc7HlHtuRkhwoFfnlGS9lnUlvsq3UwEs8WvidMnLe11Q7bbJagJYx1QVbyaak1726oI5GAUoQAEKUIACFKAABShAAQpQoAEKnLUBrE6dOhmL8/IuhiSvcfZcTgWwdu7ajdWr18Bqtfn8MVYOYL0360H06ub7YI4vb0zLuPIPgawzVDtNcsphXD96spah1fuiTpjzvPi5L1cF/LpyI56aPV/Lvrrn1kG4dejVXptQC175BUJn8Ksy5qw3P8GCpb9DBO5EIffJ429Ei2aNHM7teAuhmi8B8xOSkx/w2oI5EAUoQAEKUIACFKAABShAAQpQoIEK+Di84Bu1pk2bBgWaAvvrZGkhoOrdCWBt3bYd//uf01iXlxaroiSAdahsvLM9gCUCOYaAEIgfnbXU9KMYffcMZGXnoEv7aLzw2B1o06qZl1wdD3MqgCU+HT/yWkwaN8RpPSq3FyPJ0BkDoPdzvC3x59/+wbz5C2BOPaIN+fYLD6BXtw7QySVbKsu3ajKwFKhYlGBOGuX2mtiRAhSgAAUoQAEKUIACFKAABShwjgqcdQGs8yIiWtsk/WBJxhsAKu7rcvAQT2Vg1VUAy2azQdTASjGbtdUE+PvhrecmoscF552dr5gkwRAQ5jTz6tSN5ebl48PPF2P+N0th8jNicP9LMWPyaJ/ed/kA1pABl2LSuBvRpFForeeU9X4wBFQ/zsmsHDzz8ntYuXqTNtfQgX1w/5jBaBweUmXuvPxC9L/lMUfZf0sTkpOG1nqxHIACFKAABShAAQpQgAIUoAAFKNDABc6qAFZcZGRnAHerknyviA2582zqOoCVn5+PfXv34OiRksycrp1i8PjkW9GubWt3llvv+sgGk1a8XGwhdKftPXAII+6cBqjAhZ1j8dRDtzstcO7OmM76lA9giULqE8ffiKt6X1irYUVhem3rYKW6V5UHFXWwli5fqW0jFO2DV6age5e4Khlg+QVFGHnfTBzJyKw8BANYtXpSvJgCFKAABShAAQpQgAIUoAAFzhWBsyaAFRcV1V2VpBlQcYM7mVenHmBdB7BOZmZi/769yMwsCVaMuOEK3DnqOjRrEnZWvlMG/1DIDmpAVXczKWlH8Nhzb2HnnoMI8Dfh5uv74qE7h2p1sXzRVqzZiufe+BwFhcXa8KIO1l2jB8JgcL7d0dlaRKF6Y0BYlUL1la/5+beVeO+TBUhJP6Z9dOO1vfHgncMQFlKxkLxY232Pv4nd+5MrDqHixwSzloGl+sKGY1KAAhSgAAUoQAEKUIACFKAABRqKgG+iCl7WiYuOvkQFHoeKazwJXoll1HUA69jRoziwfx9ycnI0hcfuHwWxtc3fVLUQuJeZfDKc2EYnttO524otFvy5ch1m/N9c7ZLO50XjobuGoccF7dwdwqN+O/cdwlsfL8a23fHadaIOldhG2Ll9tEfjlO8sCtUbAsNdXp+Xm4tpz76FNRu2lfX96NVHcGGn2ApZWIVFFjz+8sdYvWFnxTFV7ISCxxJSk35nEMslNztQgAIUoAAFKEABClCAAhSgwDksUO8DWG3btL1cltUZAK70NHglnmu/q/ph+vTHsG37jjop4p6enoaD+/dDbCUUbfZT92pb2nyVgeTrd1ecPKgzmDyaZn98EqY+/TqSzOmQZQlXXNIVU+65Ga1bNPFoHHc6Z+fk46slf+HT737Tuut0MiaOHYJbb7oKRmP1JyY6G9udAJaqKlCsxZjzwTdY+PNKiELtovXv2x1PPnibdiriqVZcbMXs97/D0t/WVplWBbYB6lOJycm/AlDcuWf2oQAFKEABClCAAhSgAAUoQAEKnGsC9TqAFRMZ0x+SfYYE6TIAnkVRSp9knz6XYeq0qdh/4GCdBLDSUlNx8MB+FBQUaCt4/Zn7cOWlXc/a98rTGljiRkUx9wVL/8Cb877S7rtJoxAMv/5yDL/+CoSHBnnVQlVVLPl1DV58+5uycbt2isWDdw7VanDVpIkthKJwvaOgo6rYodgsUBWb9mP8oVQ89/rn2HPw9PbA919+GD3Ob1eWhWWx2vDJd8vx8TciRlW1iSCWqkrPHDIfWsYgVk2eGK+hAAUoQAEKUIACFKAABShAgYYuUG8DWDGRkf0lSX4CQG8A7u9hq/TEevTojskPTMbRYxl1EsBKT0vFgf0HUFBQkoF1tgewIElaEXfZ4O9RFtme/Yl4eta7ENlYokW0bIJbbrwKA6/qidDgijWiavub7LdVm/DyO9+WZUGJ8e6+ZRBuG3o1QoLdqvVfcQmiiLvRvyTzTJIBkW1lt0K12yACWKr4uXo6WeqxFz7EP+t3wGYvKebes1sHvPHMfWXbRq02O35Y/j+8Om9BtbcqgliyqjwTbzYziFXbF4LXU4ACFKAABShAAQpQgAIUoECDE6iXAay4qKhLVUhPix2ArjKvxA1c4GfE9mKLw4fTqVNH3DvhXhQVW+okgHU4PV3LwMrLy2sYASyIGI4Oks4IvV+A26cR5uRkY+HiX/HmRwvLnkublk0xbFBfDOzXE00bh3rtN1Oi+TA++OoX/LV6S9mY0W1aYPrEUeh5YYeazSPJkHX60gCWqmVcieCVo7Zy7Ta8+dEipB05UfaxmHv4DVdAliQtsCXW9uQrnzpdS7nthCKIxUYBClCAAhSgAAUoQAEKUIACFKBAqUC9C2C1bdv2Ap2iTldVdQgkyeV+s0fDQ9FCp8PU4yWn/lVuUVGRGDtuLMLCG2H16n9hsZQEuux2O3JzcpCRcQwFBYWAevogOKOfH5o0bYqwsDAYDJ7VUTpx/Dj279+HrJMntXnO+gysMlAJst6gBXRkWQ/ZYCwJ7kC8QmppllLJtjqtKXYcTEjG3E+XYM2mXWWjtGgarm0nHDKgNxqHh3jlN6LNZsdXi//C2/OXVhjv6j7dtILuURHNvTKPo0GOZ2bjq8Ur8OMfa5GTW5J1J1rLZo2w6MNnYfIzQlEUbN55EPfNeMvlOlRguyRhRkJSUklRLzYKUIACFKAABShAAQpQgAIUoAAFtOhDvWlxbdrEKrI8RYJ0G4AwVwt7ulEorgsMQL6iYkDaEYfdGzdujJGjRqJ79+743+o12LljB8RJgSIrpri4GAX5+bDarFoM5lTT6XQICAyEyc8EWSfDaPRDx06doNfrXS0J4mS6ffv2anOINvvJe3HVZWdvEXdHNyyJwJXIypJOvz6iFpXYalc+S0nUfvrx97V45b3voH1e2po3DddOJuzfpxuEtTfaqnXbMfeTxUhOO1Y2XIC/H2ZMGo1r+vaoUUH3YosVmVm5yDiRBXPaMaQfPY70IyeQV1BUNkdBYRH2HjQjJ6+k5ln51rfn+Xjr+YnavSckH8ao+2e6eavqZgCPJiQnr3TzAnajAAUoQAEKUIACFKAABShAAQo0aIF6E8CKiopqqYc8GapyLyTJ5XF1zzcOwzUB/jBKEnIVBf1SHQewTCYTBg4ciMioSCxauAgnT55EYWFhhYCKqycsyzqEh4fB5O+PTp27OM3Kstls2LtnN1LMZm1YUUz85kF9ERTo72qaBvn54aOZ+PT7X7H41zUV7q99bBtMu28Eundp55X7FtlPH32zHN8s/bvCeGIr4f9NG4/O50W5Nc+RjEy889mPOJmVC7uiQJwgWFhkQX5BIfILi1BQUARR08qd5mc0Yu2Pc7SuR45l4vpxT7pzmegjCmxthKpMSzCb/3X3IvajAAUoQAEKUIACFKAABShAAQo0VIF6EcBq2rRpULB/4F2SBPE3/KausF9sHIYrA/zhV5oB5CyAJbKExFZAkT2VkZHhaminn8uyjJDQUISHN9Iyshw2FdizZxeSDh3SPh5weQ9MGn8jIlq6vK1ara2+XqwoKlas2YLXP1ykZTKdasLyhUfH49orL/ba0sU2vvc+/wliW1/5JjKhpt03Uisk76odPJSGcQ+/ApF9Vdv2yWvTyk5CPHYiCwNvf9z9IVXVBgmrJWBqfHLyVvcvZE8KUIACFKAABShAAQpQgAIUoEDDE6gPASxdTHT0SEmFKBDUzBXxrCbhuMLfVBa8Ev2dBbBcjVeTz0UwrGXLVujUpYvDLXB7du9G0qFEbehGYcF49akJZYGMmsx3pq958+MfsHn7AS0j6cpLu+Kqy7ohJrKFW9v/4g+l4f2vfsGajbtgtdkq3MrMaeO1UwnLb0Wszb2KbXwigLXwl38qDGM0GvDSjLtw2cVdYNA737KYejgDM176WNsWWJv24StT0P38dmX35nEAq2RyC1R8CptlVkJ6ekpt1sNrKUABClCAAhSgAAUoQAEKUIACZ7PAGQ9gxbVpO0SV1Y/dybx6tlEYrgn0h6lc7aUzEcASc4raTS1btdK2FFaujRV/8AASExIgthOK4My7Lz6IXt1qeBreGX67RAHyB55+B+u37NVWEhhgQqDYumnQ49RjCAkK0Iqyx7VtjeDAABQWFmPTjv1YvmID8goKkZ2T7zCj6YXH7tBOJPRmEzW3xImER4+XFNE/1UTB+HkvPYTYqFZOp7NYrPj73214crbzEwOrGyQ0OABznp+Ezu2jIbLMTrUaBrBEgfw8BfLjOoPui/j4+BxvWnEsClCAAhSgAAUoQAEKUIACFKDA2SJwRgNYMZGRV0uQvoAkOY8qAJgeHopBgf4ILBcUEMiiNPjawiI8lOH4FEJfPggRoGgdEYHOXc6vEKzIyc7G3r17IE4kFO29WSKA1dGXS/HZ2CJz6s2PFiEptaQovaMmSxL8TX7Q60sKu4ui5aKAe1FxcfnDHatc6osAlqhZJbYr/rD8f1Xma9OqKd5/6WG0aNbIqdfeeDMenfkBDh9z/50SBlPvG4ErL+mKZk3CKrwPYjJHASwR3pIlwFbuAIFqFparqsqwRLNZFHV3rwCXz94IDkwBClCAAhSgAAUoQAEKUIACFKh7gTMWwIpp0+YiSZI/gySJYlJO1zExNBg3BwcitFLwSnDZVBVXph5BUblT7jxhDPA3IaJ1c8REtUaLpk1w9PgJJJkPI+FQCixW13WQRMAmMioanbt0KZtWBHB27diBlJSSbWjjR16L24f1R3hokCdLqxd9F/y8Cp9+/3uF+lXeWJjBoNOKqw+4/CJvDFdhjK27DmLup0uxY2/JNs5TTTyrUYOvxMRxQ7RMsuqaqNu1ZedBPPfG5y6DWCITbfIdN2HAFRchPCRIC+I5ao4CWBf5GXGpyYh3s/O0qu0uWoHNqvZJTk/eVhq3ddWfn1OAAhSgAAUoQAEKUIACFKAABRqMwBkJYJ0XEdHaJumel2TpLleSI4MCMT40CM10jgMD/VMPI0txncJSfp7IiBZ47IE70Ld393KRM0nbElcSBysZT/zzvkdmYt2mHU6XaTQaERsXh7YxsWX9du7YXnYSYaPQIMyZORmd2rl3Ep4rk7r8XJzGN+2FD7Ftd7xXp50xeTRuHti3SqaSNyYRAcRX3v0OP/y6BmILZPkmgljz33i0ZItfpa2o5fuJMcTXhq378PoHC5GSngGb3Q4/owEtmzXCLTf104Jv4nRJMaarOl6OAli9TEbMCA/GHwVFmJed786tK6pd7pCYmnjQnc7sQwEKUIACFKAABShAAQpQgAIUaCgCdR7AiouL87NbLENkSV7gDFEs7AI/I6aFh6Cj0eiw62c5eXgny72yQKJmVVSblph01yhce1Vvj55fTm4errrxHhQVW6q9LjIyCh07dy4rbH70yBEc2L8fubkl6/v09Wno2ul0gMujBZzhzq/OW4BfVqxHXn5hrVei08m4f8wQ3Dr0Ki0Y5KsmntXzb3yBP1dvdriN8fevX0aTRqG+mr7KuNUFsB4PD9ayCH/OL8KXuQWuM7FUdYuikwcdOnSo+j2ddXZXnIgCFKAABShAAQpQgAIUoAAFKFA3AnUdwNJFR0f30alY5er2Wup1eDw8FL39HW/1Enk1vVPS3akfBJPJD2NGXo8H7rmlxhk/GSdO4qbbH0Z2Tp7DpYsAWVy7doiNa6d9LjJ/tm/bisPp6dq/iwLiF13QHrIoenQWti9/+BM/LF+No8ezIAqde9r0Oh0CAvxw72034JYb+3l6eY36/7ZqE97/8hekpB+rcr2/vx+WffYiQkMCazS2pxc5C2CJsXIUBYvyCrG8oMjlO62qmGIKCnhvz5491UdUPV0g+1OAAhSgAAUoQAEKUIACFKAABeqxQF1GU+S4qKgLFUgrJCDMmUmYLGN6o1BcE+BfbbedxRbcffS404rWYltXaEgQbh9xPe67Y0StH0Nq+lGMuuuxaoNYMbGxOK99h7Ig2batW5CelqbNO/iaSzF5/E1o0iik1us4kwPM/XQxVq7dDqvVBlErKje/ABaLDYrYeym23YmCZpKkbc8zGvUQNcYMeh06tovEuOED0KVD2zpd/kvvfItf/lrvMHuux/ntMHfmZJj8HGf4eXOhrgJYYq4Eqw3f5hZia7HFZaV2VbFfnJiSspn1sLz5lDgWBShAAQpQgAIUoAAFKEABCtRXgToLYLVt27a5pCjzJUgDnWGEyzIeDg/B9YEBTs1GHc5Agosi62FhIbh9+CCvBK/EYsS2tOV/rsazL7/ncFtao0aN0b5DB4Q3KjnlrnwAS9RK+vS1aYiNdnngYn19V6qsKzevAF8vWYG9B83ILyyCzWbXMs/E1kBRJL1DbCQGXd0Tka2bn7F7EnWsnn7tM6xYvUU7GbFym3bfSIy44XKIDDFfNncCWGL+9UUWfJNbALPN9WGDNqidkpOT9/py3RybAhSgAAUoQAEKUIACFKAABShQHwTqJIDVo0cPQ1ZGxnhI8ofObjpIlnFfaDBGBgdCdqHTL/UIcisV6C5/SXBQIEYNvRYP33ebw5HsioLDRzK0bCoR5DjVWrVoirDQkGq3+iWZ0/HA9JdxyFySWVW+6fV6LQMrum1JllH5AJb492/ffRLnxUTUh+d+Tq0hOe0onnv9C+zan1SlqLtOljHn/ybhku4dXRZirw2auwEsMcey/CJtO+FJJ++36KcCR22q0tFsNp+szdp4LQUoQAEKUIACFKAABShAAQpQoL4L1EUAS4qJjLxKkuS/nGEYJAnXBvjj7tAgROj1Tt1O2O0YdvgY8qs5fdDf5IfrB1yO56bf53CclLQjWgDqqwXLsGHzLtjtp7Ndxoy6AX16ddMKfLdrGwFZpxd74srGEVlGa9ZvxQPTXyo9q7DiFCKAJWphOQpgffbmY+jSPtqngZL6/sKdqfV9//MqfPzNcmRm5VZZgnhf3n5hMrp1jvPZ8jwJYIlF/JBXiB/zC5Hj8oRN9amE5ORZ3Eros0fHgSlAAQpQgAIUoAAFKEABClCgHgj4PIAV17p1hKI3bJSAls7ut6PRgPtDQ9Db388lyzfi9MHsXFjKZU6Vv6h9XDRem/kI2ka2rjKWyKB6c95X+Hv1xgqZV5U7doiLxIQxQ3Bl30u0kwUlueRLtH0HD+HhJ16FqIlVuZ3Xvj2i28Zopw/u37sXmZmZZV2efPBWDLqqV53UXHKJeA52eP2DhVjy278oLCqucvdhIUF46/mJON9HNbqOZGTi+rFPVpi3l8kIcQqho1agqPgitwCrCotRVM17XnKdalNVdWCi2ew0QHwOPm7eMgUoQAEKUIACFKAABShAAQo0IAFfB7CkmKjo1yVgijOzCL0Od4cG4wYXda9OjXHv0ePYVmyBOImwcgsKDMDImwbgkYljqnyWdvgY5n7wDZb9udrtRzhr+p244tKuCAgOhU5n1IJYuQXFWLD0d7z1/tdVxmnRsiXCwsK04u05OTkVPu/ftzumTxyNRmGOgxZuL4odayww862vsPzvDVXqYYmi8zHRrfDslDHo1C6qxuM7ulBsUU1IPoxR98+s8LGzAJbouN9iw2e5+dqPjt71U4OpqnoEiv3yxNTUg15dOAejAAUoQAEKUIACFFK8jF0AACAASURBVKAABShAAQrUEwGfBrBi20SPh4z5zu61qU6HsSGBGB0cBHcXMzDtKDLKbfsrP35cTCS+fO8FBAcHVphWFBf/5odf8c7H3yEvr8BtflmW8Mi9IzBy8BXQyTptS6Fs8MeGLbsxYdpLTrO4Kk/SsnkjfDT7EbRs1tjt+dnRuwJZ2Xl45vXPsX7zHog6aOWbOC3x4gs74LH7R6JNq2Zem1jMs+6/PXjo2XfLxhQ13nr7GzHNRTDz78JifJdbgGN2ZyEsWKGqnyeYk8WeWdfV3712ZxyIAhSgAAUoQAEKUIACFKAABShQNwLuxow8Xk27qKiOCqStAKrdEyjqXvUPMGFKWCga6VyVbS9ZQr5ix82HM3DcwV/oDQY9+vW5GG+8MK3KehOT0/DOR9/iz1Xr0aldJNrHReKQ+TD2xZtRWGRxen/iVL2pE0bg5kF9S/tJ2H3QjGdmf4Kk1KrbCKsbTKxv4fvPoE2rph578gLvCezYm4hnX/8c5rRjVQYVpycOvuZS3DV6oNcy5aw2OxYv/x9mz1tQNp9JknBNgB/uCqkYaHV0l4u1elhFyHZe1D1blTAlMSnJacDYe4ociQIUoAAFKECBBiQg/k4gamWIQrTiywDAH4D4rqv4agIgHIDJwT2L77KJbQlZDcjjXLoV8dzDAFwMIKb0PXB0/0UA/gQgTrKynktAvFcKUKD+CPgqgCXFRLX9UoJ6C1D9gYLtDAY8FB6CS0yu616dCl5l2+2441gmTjgIYDVpHI6Xnn4Ql158QRXhxb+swLsff4fzYlpj9I390L1zHL5e+je+XrwCJ7OrFvauPEBoSCBef2oCup1fUqA9Oycf3/20Eh9+vcztp9mqeWN8+MoUtGzODCy30XzU8ec/12HW299U2UoophNbPG+96SqMHHwlRECrtq3YYsXbny7Btz+uLBsqVJZxU6AJQ4PEnw2dN1EP653sPGwqtsB6+sBMRxeZJVUZFG8273Y1Jj+nAAUoQAEKUKBBCIjvAJ8KOImgk7E0GCFSyUXQSXzXVAQnSgq5Om/i+vJfQQBalPsSYzr6g4sIYM0G8CKAPFeT8PN6IyCCVVcBaF76nvQD0NnJuyK2sIjvxiYCEN/9F4kKf9Sbu+FCKECBc0LAJwGsuKiou1VIc6v5n5wG20Knwz2hwbgxKMAt6ALFDhG8skPFXcdOOgxgRUa0wE/fzIVeV/X/0T/8/BfWb9iMscOvwXkxEdqcs9/7Hkt//xciwOCq6fU69Lm4C15/puRkQ1FXe+XabXj0hQ9cXap9LuYUGVyiiHuAG4Xq3RqUnWol8PnCPzB3/hI4Ok6yeZNw3DHqOgwb2Ac6N7MDq1uMyPCbMesjrNm0q6xLC52M24MD0MfNd2GXxYp3svJwxPlWwgJVxReJ5qSJPJWwVq8GL6YABShAAQr4WqBy0EkEi0SwSQSJxJf4ufg1V00EsMoHnUQAq1HpGCKAJYIT7gawXM3l7HMbAFFENL02g/DaOhEQ340fDuB8AP1L3zVPJxbfUt0CQHwnPwHAF54OwP4UoAAFaiLg9QBWmzZtWhllnUg1Ef9xdDi+2D41IMAfj4aHwl92vYRCRUG23QZbaaShugBWVERLLPv+HYcOiYeSUZiXjbgo8Y0kQNTEeurVz/D7qk1l/du1bY2r+3RDgKkk62belz9XOLGuSaMQzJx2B3p266B9vmrddkyb+YHTOliNw0Nw3ZUX45LuHdGtSxz83cw2q8nD5DWeC3yx6E/M+WSxwwsjWjTB3bcMwvX9e0GW3dvi6mig/IIi3DLpRaQdOV72cYxBj0mhgYg1iD+/utdWFBTh89wC5ChO07BEQffHE1JSPnNvVPaiAAUoQAEKUKCOBURg6TYA7ctlT4maAiLwdGrLnvi56zoDdbxwF9OJ7xCL7WVs9VNAvFtDAAwGcJ2zRAMPli+y78wAxJ87fyrNyvLgcnalAAUo4JmA6+iRZ+MhJqrtuxLUO5z9R1H8pf35xuHoYBTfMHLeitWS4JVFpDyVNkcBLEmS0L5dNBbNf83hgHZLEWzFeYBaUgw7Pikdr877Hv/tOKD9e1Cgv1a8u3/fHhA1r0T75a/1eP7NL6CUBgwMej369uqCV5+aoH2+a98hvPHRD0hJL6mlZDTo0aRRKLp2itXqXOlkGcHBAbjogvMQHsqTB1096zPxud2u4J3PlkIEshw18RzvHDVQC2KJ51mTlptfiP6jH4XNdrq+ehejAU80CkaA5P5vQbuq4sOcfKwstFT4/VBpTYqq4l+LYrslNTWVf4isyQPjNRSgAAUoQAHfCpwH4GMAp4qr+na2uhudAay6s/Z0pmgAswBcCkD83NtNbC9cC+BnAG9zJ4C3eTkeBShwSsD9vz27YRbXtu0YVVHeACTxnSWHrZlOh6nhIbg6wHXtH/EX9mzFBpGBVT7nxFEAS2zx693zQrz36hMO57VbCmArOr0tf8HP/2D+gt9w7HhJvcmJY4dg5JArERxYcV3fLFmB1z9cVDam2Ar47btPav8uMmsSzYdxMitXyzXT6XQICvBHRMsmCA8LhuxBcMINXnbxkcDxzGy889mPEHWxHDXxPMcOH6Bt//Q3icx8z5oIYF05/JEKF3X1M+D5RiGeDSTy8m12PHEiB1nOC7pnSSo+iDcnzfB4Al5AAQpQgAIUoICvBcQuBRHAutzXE9Xx+Axg1TG4G9OJv+uJWldii4rIuvJ1E1tI3wAwB4DYVspGAQpQwKsC3gxg6WKjon4H5CsA1eG+KHHqYF+TH15oEg6ji+COCFjl2G3aqYMlOVOnm6MAljjhr/8Vl+DV56c4BLIXF5RkYJW21z5YiEXL/gerteS/rR+/OlXb4le55RcU4rrbH0dBYbH2Uds2LfDerIfQrIkoJ8DWEARUVdUCka+9vxAbt+1zeEstmjXCiOsv104oFNtCPWneDGCJef8tLMbc7HwUl8tKdLCe/aqqTEs0m3/xZK3sSwEKUIACFKCAzwXEHzg/YQDL587n+gTi73kiWPohgCvqEONIaRDrTQax6lCdU1HgHBHwWgArJjL6WUh4SCo5YtdxEECnw9vNGqOtG3V/chU78kqLtlcerLoMrMt6dcO7sx+vMreqKLBb8mG3FJZ99sLcr7Hk1zXav4tT5+b83yR0aidqT1ZsIrjx1+otmPGS+EYZ0KJpOB6ffAv69BR1D9kaioDYSrh9bwJeevtbLZjlqInA1dCBfTB8UF80bex+ANPbASybquL/MnOx02J1VH/+1NKLoeLbBHPSnUzjbihvKe+DAhSgAAUaiAADWA3kQdbz2xAF/H8E0OsMrFMEsV4vDWRVzkU4A8vhlBSgQEMR8EoAK65Fi6aqn2lp6b5qh2MGyTIeCw/BoEDXpw6KrKucaoJXAr66GlhxbdtgyZci2F+xKTaLtn1QVU5nsr4w52ss+a0kgCUKrE+fNBqRrcShL1Vbdk6+VsNIFBcKDw3CnaOvw603Xd1Q3gHeR6mA1WbH2k278OTsTyFODnTUwkKDMOXum3FD/0vcdks5nIGb7nymQv+abiE8NYjYSvhARhZOV9VysBwVKaqKlxJTkua5vVh2pAAFKEABClDA1wIMYPlamOOLgr6iNkaPM0ghigSLultiOyEbBShAAa8IeCeAFRX9iQrcUl3hdjGJyLr6okVTiBMInTWLVrTdDlG8vbrm6SmEdmsRbIU5FYYrH8C6dejVGD9iQLVbw0Tx7WV/b8D/vfklQoMDcfvN/XHnqLrYRu6VZ3z2DyLJMASEQrEWVcii88WNFVusWLFmC55+tfpD/O4bMxhjbu4Pk5/relgig++3VZvw1Oz5ZcsV22cvNxkxOcyd07Grv8uVhcWYk3V6W6yDnnYJ6vcFVus96enporgmGwUoQAEKUIACZ16AAawz/wwa+gp+raOaV64cdwAQ38UVmWBsFKAABWotUOsAVlRUVDc9JLG/rnt1qwmUJSxo2QzNdTqnCz5V9ypPsTvbGqVlnqTaqvaJimiJZd+LGoUVm9g6aCvKrfCL5QNYU+8djhuvvQyBAaZq13f42AncdNdzCA0OwP1jBmtbydjqRsAY1BiSrIOqKlDtNu1ZqorT3KNaLSz96Am89fEPWLFmq8Nx7rltEMbefA0C/Kt/X05dqCiKltH1xz+by8YKl2WMCDJhUKUDAzxdtDiZ846jJ5HvvBZWtqpiTqI56VlPx2d/ClCAAhSgAAV8IiDqEons6H4AanbEsU+WVetBWcS91oReGUD8JeVvAK6Pe/fKdE4HEdtfxBHxzwEoKSjMRgEKUKAWArUOYMVFRX+tQh0JSA4Lt4sJrvY34eWmjVwuUwSusu02p8ErMcg7WXkQ2SeVQxiRES3w09dzIU4kLN8cBbDmfLIY4iTComILXppxF/pddiEMeoe3oA0lAhE79x3SMnNmPjoeXTvFurwfdqi9gCEwHLKu4v9/xZZQa0HJ6ZG+aOJZr9m4C1Oed7zz7pF7h+PWm66C5MYpkza7Hdfd9jhOZp8OoEbqdZgSFuRWLThX95dmtWNS6Uma1fZV8ZNeUh/en5x8yNV4/JwCFKAABShAAZ8LiD+oihNh/MrNJNK6xwMYByD6LA1sMYDl81fHrQmOAnBcF8Wty73eKROAOML9fa+PzAEpQIFzTqBWAayYqKhBkopXIEldqpPTS8A/ES3h5+Iv+wVa8MoO57lXJbNsF0Gnk3koqpR5EhYajEcmjsGwG07XpxJZO7bifCjlCriLMX78fS0+/m450o+cwGtPT8DlvS6ATuf8m2Ci0Hd2bj7CQgIhyw3pG2b19733C3H8/1/FVgxrQbbPFr5h615MfGKuw/GnThihBbDcaWL76SVDJqP8q9rBqMdLjUNRq998pZPbVeCJE9nYX3qapuM1STZAeTMhOfkxd9bMPhSgAAUoQAEKnBEBEcQS37UTf8gUf0wQBTdFTYOWZ2Q1nk/KAJbnZt6+oj8AsX2w+u/Ke3tG98Z7EYD4On2ilnvXsRcFKECBCgK1+jt0TFTbrySot5b+T9YhrSjcPjLYea0fcaparmJDvuL+IRW3Hc1EviI2HZ5uIiPmwi7t8eX74r+PJU2xW2ErzoNqs1bom5CUjtnzvsd/Ow7gjWfvR9+eXRiUqme/OXTGAOhNjt8dX2dhVRfAEjXQptxzMwZfc6lbWiKA1Wvw5Ap9O5YGsNwawI1OeYqK24+Kb245a+oS2O2PJaSmxrsxJLtQgAIUoAAFKFA/BEQwS3w3710Aw+rHkqpdBQNYZ/4BpQFodeaXUWUFZgCPAlhQD9fGJVGAAmeRQI0DWCL7CpBmSUDX6u5XZF3928b5N41ECCrfbkOWhzWNHAWwxDrax0Vj4fzXIMslt1ZyAqHjmkmisPavKzcygFVPX9jqsq9KnuuZycAaNrAP7r3tBjRtHOqWWmFhMfoMe7hCX28HsEQtrM9y8rG8wFVpAWlWQvKhpwCXu3Tdujd2ahACFb8L0CBuqU5u4k8AA+pkJk5CAQpQ4LSA+O7ZXwBcH+l9ZtQYwDoz7qdmFcHOEwDCzuwyqp19CoC36unauCwKUOAsEahRAKtHjx6G7OMnPlCBO5zd5/+zdx3QbVRp945ky7bk7vRiO5X0EAKE3gkQAgFC6BD60jtL7yxlYWF/2lKW3vuy1AVCDZ0kECAJqbbT4ziu6tLMf648Tlw08ow0ksb2+87JoeTV+55m3tz3ffd7rm8vjOkkU5tXDqM2HIJ+36vmHi/cVIfV4Y5C3gP69cZt156PKZPHqwSWP5KBkNng2tst9z+P9z/9Hndddxb21hFC2EXWtNsMMyqBpSgIk5SMZJVMzrc3Q0W//H4hrrz9sTZY2iQJ582egdOOPUg3xu99+j1u+sezW8vzBzfOkYnbSih9YZ5tCcs4t7oO/hiC7gqUN2VJur6iomKJeT2Llro4Asn5EXVxUHQMXxBYOkASRQQCAoGkILAXgP8AKEpK64k1KgisxPBLtDY1VJjtz5VoQ0mqfxWA+wG0DYtJUmeiWYGAQKB7IhAXgTW0dOh0SPLtsbyvetlteH9AP9hj9BBP6GDLMszx+PFwfVMH4os6VrvuNBGP/oOOJs2eOloE1o8LluD+f7+J0489CPvuNqmD+Hv3XHLrz4pkI6NDnYV92wyWmQfloC+iaZZMW1m5Hjfc+wyWLKe38zYb2K8Xzpt9OA7eZyfd3Z991X2Yt3DZ1vK5NgkzXDmYlZujuw09BemF9YnHhycaPDGLKwpuXllVwRhbZoURJhAQBFZ8e0AQWPHhJmoJBAQC5iBwMICXLehpIwgsc9Y33lZ4Y3q8RbIPRpvDq2o2QnGRGu8Ki3oCAYGAcR3p8vLybLuM+yHhnFj4PdO3F8ZmOTQ74FcThdvpfRWvzVxf0yETIdsaO2oYHrnnWpQUF6oEViMo5h7N7njwJew0cTvstcsEZDmskG02XjS6Tz3qk9U1+bHrrjtvzfQX0TLz0JOuo9edmTP3+QL4/NtfcP09T3dodua0PSMEVmF+bE231hUnH3Jum3b62+34a5E5GQjbD3BjOIy/bq5HfTttuHbl3oYcvnHF6tW/m4mbaKvLIiAIrPiWThBY8eEmagkEBALmIEA37r8AuMti2QoFgWXO+sbbylIAw2NpE8fbsEn1/gBwOYD/mdSeaEYgIBDogQgY9sAaWlq6PyTb3yRgihZe5RkZeLZfb7hUHapo5fyyjC3hYFQCSu86nLqxFnVRhN9zXU4cffgBuOKC2c0i7r4mKOHo3qobNtXA5w+if98SQWDpBT6J5eh9Ne2Ua+H2BPDNh88gw25DOBxAKIkZBxl11+T2oGLNRixduRp3PvRK1JDTM447JEJg6TXOZcdp57UpPiQzA/f30qefpbeflnIMH/xUhxcWoFyxorKSGgTJZQONTkCUTwcCgsCKD3VBYMWHm6glEBAImIfAgaqw+wjzmky4JUFgJQxhQg2sATAwoRaSW7kaADMbCSH35OIsWhcIdGsEDBFYY8aMcfjd7tsBiVkkNO2Jvr0wMcsRyQEczWQoaAqH0WBQuL19W681evBSU/RsrBPHjcS9t1yGfn2KEfZ7EA6KrK1dYSevXrcJp19+L7bUNWLBF6/ChpCqd5Wc0W+qqUPF6g34fckqPPzsf6N2kp3lwIB+JTjpqAMwY+puugeyoXoLDj3lujblk0lgsaM1oTBu2dKA6rC2qpwCPB2GcltlZeUq3ZMRBbsrAoLAim9lBYEVH26ilkBAIGAeAtkAzgdwr3lNJtySILAShjChBqxOYDUBYGjCCwnNUlQWCAgEejQChgisoYMH7wTJfrskaWdfGuvIxP/1KUGhLTp9xa8lnyyjRsMjyshqhBUFMzdsiVolL9eFWUcciEvPOQly0BvxwhJmfQT+9sBLeG/O9wgEgvjg5X+ib2FWUgZdtXYTKtduxNwff8cb73+l2UffXkXYY+dxOGTfnTBpnLFLzoefeQdPvfrR1rb5YxvlyMCdOjMYxjNxr6JgjseHf8fQwlIUxS3Bdt6KqlXPxdOHqNOtEBAEVnzLKQis+HATtQQCAgFzETgOwCMWEnQXBJa562u0NasTWPxoI+n6itGJifICAYGAQKAFASMEljSsrOxaQLotVmz1o31KMCk7C3YNjEk61ckheKOE/sWzLFdtrsefweg6WuPHjMD1l5+FUUMHIORrjKd5USfFCBx77m1YUbk+EsJ34pH747KzjzZtBAwVZIjgmvXV+OTr+fj06/lRQwXZYV6uE+O2K8feu0zArOl7xzWGaSdfi42ba7fWzZEkTHNm4eT85CaHWRkM4Y7aRmyO6YWl3CdL0j0VFRUb4pqcqNRdEJgHgMwsU7JrPba7y1wTnQdDbpklgR8IzPJ0TaINivoCAYGAQCBBBMYAuAWAeYelxAYkCKzE8Eu09nIAQy2sgcXxXQLg/UQnKuoLBAQCPRcB3QTWsEGDhkv2jFsU4AQtuEY6MnF/72L0tUf/DjJDuL1930sCQVxd0xB1SBkZGTh4v91w1YUnw+VQwCx2wqyNwJFn3ISqdZsigySJ9MXr/0h4wGFZxryFS7FhUy0++uJHzP9tGYKh6HvBbrejdGBvTN1rR0w/YBcM6FsSd/9TDrsAoVb9MDPnDUX5KMtMLk/QKCt41+3FaxrhteqE1iuKfPbKqqr34p6gqNgdENgPwAHq7b1DPfQWA9gFQK8eSmox/pZE1Y8AKlotcgAAb4/nA5gLYGN32ABiDgIBgUCXRiADwKUA/m6RWQgCK70LQS2MaRZ+d38IgNoaC9ILk+hdICAQ6MoI6CawhpeVnaFAIpugqUB9c0khDnTmIEuK3mxIUbA5FEQI5kWtkIa4YFMt1mt4m5QO6o9zTp2JQ/bdEXJA6GBZfbO2JrA41n/efB72nDI+rmFX19Rjwe/LUL2lHu9+8h1WVq4HySwtKyzIxfT9d8H4UUNwwJ47xNVnS6XKNRsx65xbEW61L/tn2PGv3oUJtau38qJAEHfWNoJklpbJUK6T7PaHV65cWa+3XVGu2yPAhzcFYGcBGAyAH0cksnYGUG7hQ3EiC8MMH4sA/ASALwm+VvibeBvAr4k0LOoKBAQCAoEUIECPlvtT0I+eLgSBpQel5JWZDeBfAHKS10VCLTNr5t0A6hJqRVQWCAgEejQCugisgQMHlmRnZFwNSFdoocWP8wd7l6A8k987HY2f0U3hEOpN9oJiu595fHiw3q25kGNHDcOFZ8zETuOHAYo2gdGjd4JFJn/uNf+Heb8t3Ur8DCntj/tvOgeDB/TRNcJGtzfibUVh9rUbavD1j7+huib2ezIny4GZ0/ZE/34lOO7wfXX101mhux95FW+89yVkxi2qNiDDjkdSRGBtCct4vcmLDz0+zaEqwC82KOctr6z8rrP5iL/v0Qj0A7A/JdwAkIHdBwDDVrTydHQFsEhaMYRhCQA/gJ8BfA5A+0XSFWYlxigQEAj0RAQoik0CKzmiocYQFQSWMbzMLs0LJ4bpJSfddeKjpbcgs2ALEwgIBAQCcSOgi8AaXl5+kKLgPvWjJWpn5xfmYVauC7ka4u3UvtoYCiAZ9BGFq6mFVaURFsYBTxo/EhecegS2HzMkbrBExeQj8Pp7X+LBp/8Dt0q8SJIU8YYaVjYAE0YPxdjtypCZkQE68cmyjNr6Rvy6eFWEsKJuVpPbi59+/ROr1P+ONWKbTcLsWVNRVJCHWYfuBYcj0/AE123cDCYMyHVmg2Ntsfb6V6R1J2c7cE1RnuE+4q3wsy+Au+saEYzh8Cgp0rHLq1a9ASTlpxnv0EU96yLADUyWdxyAg1TPLGbC6krGzApfAGCoxeKuNHAxVoGAQEAgEAWBkwHcA6CvBdARBFb6F4EE1rD0D6PDCNYCYBb7ly04NjEkgYBAoAshoIfAsg8tLz9bUiJZTqJark3Cw31KMNZBCZWOxu/nhnAQjSYJt7fvgfEe33j9uK9OO9NgZmYGdhg3AmeeMA07jBue8BJtrK7Fp3PnY0N1LXqXFGLPXUiy9IMcokyKsHgR2FRTh5MuvBM1tW11zTIy7Nhu2GCMGDIQGarGmiIrqG9yY8ny1VizoTpCaukxR2ZGZB+4crJx5MG7Iysr+r6N1RaF4L/6/jcsr1yL42fsh+HlA9HCX/kDQUw94aoImdZi/I1cWJCLKdnG+9Izp2hl1obCeLHRg2992ntSUfCMbMMtFRUVrbV+4u1S1OtZCOwOYCKA89TLDT3vk3Qj9AGAG1T9DZ1PjHQPWfQvEBAICARiIsCQb2pgMcw73SYIrHSvAHAOgIcsGPL/NICbAKxOP0RiBAIBgUBXRqDTD47hpaVjFcl2K4CjtCY6M9eJMwvy0FtDvJ1hVOtDAb38Qlx4umUFTzS48YWX0SDRjSQI9Y3OOfkw7DhhZFz9eH1+fD9/MT747Acs+H05auubUJCfizNOOgKnHjcdYb9bkFhxIbutEsMIf164NOJhZaYNK+uPww7cFYX5uThonx3hyDTucUVibc7cBfhu3h/4bUkFph8wBafMPBDFRflbh/rfT77DXQ+9DBJZLVZks+HhPoVwaujDmTnPlrbCCjDH68MjMcJrFaBWkaUjVq1e9VUyxiDa7BEI0BPrbNUjK7kpNhOD8xMA16vi7Im1JGoLBAQCAgHrIHCkSmAlfjub+JwEgZU4hom2wKzCTDKSm2hDJtavUcXbHzOxTdGUQEAg0EMR6JTAGlpWNlOC9BSAbV/o7cC6t3cx9szJ1szBXhsKwp1k7SlSHcsCIdy0pQG+VrpD7deVYV6jR5Ti3JMPw5RJo8Csc3qtrqEJj73wXkRjaUXl+jbVTj5mOq66+DSEA94IiaUkeb56x9wVyy1cvBLnXfsASBYmYlzr0oF9cPiBu6Jv72L0Ls7H+NFDkRVHqKDfH8Tn3/2C/33xE5asWINNm2tRNqgvbrjkJEwa2/bMeMold2Px0so2+lcldhue7FOUyHTiqvurP4jH691YG9bOwKlIONft9T6/ceNGof8TF8qikuqBRc+mGRYXjyWBJdLRii0rEBAIdCcEjlAJrBEWmJQgsCywCABOBUCPJ6vYSyqBJbz9rbIiYhwCgS6MQEwCq7y8vNCuKOcD0u1acxzlyMQNxYXYToMUoC7RuiR7X7WMjcTVZx4/Hm/o/Dt8ePmASNjXSTMPwKhhg9voF0Wb6+baBtx07zP4ddEKeNuFZNlsNpxy7HRcccFsKHIIIR+9sBIjX7rwnjJl6O/P+QE33/ecIS8salrlupzYZ9eJmLL9KGRnO1CQ74qEHeY640vIwiyC381bhDfe/woVazZi9bpNW+d33uzDccxh+yDPta1t7vdDTr62jXA8KdI9chy4tDB1+lctg2ySFfzX7cVrTbEycCqLZJvt+FWrVi00ZfFEIz0VAYq8/w9AqQUB+APAjQDesuDYxJAEAgIBgUAiCAgCKxH0umddhhjMAbCnBab3PqYkdAAAIABJREFUg0pecTzCBAICAYFAwgjEJLCGlZbuDkiPQ5KYcSqq/bWoAIfnOpGtERqVCu+r1gPT98HeXINaSsPK+0dEvE+ddRC2HzccmRltPbICgSDue/wNLF21NkJeRbMdtx+Dy88/BePHNF9+hXyNEU8sYfEjEAiG8Msfy7F2/WYsW7UGK1dvgCw3S9ZQw6p/n2IwQ2HpgD6R/46YhIjAO/+OumR2e/xJ0hi+yBDRp1/9H9ZtqkHlGnpjb7PDDtgloqM1qH/vNv//4y9/xh0PvgRmQ2yxHEnCbcX5GO6InqEzfpT01ZzjaQ4jjOl2osh7rKiq+kZfi6KUQEATAQoJUxOLIQxWMnoRXwag3kqDEmMRCAgEBAImICAILBNA7IZNbA+A8hCpvz3dBuZmAP8HRBKBebohxmJKAgGBQBoQiElgDR885HBZkt+SJClqnJ1dAu7pVYy9cqInoSLdsC7oT6r2VXvM2OemcBhvNnnxsUefFxS5t8H9+yA/zwl6U7U2EhkMF9QKZysqzAfDB08/cQYymB0vQmA1IRzoWc/phkYPHnjqLUzdazJ2njTatK3s8wfg9njhpraZKrks2SRkOxxw5mQhJzsL9Lwyy+hx9duSVZG5UN9s9brqSHbD1lZcmI/Lzz4aB+49GfZ2++WMK+7FwsWr2niOuSQJz/YtRoZ5wzQ03dWhMF5q9OC7GGLuMpQr7JmZTyxfvryter6hnkRhgQD6A5gPoJ/FsGDabqbvFiYQEAgIBLobAtSopYi7FTLPiRBC6+wunjr3AUD9R/16KeaNn0Kwr6iZB9veApvXh2hJICAQ6IEIaH5SM3zQJuMvkoS7tHA5zJWDswryMEAlbtqXqwuH0CSnXm6EelgVwVAkA9s8/zYhbbPXNzs7C4ceuCcuPfckFBZsu+DoiQRWKBSOiNvf+fDLKMhzqWL50yPebV3BgsEQvp33Bx559l14vD6s20i9yY7GH8zpxx2CU2ZNRa6zLXEbDIUx6y+3REiv1lZkk/B03+K0wUAx93fcXjzXGItUVdaEgKmVlZWL0zZQ0XF3QWANgIEWm4wgsCy2IGI4AgGBgGkIUMT9bgBCA8s0SLtNQySu9lbD+1MZBkAPgjdV8mpdt0FTTEQgIBCwBAKaBNbw8vJdZFl5SZKkIVojvbG4EIfmOjVpfXpfmZtHTj9mpM2qgiG87fbiK29Af0WdJRmqtu9eO+HGK/7Shrxi9W5DYEkSJFtGRB9MJhHZCRlJYfNr7noSv/yxAtlZmRHyiiL55YP74pjp+2DHiSPjElDXuSSGi9GzauPmWpxz9T8j4Yn0sttS1xiznROP3B9nnXhoG92rlgrPvv4xnn71ozbhg/TnOz4vB7Ny0xtR9ZnXj6cb3GhUwzCjTFIJS9ihoqLiF8NAigoCgbYICAJL7AiBgEBAIJA6BEQIYeqw7oo9kbjaA8B/ABSkYAIM1X8BwC0A2t7opqBz0YVAQCDQ/RHQJLCGlg49QJJkCvJGFRLKloCbS4pwgIY4tlcOoyYcSiuCJM9qwjLedXvxX7fPtLEwbGy3KRPx95svQ14UYoJZCEMMIYyRDdG0wSShIXtmDuyOHGBreBy3ybYwOjnoj5B0rf8fhyErChYuWoGzr7ofDMVrMWpRObOzkOnIpExVxMaOLMORB++BMduVIz83J6JdRaIsmRYKhSJhgf967l18N39RZIwMEeX/02O77TgG582egdHDo2tUz77kbvyxtLJNyCGvvl7qV4ysJM+ts/FXh8N4pdGLOQzF1DBFxmXZPvcTi6qr9QHSWafi73sqAnMB7Kr17kgDKHTDpf7G1WnoW3QpEBAICASSjYAgsJKNcNdvn8fRCQDuBHBQEqezCsBfVY+v2DfCSRyEaFogIBDo3ghEZQyGDx+erwSDZwHSvVrTPyrXidPy89C/neh5S/n1wQDCKVW/ij5S0i4hRcF7bl8khKqtmlF8izth7Eg8/eAtyMpyRG0gHPSBJJaShvDJ+GbUtlZGdi7sDg2PIUVBwFMHJRw9NJMk1k+/LMH51z0Qk7+j1hgF8/nPZm6n41ZkiN6YkWUYPKA3BvQpQZ/ehejfpwT5ea5IaWphtZBe9KaiF5Xb40NYliPl83KbswO+9u6XePHtOdhS1xAZUyAYbEOw6cFsYL9eOPvEQzFtvylRNbeq1m7CJTc/0kHsnSeGN/uX6OkiqWW4719v8ka0sLRMAersijx5WVXVyqQORjTe3RF4B8A05smwyES56fkuu8ki4xHDEAgIBAQCZiIwU9XAGmpmo3G2JTSw4gQuBdV4dObB+EAeCQEwU6FZxltrZhtk2/QYSL1+jFkzEe0IBAQClkcgOoFVVraDouAdSBJfRFHtuuJCHKkRFhVSZGwMBU0hi8xEcIE/GNHFWh6M3zNsYP8+uO3a87HzDuM0hyaHgxECSw6ZH7poJh5abWkRWCSJgu4tuoi5HxYswYU3PGiYKOpsfnocmejNde2FJ+CwA+kEAvztwZfwwWc/wBdDxDxWv8WFeTjt2INx/Iz9VLKtY+nzrn0gQtyRwGttU7IycU1xfmfTSsnff+T2RfZ/YwzPQCVsG7lyzcplKRmQ6KS7IvAigGMEgdVdl1fMSyAgELAYAoLAstiCdIHhUKD2LCCic5wIkcVD73IAE1Xiygw/gS4AnxiiQEAgkE4EohJYw0pLd4dkYxhIVHNKEq4uLsA0V3QvnU2hAAIWDp+jF8r7bh98imL4imDUiHK88cw/Yq4ZiZ6QrxFy0LywxVRukugEloKAuxaKgbDQ7+cvwo33Pov6Rjco8p5Ku/7iEyMhirQrbn8MX32/0DCZRu+uXsUFoO7VyTMP0Bw+53bWX+/DwsUdHZee7FOEEnvUKNxUwhHpi+G0JLCoh6Vlihw+ITsv781FixZ1TfY15aiKDqMgIAgssS0EAgIBgUDqEBAi7qnDujv2RAL0bwAGq5PjoZUe1K0zF0YCWtQ/LMb/ZobBM7sjIGJOAgGBgLURiEZg2YcMHry/zWan/lVUm+Fy4syC6OGDfKJtsEj4YGfQk8j63OuHX1HgIemk495gu+HleP3peyKhb7GMBFY44O1sCJb8+2gEVrCFkFOJSf7DHwggEAjBmZOFDI1Q0iaPF299MBdPvfIhvL4AQuHUEFmtCayLb3wY3/z8Rxttqs6A53y2GzoIpx93MPbZdfuYxV94aw6eff1/HQTguUPeskD4YOvBk8BiKKEmgQX8YvNnTF2+YbkQ3uxsk4i/10JAEFhibwgEBAICgdQhIDywUod1T+hpRwBnANgdgEslq6oAPKlmFuyat/M9YeXEHAUCPQSBDgTWsAEDBsPheAgKDtfC4PKiAhyfx2daR2sIh9AoW0H9Sv8KhhUFD9a7sSQQjGRNdMvNhFY0Pqu8dAAeuedalA7q34MILHpfbdO9osfRuo01+M//vsGX3/2K80+dgf12nxQTj9+XrMKzb3yCXxetQEOTB8EEwjj1rGxrAuvK2x/HlxEPrM7JM4YoZmc5sNuOY3HN+cejqJBe1toWCARx0Y0P46df/+xQaKwjA38rSUXCFz2INJd5u8mL15q88MbwkLSHQ4OWrlmzVn+roqRAoA0CgsASG0IgIBAQCKQOASHinjqsRU8CAYGAQEAgkGYEOhBYI8rLt5cVLNAaV6Yk4bLCfMzSILA2hAIR0fSubPzIf6nJi2CUeZQUF+KCM4/FrBlTuy2BRQF3e5Zrq0B6mB51/sat2lckr4477/aIYDot15WDj1+6G1mOzsPof1uyCi+/8zmWrlyDzVvq0eT2GvKM0ruvWhNYN9/3HD7+8mf4A9GF51vadGRmYEhpP0yZNBoXn3GUrq4++2YBHnjqbaxe19Fh6fHeheij4Zmmq/EkFKoIhvFcoxvz/dpYSIo8bnlV1aIOaSaTMB7RZLdEQBBY3XJZxaQEAgIBiyIgCCyLLowYlkBAICAQEAiYj0B7Ass2vKxsigLpW62uxjscuKAwD5OzszoUCSoyNodClsg+mAhUiwJB3LqlMaKR1d4cmZnYb6+dce+tl8XsoitnIpQyHMjIcsFmbyakgt4GyEHqJm3D46SL7sSSZVWR/0OPpZsuPRlT96bXsT4LBEN48a1PMfen3xEMhrF+Uw3qGtyQZfrAJW6tCaz7Hn8d//nft1sJt/atF+bnYlD/XhjQrxduv/JU2O2tw/61xxIMhfDX2x/HVz/81qGQS5LwXL/iNgICic/KnBaebHDjXXcMD3BFfjBss/21oqJCuImbA3lPa0UQWD1txcV8BQICgXQiIAisdKIv+hYICAQEAgKBlCLQhsAa07t3rt/pPAeQ7tEaxez8XJyZn4ccW0f5rJpwED5Ztlz2QaOIMoTwrE21kTDCaDZp/Cg8/yj1DrVNkcPNQu4mZSIk4UNxeD1eTkbn27G8hIycPNgzsyN/FfTUdZjHH39W4Lb/ewHLVjVHmhUV5OFfd16MEUMGGu6e83rt3S/x3bxF8PmbtcOrt9RjzbrquDWzWhNYL7z5KZ594+OIRhWF2e12G4YM7gcSV/zvXXYYjdmzYnvURZvUvIVL8Y/H38CfK1Z3+OsjXDk4Jd8Ja8i3tx3e840evOP2xtJ88yh224CVK1fWG15MUUEgAAgCS+wCgYBAQCCQOgQEgZU6rEVPAgGBgEBAIJBmBNqwUMMGDBuMjPD7kDA+2rj4MX5eYT5Ozc/t8Nekeph9MFrYXZrnGFf3J27cEtHCimYTx43E0w/dCnpjxbJmzyVznFhIGJHcmTxhZFzzMVopIzsPdkdOpFo0Aov/f/5vy/DPf7+FP5ZWwG6zYfzoIbj72rMimfsSte/nL8Z7n34Hj9ffJsSQnKLH54uQUR6PHx6fP4KLoq4VySl6hF1xzjGYtt/OkWH8/OtSvP/ZD6irb4yI71N0/rjD98WYkWVbwySNjpd93vSPZ/Hp1/OjVn2+bxHyOhH6N9qnWeXnev14ucmLtTEyQ4YlFFVUVNSZ1adop0chIAisHrXcYrICAYFAmhEQBFaaF0B0LxAQCAgEBAKpQ6ANgTV00NARkl1eqtV9L7sN5xXk4/BcZ4ciXjmMunC4y4cPtkwsFoE1tHwQbr/2AkwYOyLmSplJYL35wdeY//synHHcIRhaGltA3oztwxBCamFBkjQJLPazZHlVxBNryfLVyHVm49gZ++KY6XubQmJFmwdDDKtr6vHnytXYWF0b+fct9Y0Ih5tDD0leFRXkYt/dto/LG0wvdgx9fPiZdyJaXu1tSKYdd5QUIIeK8Ba0BlnGY/VufONr9naLinNI2n7V2lULhQ6WBRfQ+kMSBJb110iMUCAgEOg+CAgCq/uspZiJQEAgIBAQCHSCQOsvbGl4aekYRbL9rlVnn5xsnFeYh6FRPI82h4LwKeboF1lh1S6trsMqDQ8VlzMHR03fD1ddfHrMoYb8boQDHsAEUftv5y3Cg0+9jXHblePsE6ejd5Kz20n2TNgzHIDNhrDfC0UORZ0rw/8Y+nf1Hf+G2+tDQZ4LRx+6F6YfsAtKB/axwlKaPgYKz9/18Mv48POforZ9dVEedsp2WFL/qmXAD9c34RMPdc00CCxFeXBVVeWlADpP3Wg6wqLBLo6AILC6+AKK4QsEBAJdCgFBYHWp5RKDFQgIBAQCAoFEENhKYA0fPjxLDgZnSpD48RHVTs7PxXkFeWAmwtYmKwo2h4MImEDUJDIZM+t+4Pbi3w0eaFFyu+40EU/888aYXcqhIELM3heOTv4YGS89jR5/8T18+/MiXHDajIhgOsP2rGCBQBD/ev5dPPfGJ5Hh5OU6sedO4zBt/52x6+SxVhiiqWOYM3cBHn3hXaysXN+h3cEZdtxeko8Ci6yN1sSfanDjQ48PQY2EoQqwobSyYvAXQOKb11T0RWNdAAFBYHWBRRJDFAgIBLoNAoLA6jZLKSYiEBAICAQEAp0hsJWJGjRoULHDlvGyJEFTzfp0EliF+R3a9ITDqJe7T/ggJ1gflnH6plpN95NJE0bh/tuvQK+SIm2MFaU5g19I29OlswVq/fdPvvIhHnn2vxHR8fNPnYExI8qMVE9q2cYmD/72wEv45Ot5kX5skoThQwbi2MP3weTxIzF4QO+k9p+qxtdvrME/n3xLU/vq/AIX9snJ6kDypmp8evv50uvHq01erIuhg1XYq8Qxb968oN42RTmBgIqAILDEVhAICAQEAqlDQBBYqcNa9CQQEAgIBAQCaUZgK4E1ePDgAZk22zIJUkeBKwD5NhvOLMjFCXkdBdy3hILwKl0/+2D7tThl4xY0aAi59+ldjLNPmYnjjjo45hKaqYP1xvtf4eFn30FDowcH7LEDzjnlsEg2PSuYLCsRPajLb30UG6q3bB1ScWFeRHh+p4nbYcqkURjYvzesqQylD8W3P5yLx158H9U1HfXNJ2Vl4qLCXBRZ3PuKM90SlvFIvRs/q1kfo81etknlq1atqtSHjCglENiKgCCwxGYQCAgEBAKpQ0AQWKnDWvQkEBAICAQEAmlGYCuXMHLQoIFhe0ZHRWp1gJOyHLigMB8TsxxthswIJOpf+buR/lXLBF9s9OD1Jm/UJWL43tT9dsU9t1wWcwnDAS/CfjcUE/CpXLMRDz/7X8yZOx9ZjkzMnjUVxxy2T0S03Arm9fnx1odzcf/jb6B9ZFqv4nxMGD0M/XoXYYfxI7Dz9qPgcmZbYdi6x/DbklV45Nl38OMvf0atc21RHnbIciCjizB099c1gZ5YmqbIF6+oqnpAN0CioECgGQFBYImdIBAQCAgEUoeAILBSh7XoSSAgEBAICATSjEDLp7Y0bPCwsbCFf9Maz5G5TlxaWACnre3XuVeWUS+HEOpG+lctGNSGZZy2qVZziXbbaSLuuukSFBd1DKtsqUTiKuSphxw2JxLrseffA0MJw7KMQf174+rzj8XO24+G3W4NPaz6Bjeee+NjPPP6x5q4DSsbgJFDByE7KxMORyb2nDIeE0YNhTMnC5JFM/f5/AG88OaneOrVj+APdFzLQ5zZOC4vx/LaV60XpVMCC8q3Kyord0/zM0p03/UQEARW11szMWKBgECg6yIgCKyuu3Zi5AIBgYBAQCBgEIEIGzV58uTMuurqUyHZHteqf3yeC5cXFXT469pwCB453MHjxuA4LFv88up6rAhF17Hu06sYp590JE6aNS3m+IOeOsihgClzXLSsEg89/R/8sGBJpL3xo4fg2gtOiBBCVjGG1z3x0vt484O5nQ4pw27HsPIBGNivBI4o2S2ZyZB/1693Mfr2KUZuTjZysrOwNQ5RURAKyyDBFAyH4fcF0Oj2gpkCG90eNDV5UdfoRl19E8aOLMNeu0xorm/Qvvx+IR546m1UrN7QoWaBTcLVRfkY5cjoUuGRLzV68L7bB7c2+exZUVnhMgiVKC4QEASW2AMCAYGAQCB1CAgCK3VYi54EAgIBgYBAIM0IRAisvn37unKzs98AJE1BJy0CqyYcBL2wuqstCYRwdU191OnZbBIOO2hv/O36C2NOP+R3g6GEMCGMkJ5X/3ruXbz09pytnkB77jwOV5xzTMQjywomy3JED+sBEm3zFyc0pPw8F/JcOZFwQ5czB45MOzIymomi5jBFBYpMEisM6nDxn4FACIFgEIFgKPLv/kAgQnDddc2Z2GWHMcjIsBsa05LlVXjomXfw3bxFUeudmufEVGd2B+9EQ52kofB8fxDPNrhRGUPIfUVlRRcJiEwDgKJLLQQEgSX2hkBAICAQSB0CgsBKHdaiJ4GAQEAgIBBIMwKRj9OhQ4cWSKHwGkhSVDElCrjPzs+N/GltQUVBbTiIQDcMH2yZZxjAyRu2wKMxxymTx+HaS8/EsCGDNZdSkWUEvXVQwtE9uYzugbUbNuPeR1/HVz8sjFTNzMzAWSdMwzHT90Febo7R5pJSPhAIYt5vy/DESx/g10UrktKHkUaZDfGs46ehqDDPSDWEwzLe/fQ73PPoa/D5OnrRjXZk4Jx8F8oyMwy1a4XCTbKMf9Q1YYFfO7xVEFhWWKkuNwZBYHW5JRMDFggIBLowAoLA6sKLJ4YuEBAICAQEAsYQiBBY5eXlhXYFmmJPYxyZOL8wH1PahV41hENoksPovv5XzV4+fwSCuL6mISqyTmc2Tpp1KC46+4SYyAfdtabpYLEjZiR8+tWPsKG6edlKivJxz/VnY/yoIbBZJAue3x/EH0sr8OLbc/DFd78a25kmlqZn2q1XzI4Lm29//gN3Pvwy1m2oiTqi8wtc2DsnCw6LanfFgpF7+67aRvwQhZhrqSeFsOvytRXfm7gcoqnuj4AgsLr/GosZCgQEAtZBQBBY1lkLMRKBgEBAICAQSDICugisA5zZuKqoEEXthMK3hIPwdOPwwRbsfYqCu2sbsMAf3YNq5mEH4OarzokpQB4OehH2mZONkOOiztOt9z+Pz75ZsHWLUCvq0bsuwYC+vZK8bfQ3HwqFsammDi//57PIn/bZCfW3FF/JwQN645IzZ2K3HcdE1diK1eqylWtw/7/f3Ko31r7sBEcmTst3YkgX9L5qmcudnRBYkJWHVqyujB0jG9/SiFrdFwFBYHWvtWXq4YkAZgHYB0Ci6WO3AGCWj9cBVAKgC2iqXw3da4W6x2woTlkK4CgAB1DdQse0lvI+D8BnTIgNdOv71FhwCAJLx2YRRQQCAgFdCJAbYDjP3gCOBLCLjlr08vgBwMsAmBCOISviva4DuDiLUAuHYXHj1DXaCUCRgbZIaHwJ4BMA3wDwqGcxA03oKsp9dC+APWOU5jfD3bpaa1UoQmCVlpaOzZRsv2tVnpHrxPXFhW0EqpVI+GAIHhN0nYwOOtXl+QusCoZw8eboWlhlg/rjvDOOwaFT99IemqIg4K6FIpsTRsiONtfW44Z7nsGPqqA7/1/fXkV44YGrY2ZGTDl+ihIRVf/p16V44a1PUxJSSJ2rS8+ciX133x7FBXmRMEsjRv2sj7/8Gbc/8CKCwehrdl6BC/vlZCOjC6tEMRPhXK8fDJXVsEUrKivGGsFOlO3xCAgCq+tuAZJVxwI4G8AAdRp8wpG0YrpdJ7al0Ih3lnzcNPEeJgp59R6A2wFUx9u4qGcYAa4vD8Ncl1R9cDBt8mgA/wHQkkKZ48gEwDh/Jg/R89LmRxI/nHj4bv2ifgLAfepHlGFAumAFQWB1wUXrQUPmb5u/cwbspOoZ01XhJU7EK5VY8f1+G4BDAbRkueI4+L7n81iPNg3H61Wfx75W67wWwCUAfunBFwyJ7kWuwXEArmp1/uIeaTmb8e+5hkYEnvk75HvTrf6T/936t0lO6G8A5rd7txqdC7P/rVP3klbdfwK41GjDkYfKsPLyk6HgGa3KR6gEVuu/98ky6uUQqIPVE4wnu1/9Ady6hWfutsaQvVOOnY4rLpgdEwozsxG2dERh8X88/jpWVW3Ljlc+uB+e++dVEeFzKxm9sTw+PzxeH5565SO89+n3W4XoEx0nBfXLB/XDKUcfiN12HBvxhst1ZsPh4HnYuM1buBSX3vIvuD18Dne0XJuECwtyMSWb33td195o8uJdtxf1subv2LeiskLPy6vrgiBGbjYCgsAyG9HktccDD71dbgAwXD0Q8ffOg6uRw5BZI+QDly/ZFmWC1wBcCcBvVgfdrB2uEYkefmzww2MggB1b/SnXSTi25EXZDcDKJGHE8XE9OT6Omy/n4iT1xUM5/3Af0Svg6AQP4UkapmnNCgLLNChFQ60Q4HOFv1X+4b8XqsTzBCZBB8B/GkmB/iCA+9UP5u4GdMtFAJ/H/MOPg0nq824ygB1Ujxm982bkA71Lk/GRzbFOA3BNq/c+L6j4jDb7Sp6fz/T+aBHbPYSf04LMirkN+Hs7A8CtaqkWjzhjIs56d1r0crwQ4lmsRfyZOjr/APC8QU+tEQDoKR3L4iaw7ENLy56RJOkkrdajEVh14RDccjgpv6zEME9e7U1hGTfU1GNjuKPq1967T8Zl557ciZh7GCSxFDmGv4vB4TPj39//9Rren/M9PN7mMz7Jm+Nn7ItLz5ppGT2s9tOiVxMzBrbwn1//sBAv/eczrKzagGAwiFAUjDPsdmRm2lFcmId9d9sehx2wK/r3LdnaNEmszIwM2NuFuhqEFKtWb8Ct9z2PhUu0z/F75ThwXK4TAwxmNDQ6lmSXX+AP4MkGD9ZoZyIMrqis6NosXbJBFO23R0AQWNbeEzwM0Z37KTVMq+Ww3eIJY6XR8xBFUouH348AnNJNiIiWD8OWjx0SOQzT3BXA7gBG6bz1br1WLTeyrT84ja7pHwD2A7DJpE3A/nnoPV71qiI5mmpilAcuegZUqCGw0QUtTZpwmprpKQQWCdaXKPuaJpzN7pZ78wIAL5jccOvnC39v/PDl84WEyvZxEE+RTwt1jC1kVksfRggPPsfpafGwyfNNtLmWiwA+j3nzz6xcU9Rn8c7qxYCRPlowaU8AGsGK7z2G7dMr2SwbqZIi9LRK13ufXj/8iH5IJdDMmltXb4d7kN7nJK74nuQFT4s3nBXmRiKVZFYLEfk1gOsBUMdIi2TlHvtRfe7EmkN8BNY+QEZVafkiSQJZsg5Gceqjc524rIheYNuM4YMksHqarQyGcJlGKOHZs4/GRWfznKZtgaYaUwks9kQS6Ky//gMLfl/epuO/X3829t+d76uuYQxL1W2SZPo1AfsOhsL4+seFuPK2x2MO5SBnFo7OzUFve6rP4roR0lWwOhzGvbVN+FMjTJKQCAJLF5Si0DYEBIFlzd3AG9aLAdyiDs/IYdoqM+JLggemmSohYYVxlakePgcB4Ac2vdfitXSvCW9tOIeN8U5ArceDN736GY6a7jm1ngr3z3cqSdedvProYfZ3AEMSXDczqtMjh2FDyTB6i77SzQgskvIk5aIZnyUknKYCIJHCA70ebbhY2Kf790gCix+sybJ91XArarrw95DIBWy6saL+FMM+hzrDAAAgAElEQVSsE7WT1ecD906659R6Lryg4pnkkUQn2IXr8/zwlvrbttLa6IG05aOdIYKHqWGirT/kScK1eHDFai8+Amvy5MmZdZtrNDvoY7fj1PxcHJNHSYJt1lMJLHphPVTfhIX+FhJyGyazZkzFxX85AYUF2l5+cjiIoKceSIJ22KmX/h2//1mB1kTQW0/cjNKBfdEFk+Tp+fGYWoa4/bG0ErMv6VxLjsTuRQUu7J6TZam3QTyA3LSlAb9G2c9qWySw+DFigF2MZxSiTjdCQBBY1llM3ibzhfSueqNsnZElPpKfVG2NeWkWjJ2h6i0NTXxKaW9hleoFFg+BxdtWHlhJpNCrxMpG7waKDZ+j84Bt5blwbD3FA4ueo293MwLrLABPa2wwftxeq2oSWn0P6h1fsgkshihSc6k7WLwEVks443QAD6geZVbGgwQInWj4Yd3x49rKIzc+Nnrl8T1JovUu1TPSeCvWrUHtrP1VnVPOUY8HYXIIrLGOTFxcWIAdWmn9BBQZ9eEQ/EY8ZqwLtuGRLQ6EcE1NR0F3CoXTA+vU42fEzEiYDC8sToKhd6ddfi+WLF+9lcRi2N1rj16vklhdjdw1vDRxVyB5Vbl2Ey664UGs3aAvwuAwVzaOcOWgJMGQxbgHbVLFmASWooSgyJNWrF6tmeTBpGGIZroPAoLASv9aUquEN89z1YNh+keUvBF8COA6VWeBukepNkFgNYuukwzix3aydK2Ssa4kQ0gg8EBnXoadZIw0dpuCwEo95mb0yDAWQWCZgeS2Nno6gUVyhNlc6XV1k7nQJrU16i09CuAOAHVJ7Sl9jfM9Sd04CuaT5OnuRscHPcRDcgisPXKycG1xIeiJ1WKNchiN4VCPzVf8ZyCE67bUIxTFJ+XEo6fh3NNnobCA0RrRLRz0IeRrbI79M9lIvlx68yNYWbV+K4nlysnGcw9cFRE5FxYdgfpGN/717Lt4/X1mFdVvZ+S7cIAzCzld2MWtEw+ssALl7JWVldTLESYQ0IOAILD0oJScMtRO6APgOVXnSs/hITkjSX2r1FWh++wWVcA7VSPoTgQWdaKYMl2vBxY9/BiWch6Av6YKcJP7oZYHP/S+V7WyTG4+Jc0JAislMJveiSCwTIc0IhLfUz2wGC1BfatXdWZxNR/9xFqkNhafw5QI2JaZLLE2rVA7V73Y4TvyfCsMyGJjSA6BdYgrB7eVFLWZKwXcm3qg/lULCKtDYfxfXROWR9ENysnOwpUXnopjjmDIurYFmrZAkZNz4ffbklW49q4nsW7jNk+iooI8PHHPpRESiyLvwrYhQN2rDz77Abfez+QKxu38Ahf2yslCVhfFtRMCS5YUPLC8qsJwilPjSIoa3QQBQWClZyGZRXAfAPcCaCtaae54KDmwAkAsEUwepHljksqsOZwlxccpGv4EgFpzp63ZWk8lsHhLR+KEh/KxKcI6Wd0sVslPZv1KhxdfovMSBFaiCKanviCwzMe9JxJY9DDh+5bvf7MTApi/Qp23SJ3C4wBUdV7U8iVIoJwL4AoAbcmU1A29CUBDK6kFXnTyTzLPiUZmFx+BNWjQoJwsewazAkS19gQWfYYYPtjTCayH6rSFr08+djrOPPkolLQTvm8NcEQLy5288/V7n36Hf/77LdTWc982W99eRbjvpnMwYsighDP1GdmZVi7L0MEfFizB+dcxTDx+I4m1Z04WsrsgiXXblgbM9we1RK7oJ/jhysoK3uoIEwjoQUAQWHpQMq8MPWAGqOLGzDKULOMLixpJFPo+tZMPfYYwMA04hc2Z0Ykhjak0hiEwE8f6FGgcHa6mhu8OGliVqlZaZx5YPPj+RSV9UrmuyezrFzW0g5odeoRnkzkWo21TK4feh1GTMRltLMHyyRRxpzA3BY+7UxZChnpRjy2alathuQwz7C4mNLD0r6QeDSySV0y8QVxZvrvYFwBOV88cXXFODOXkuexs9TecqjmsUb3XWi4Y6dVGvVDiyeQa1BhjluNx7cIYuY/ovc+zW6otPgKrrKxsSAYkHkijWnsCK6QoqJdD8MrEpGfakkAI19bUa4ZQZmTYcf3lZ+Oo6fvDZtP2dgq4a6GEk6dX99SrH+KpV/4Hr29bsp2B/XrhhotPwtjtyuHMsVKGztTvpVA4jB8X/IkLb3jQlM7/kt/sieW0JSdDoimDjNLIw/VN+Mob0NK0I4H158rKitHJ6l+02+0QEARW6pZ0vHpAOiHJ2kMUSv9I9W4ycvNCUodpoZkOPNUf19Q3+jcAhohRXyNZ1p0ILN54M9uZFoFFAdreAJg5jWLt3c2op3YDAO73rmQ9JQvhDur6tGh0cD/yGdiVCK2WTJhMJMCPzMsB/Kax2fj8ZKr607rSZuxkrILA0r+YnRFY/MCkUDslA1J9SaR/FvGV5G+DGRh5EcaLqK5k9DzfQz37MBwy2UbvKvI4lE94FsBrAPh8MWL0yOJeopYl/53PnkQznurtnx/hfC7E8urv0JY0pHTIgTZJ+Virl/YElkeW0SCHQCKrpxln3CjL+NTjx3ONmk5rEViOPHQ/nHPqLAwcQEIzuilyGAwlTGaCt7sffgXvfPwt/IFtRFn/PsU447hDsMsOo9G/b1d675u346rWbcLiZVWRUEsz7ZQ8J6gb19tu06VcZ2bf8bb1SqMH73t8aJQ1f9N1Kyor0uX6Gu+0RL30ISAIrORjz9syplTni5+aRck0alLwJpRhVvEaSR56iPDmL5VGjyKGFDKswgjxZmSMDNsgmcOP621ioUZasE7Z1QB20iCweKPMW9uTAFxmnSGbPhKGn97excJXegqB1X6xuSeZOGCy+hf88CKhlaoPL72bj7fI36qZuXj7T4+qah2V6c3GDzuGIHFu3cGSTWDdqIZrUXeoq+uldEZgMXSYFzXd1XiRwvAYhoV6u8gkSSQer4bW04MymUYdIupWMss0NXAWmNQZn598zx+oElnJvnykxjKJfEPi/dKQsrLzbZAe0pp0ewKrIRxGoxzSCjcyCTvrNRNUFCz0B7E4GMIbTfp+R9dccgZmHn4AsrOYDCq6Bb2NkIP62osHFVmWcceDL+O/H3+LcCuvuYI8F/bdfXscdcgeGDsy2b+xeEaevDpffPcrPvriJ3z69fytQvdavWU685CR44KvthokHPXYVGc29slxYLQjs0u8PUnIvtzkQU1Y06tSEFh6Fl6UaUFAEFjJ3Qs8XNBLhpn3piS3q4j3EkVHtTwEjHTPj2wSA9sZqWRCWd5E/g0ARd6TQWLxFohzI5HY2q2Zh74dTRh/Kptg+AHH3N4Dq0UcmOEQDAvt7vZ/KinJ9O5dwXoqgdV+bfhbJNlOcp/kz55pXDw+d6jlQzFqfpjxGcQQHiPGJAkMDyOR0XLbTFJmourRmmGkMYuUTTaBxefwUQAGtiKw+BG2b5K9lJMBrxaBRTKTl0KvJKNTi7VJb1iS1JqONhYaL0Prz1S9RJOtL0UCnOczeltRtD8ZRhJ4mkqg85mTLEeG1wFcCYAXjrpNGlpW9pAESVMVvz2BRf0rZiHsSeZTFHzi8eO/bi+qtT/yO0Cyy44TcOWFs7Hd8NgEUcC9BUo4OYLuHJTPH8BdD72CDz7/AeFW47fZbJg4ZijOnz0Dk8ZR/7d729oNm/HropX4+yOvoNHdOWlI8qp41I7IKixB7bJf4a1eh5BPn77ryMwMTHORyLJ+mOav/iAea3BjXUjzdy0IrO790zB7doLAMhvRbe2R/DlRvR0bkrxuIi1TM4GeNmbd6vFhyI8Xin4n6yAUC5Kb1ZtcutunwuiZxbWiV9b26kd1KvpNpA9+YJPAap0Bih9/9BihCG1Pue0i0clzMQ/WyTucJbJSbesKAqsjliSx+JunR2F/86DutKUfAPyuklb0LFjUaQ1jBUhgMSyJhAx/m/Q4m9CFPLSSTWBFQ9Olvsuo70OvPXrIaHsWGFuPZJaORmBRV4kh+fQs7uoev3qxex/AVQD+0FshDeVI9pC84iUd91syjclqKI/AS7lUXLIwSQufOdyPPMuYbQzdvxrAQiMNS0NLy96TJCmqQDODyw91OXFTSXNoLQOMGnoYgfU/jw+1YQWvNMUOGdQC/dTjD8epJ8xAr2Lt8GQ56EfQW29k3QyXbfL48H//fgsffv5jG00sNjRh9FCcPPPACJlVUtQiLWC4C0tXoLfV3J9+w5y5C+DxbtME0xp0hjMPJaN3REH5mEiRoKcBDVVL0Vj5JwJN+rwccyQJJ+U5caiLl2jWNWbVvLe2EZWCwLLuInWtkQkCKznrxYMDCSXevCb7do/hLiQs6EFgpvEW7y4AB5vZqM62eIThTS5DEuJ7oevsqF0xekkcoGbso3cAMbCqtSeweAzkzegt7bzLrDp+M8fF0Bx6OSYSOmvmeGK1JQis6OiUAbhGTTiQzLXYDICh1szOSt2eL5OqDdJ2JiTK91c1kCgIn+x3Q6I4poPAaj1mEle3AuDB/OJEJ5Pk+u0JLCYxoHcZQ0q7AgFnFjz0HLhHPTt0/gFnVq/62+HlHElFhjr20l8trpI8u7ypngX53EmlkSu6SPX8N/M5Q08yns3mGpmMNKysnAfVXaNVckgSZricuKq4eZzUvaL+FXWwurv95AugKhTGa00e+BOQ+yosyMMdN1yI3XbeHhl2LbJcQcjXhHCgc6+gRHBvbPLgyVc+xJsffN2BxBnUvxd22WEMpu23MyaOGZZIN5aqO/fH37Gich1ef+9LrN9EvbHOLcOZi5LRO6OgvK1ueTjgg3v9qog3lr++pvOGAPD0f2q+C4dbmMSqDcu4vbYRK4KaF83CA0vXaotCKgKCwDJ/K9CbgOLSPEAk++DK2xSSFhQDTUY2Noq6cy78uEy10fuKnjV0uU9eBpXos2LYB4kskg0UQbeitSewuE782OupdgkACmVuS+dsTSQEgaW9LnzePJYkbxVmZf2fSnJ+kmaykx8Y3K88wDOM0qru/+kmsFrvlDtVEsuq+mKtCSx6wJA84Pc6vch6mtGzkRcKcyw2cXpEMvvzG6pGZLKHt0T19Pom2R1ptM+zKLXX6F1uFlnALIlcWz5DdZs0rKzsN0CiMGcHowfJzFwnLilqJrB8igyGEFIPqrva+lAYc30BzPX6Y3mkGJr+3rvviKsvPg2DB/bTrqcoCHobIIeSSy7XNTThpbc/w7uffodNmzt6Ek2eMBJHHbwHdp40CsWFTKTQNW15xVr8+MufePeT7yIEVuvQSa0ZSXY7nL0GIq90JPJLo8u0UAfLvaEKNYt/gr9OjwYnkClJOC43JxJSyN+U1cwjK7hpSwOWCQLLakvTVccjCCxzV47hITcBOCxFB9eXVI+bpeZOY2trDOeh+HwqsvNEmwJDemYAWJ6k+XXWLLV5SApZMbNYawKLXlcURO7JxoM1db9+sTgIgsDSXqBkEFj8nfCDlR/VzM6aDG29eLccwz0YykRPVyuGmFmJwOIdM0PaGZ5mxSx+LQQWQ7gpck2tFyuuabx71Wg9hufxT3I/lI2NiuTn46qsg7GaxkvTC+M+VU/PeG3zajBU6xD1fNAcppSYMeSal2X0XtVt0tCy8gpJ4yY0z2bDMbkunKsSGU1yOEJgdUf6KqgA77q9WBoMYb4/iIDJJN1B++2Gqy46DX16F2sujhwOIuSph6Ik18OtvtGNT76ah/c+/R6/LeEFUlsbPKA3JowaimMP3wdjRpZBsiDpogXippo6fP3Db/jy+4X4bclKNHSSLbKlHVuGAyVjdkJOrwHILtLOHMnyiqLAs2k1Nv/+vW4SK0uScLAzG4e4stBP0xNP9+/W1IIhBbhuSz3+DAgPLFOB7bmNCQLLvLXnzR5dq49L0Y06SR0e6JOd2Yi3bfyQSVcaXGobUQclXYKe1GIhOcSPaysZP8wZ3skMRPTC4weeUaOOBTUtWutoabXBfZDskAuj429fnh57TFNvZS8sQWBprzI//vmBaYbRg/M99Q89r/S59ZvRs/E26K3DZARWMysRWMSGHs38jZMYsJqRwOKFz/UAqH1l1LhfP9cZ0krPLnp4J1u/yegcWpenoDtDgg156iTSYSd1+X7k5WKqLnp4+cZwYT3v1iROe2vTvFRlaGeiiXko3k4c6fWv20hg1UhAVFal0GbD8XkunFHQ7InTIIcjGljdzf7r9qEiGMKP/gCa5OTRc/vvNQU3Xnk2SrT0sBQF4aAPIV9j0iH2+vz4Y2kl/vu/b/H+Z7xE6mgUdi8d2AcnHXUAhpamUgPT+PTXrK/G59/+EhFp57w2bdZ/ISbZM1AyblcUDR0LyabzcoMkVvVaVP/2Dfx1+sKQSWJNyXbgEGdWJEOhlezqmnosEQSWlZakK49FEFjmrB6zDZ6nhjiYqTcQa3SPqN5B7bPQmTOjba3wwMPsxwypS5fxo/Yv6epc1cK6N80YtJ8+9TU+UzMNGnlJUf+H2ZB4eGFab35o6HkJH6Nq9oxSNT3SuByaXf+qEnq8JbaqCQIr+sqQHKXnCgWCEzES3dRCY8gZvfKWJdJYCuvy+fZoCvvT05XVCCyOmaQNwy/p3WMlI1FDDxdmVNRr1ItimN27qtYjMwjz2dXZxy2fwUzgQW0wEp9OvR2muJyV9g89kapSpDvH9eOzJ9mZp40uJz2xqCuaSCY4XgTQK90Q4S4NKy0LQpKipmItsdtwcl4uTsqnuH73I7Dm+YOg1tUPvgBq49T1yinpj+ziPmioWIJwsHOvxr13m4w7brgIBSqmHXaKoiAU8CDs15ftzuhOa11elhWs3VCNZ1//BG9/pK2dtuOEkehVXIALTjsC/ftoe5AlMpZ46y5ZXoW3PpyLNes3Y9mqNdhSZ5D8kyS4hoyDs28pHDm5cBUZuQwmibUOm375CoEGfRdx1JXbLjMDBzqzsJeFMhReU1OPxYLAincbinptERAEVuI7grfCvA39JwB666TC1qs3vcyclQp7QdVRSEVf0fqgqzMP7GZlWTQ6D4YeMNSHh7+uatThYCYkunIzzM4Xx0QYV0+yliK49Mjiv1vN9gCQLs0RPVjQU+PvCX5E6OlHTxmGyNKTzwp2EACS8kMTGAxJXWpKkdRnZtauZLyR5b5g8g+rmJUIiNaY9FZD24+1ClAGx8GPEHrDMPSffxIh3BneT+/vOwyOIRXF6R1Oj6dE5mfWON9SM/OZ1V6sdvgceh7AOanozGAfvIhkVsR4dU2ptfo3o3qbFHHXZGX72O04LT8Xs/KaPQq7iweWW1bA7IJfeP1YH5YNa3rZMrOQN3AoXAOGIDMnF/ZsJ5rWrkR9xSJd3ji77TwRZ88+GpMnjo4anscQQjngRSgFJBbXleLm73z8bSSkcP1GbXHyHcaPQK4rB1f+5Rj071ucttDCUCiMXxetwAtvz0FNbQOWrlyDoLZ+U8zfYUZuIeiBRbPZ7MjMdkbWs2DoWGQX8n3WmSnwbl6PjfO/QKBRz4VzcwB73ww7pjqzcITLGtqRgsDqbJ3F3xtAQBBYBsDSKDoZAIkk6l+lyp5WCQQSWakwuowzzCWdtyJMYrN7Kiar0QfJSYZEWPFQGgsWklVcvzUA5puEH1+G01RSLx1ZKmNNg0LuJNeS7ZkYL5TMTEaiwixR3XjHwXpWIbBITvNGf7cEJkMdOIYoMCS2qxo9I6zkMWZVAosfAvupovxdaa358c/nE4mdHwGYldKeXt/EgySNlYxhkczCSK3OdBo/EDelcAD8OKe8Q6ouGI1ObW91TeIJdWVfJLAYKqvbYhJY1Oph+OCRuU6EIxkIw3DL6ZKM0D2nmAXnePyY4/VhbUhGvUGvK7sjG8WjJkc0kjKd+WC2uhaTQwE0rlmB2qULdBEZw4eWoqSoAE8+cHPU8aaaxKpvcGP1+mq88s7n+PBzPgO1bdx25cjJycKU7UfjtGN5wZV8o+7Uug01uO+JN9Dk8aK2rhErKhP/zpIyHFBCbRNtkdBy5BUhd8AQlIzeScfkmkmsDT/PQdDNZ2vnxivnApsN013ZODo3/SSWILA6XzNRQjcCgsDSDVXUgkyqQs0dZntJpRk+QCQ4OJJzDG+JmgU5wbb1VueBhh9UFJVPh/FVQI0eZknrCsbML9Sp4J9keK7R85CEIkN5EiEezMaSH4X0wrLCrX+0uYkQwraotGjMnRqn6DUPhYcD+BmAvpTTZu8489pjKDATRljlGWNVAouIUyuFYaKzzYM/qS1R02eq6nGVDK9Hvp/4OzAkrp3UGTc3fqF6dkinphHDO1MpgUDdKz7PqL1nVdtTJVLj0TY1fP7s1APr1PxcHJPnQiCSgTAMf5IFxpO1Kj/6AnjP7cPacBg1YWMi6baMTPSfcjDs2TlwuApgy4yexVwOBlBfuRi1S39FyKsvlG3C2JFwOXPwxD87asCRxAoHvEkNJ2x0e9HY6EFJUT6ysjKxsboWVWs34dk3PsZ386gXp22F+bmg4DvrXXzGURgzIl7vQe0+vp+/GI8+z1BuwOcPYGXVel0ZBc3YRyQsC4dNiIi7d2Yk2AL1m7H22w8Q8urXes23SZjhysHMNJNYgsDqbIXF3xtAQBBYBsBqV5S3V3enKKNN665Xqh41DOtLlfHD6k01u2Kq+ozWD4XrR6RxAPS2Y6gGP0SsbKvVcAl6XSXTEylLTdP9BAArpUImoWzVbIQMIeRzI537uGXvptsDix6d1H6it0I8meVIsFDTjZ5XnekGWfn32nps5WqYrxXGa2UCiwESfA5/YAWgOhkDs0ySWIouYmzeBPjBewGAf5jXZMItMZECPWKZMCRdxnB5vqtSZfT2InFHrUmrGglPPnvvV7XUjIwzLgKLwk1RGZnWGlhemR5LIYRMzs5nZHbxlN0YDuNDtw9fU+cqLMMYdQUM3uco2DOzkJlXCEnqPCEPSayaxT+hftUfkENBXUO22WwYNmQQCvLzcO5px2DKZF7AN5tZJBYJlpWV63Ht3W29D8NyOEIIZWTYYVPnJysyqmvqQaF3WZZBraxYZpMk9O9bgpzsLNhsEoaXDcBZJx4aEYA3Yuzr8Rffx9yffkcw2Ozp1+j2REi1dJkjvxi9xk5B7gB9EgoMI1z95dsI+726h5xrk3CkKwdH5ubElfJJd0cxCgoCywwURRsqAoLAim8r8OXPsBdmDUp1JiCGD1LsONUPW4Y9HBEfXKbV4kGUYXzUG0uH8RBMjRor6o204LEOwL7qTX8qMOL+p9dIujzjos2Rt4wMSdPnZp0KlLb1wd8QQwh7OoFFwvMUAAxtMCJoSiQpPEsdNgrC8hayu5BXnBt15SgAPTi12zJqb1YmsDhgeoBqiwJbAEB1jEtSlAWT5xJ6J5DUtYo+IfWg6I3EbMLpsBNVL2SdWb9MGSLPZrep5JApDSapEYamvQ+A3ljcO3otDgKrtGwzJCmqu1frLIRNchh1XSgDIYmqef4AHq13g5pXPoPE28Ddp0fCyDKdeYBkZA0AOejHxgVfoXE1dfT0m91mQ2FBHrKzsyJeWYdO3RNnnHQkWayEhN3dHh+OO+/2iE5U9Rb94dGctkHYIpN1ZGaA3lkZmQZ/2wpQ1+CG1+eLq1/9SOsvSdLSNXg4eo/fPaKPpceC7kZUfvoKGFaq13IkCYe7snFEbg7476k2QWClGvFu3Z8gsOJbXt6SUyg6Xg2B+HptrsUPc2ZhSrW9AoDhTwZfFqYOkx+qfFkzC1O6jNjz1tJqRmz4MccDOz2wUmnbq6ntSZxZwXgDvouFPFlaYyIIrOasadyn9EQrMrhh7gPwDACSAvpung12kObiJPYYGnd+msfB7q1OYI1WNaXSGdoea5kYWk2vK6P+GIksPd/P7PerRBoxue5JAHjWTIfRY53ntVR+rPG59DGA6emYsME+SXTSUztqgkCNtowTWEPLyldJzQvRwXJttkj44HkFeehKBNaKYAh31zaiSVbgMcjAlIydgvzS7ZCR49LlcaW1qPS+oiZS09oVBte9ubgkScjKcsCZw4ymEVcsDBrQC0dP2xN77zoRuU59ukkUPD/4pKtRW68/rC2uAXfjSgwZzek/FEUjt4ezQF9oLz2wVn7wDBQDOmtZEsMJsyPC7k5b6p6L9Kq8bksD/hRZCLvxLk7p1ASBZRxuCqYygxD1kNJh9D7ih0WqjX0y1Kdfqjtu199mVUCcXgrpMKsSWJ8BYEYqal+l2nj4pTcNBYqtYCTztrOYIHYLLj2dwOJB+TjVY2+bOK2+XXOMGjJGr47u5HXVevb08iS5Z4XfktUJLL6LrgZwsb7tk9JSJNUoUpxK8qplgvTCmmORRBEcE0PVSDrr9xQwb6noDRVPeHKiI6Du5A6JNpKi+gzBMiI1EAeBVVq+UJIwPtqE6AlyVK4TlxYVdAkCi6LsT9S78aM/iIBB4iqrsDf67bh/xOtKsnUeKqhnAyhyGOu+/wju9RV6indahqQWQ/3oqRXNSWfI4P7Ybccx2GPn8Rg7sgwMTdz3mMvR0Mj3srBEEMjqMxg5g0bAVdgLzsISXeQmSczl7zxuqFtec8zOd+JQV07KXBLcioKbaxqwTDuTY92KygqjN5qG5i0KdysEBIFlfDnpdVVp8MbKeC/RayxWQ27Soa1AN/OHgehnELMmqKMdfrhSoDuVWR9bD4vaFvTASqcnWnuYePjk5SZDLNNlBwJ4BAAzqVnBmFreShndWjDpyQQWtfROAMDDVnSB2ug751eVtKdXSdfOTtX5L4Nk8P4APuq8aNJLWJ3A4mXSmQDuTToSxjpIh+dV6xHy3cREFl8YG3bSSlOvk6HC8XmJxD8s7g+e1fjPVBs1GFOd3CeRORqRiDBOYA0rK/sGkKJme3HQIyTXiassTmDx5FkVCuHiav3hcS0rwhCxgXscBmcf6k6ab0o4jLXfvAtPdTISRJg/3q7Y4qA8F3IdGVhSo3/9T8hz4ZKigq2aUw2yjJtr6vCVN/pZ3Z6Ti+z+Q5BZ0COa7pgAACAASURBVAuObBdcxX2Qmd25Fxw9sFa+/xTCAUrN6bfzC1w40Kl63+mvFldJasPdXtsIei5qmCCw4kK2x1YSBJaxpc9XyZN06ZMwTTYJFOocpdo49/8CYArmdBuJCRIU6bDzVALLyAd4ssfJsaQ7nMpqWRpJuH5nQcKjpxJYvG0+WfXEMPJ7oJ7ZAwD0HxqNtG69siQfuHepr5huszqBxXBL6u8xrN4qNk0NH0s30cqw7mRkn40HZ35UM1skvcJSaRepYcqp+UBrOzN6o/B8fXYqJ5xAX7xc0OshFw+BVf4hgIO1BniIKwe3lRShUQ6j3mIaWPwl+2QFZ22qNRYqKEmQbHb0nbQP8kpH6PKmSWAB4a1Zj43zv0CgYYtmM1lZWTjiyCNwy+23Y+7Xc3Hh+edHwgYpbB4MBiP/NNN4KsyUpAiBQxwZRmZF32l6mmU5HFs9zsp6F+H6M2dixKTRsNltqFhWhWdefA/v//RHTHhIxjolCf/u2wtlmRmagctLAwHM3liDYBQPvux+Zcju3yzmTuIzr3d/ZLvyO9VIoyde7bJfULP4Zyg6f0Ncn4sLc7F3TlbSg6xXB8O4t64RlSHNd6MgsMz88XX/tgSBZWyNB6p6AcZqmVea2d7SeSCirgM9bdJtTFPNAzHHk2qzEoHFWxx6BKZa0F8Lc3pDcI9awa5UPcKs5tbeEwksehWRvGqbmUh7l/CIy48pJqug12dPMkFg6V9tKxFY3LMM76eum5FwLP2zNVaSH0DPq3pYxmompzSzrzITYyrtHVVuwIi+k5njo5g+dSHT6Rmtdz78lJ0BgJ5YnVk8BFbZg4DEFJlRjQTWzSWFaAyHI2GEVjF6zHzj9eOxBmPnCJs9E67+ZSgetSOydOoZJTpneuFsWfYL6pb9opmdzuVy4YKLLsJZf9n2HREOh/HLL7/g8UcfxS/zO5LezCxIC4VC8Pv9CAQCaPl/WmMmYeWy2TA0MwNn5eeiPDMTn3i8eLvJg0ZFjigA+JVm0ftEKbPMDDtczuyInpffH4DXF4hJktlJMuVkIYMEkxojOSw/F/f8/TLk5lOTbJsuVDAUwqdfzsOt9z2HQAxyz2WTkAMJ9/YuxtgsR6dkEImrL7w+XLO549k9q29pRAurdfxmbklfZOcWwGbv/Fnmb6zFmi/e1O2NtUe2AyfkOTEgI7lRJQv8QTze4MZ6QWAl+lMX9ZsREASW/p3AGyoKFKbT80YQWM3rxQMOw4n20798ppW0CoFFDDh/CrcnegQwCxxqGzGM0Aph7Axb4XnZap47PY3Aovs79QL1esmQuKKHJbN4vWrWxuxC7QgCS/9iWYnAYlIB6gCmS5uxPWr83TFT57P64UxqyXQQWExmkpyQLX1Q8cOf2pQkhpg51erGUMtVOt7fcRBYpeV/gYRHtRAggXVjcSEa5BC8JnsBxYO6V1HQKCu4rLoOTQZ0rmwZmbA5slE8chIKh0WV/IpnODHryOFQhFBqqtmIgKcR7srFCNZuAj1yotmgwYPw+ltvoVevXm3ImmhlSVrxD0muxYsX4/M5n+HLL75AU1OzWPvGDRsinlutjeTVsMxMXFNcgAlZ0b+X6In1bpMHb7s9qJPlCJFFsjAUh3vWpFFD8Nczj0KvviX46psFeOndL+ENa5OgZS4nTj/2YIzeYRRyXNEz/hFPj8eHL75fiBvvpX5fdKN3WYFNwtXFhdgzJ9uQsMgfgQAu2LQFje32e0ZeMXIGDIWdmSlbmSPHBVdRb2Rk5XS6bv6GLVj79TsI+fQRr1cV5WGX7M6Jt0Q278duH15p8mKL9u9beGAlAnDPqysILP1rzrT3xtLV6m9bT0k+2akdc46ewkkqYxUPLE4vXRoTViGwqCfCNPJWuO1v2W7jANwKgB8r6baFAA4AUJ3ugbTrvycRWBRPpsA2wwD1CNbyUMww6bsAUO+vJ5ogsPSvupUIrHQQNJ0hxfcDLzisYOnAh9n16DWfTqOHBT1Pb09TghUjc+czmjJVX3dS6Q4A1xtJpCENLS3dX5Jsn2o1TALr+uKCSPigUWF0IzPUU5YeIl97/XjL7YsQK7pMkmB3ZKOgfDSKRk6K/HsyjQRLhLgKh9BUW42Ap232P/eq3xByN0AJdgwLtdvtmLTDJNxx110gmWWz2ZGR0blnT7T5HLjvfli1iqTnNiuy2XBZUT4O0SCH2rcjKwrm+wN4sdGNdaFQhNCiXpKRa9mC7Cwctt/OOOn4aehVnJ+QQD4zKq6pWo+P53yPx97SDnsusduwQ5YDs/PzMMpBBwdjRuLqjUYPHq5vaFNRsmdEQgizekd5dpEw6zMQjpzcTufor9scEfcPuju/xD0tz4mpzmzkJDEr4cuNHrzv8UWydmpYzYrKil7GUBSlezACgsDSv/jpymbTMkI+5KgFc4P+IZte0koEFoXc90pD+JxVCKzlKoG1yfRVjr9B3rZdBuDO+JswrSYPbkPSpBcXaxI9hcBihrhrVMJdj9cqs2c+pn7o9eRU3ILA0v8IEARWbKwEgZV+AosrxLMjwzkZXpoO/VL9v6jmLNPzAfSPUek+ANcZCY2UhgwZUmaTFc00eSSwri0qQF04mLY0HQxpWx+SIzo9a7TDnDrgYsvMioQJ5g0eicKhY42AbbgswwTDoSDCwQA8DVsQ9Gp79gVqNyKweS1CTR0JDIbJjRgxAldceQVGjByJ3n37RLx6SGTZdYSptQx8hwkT0dCwjYAhBTo+y4En+8bHQ5DM+sDtxQceL9yyjMWBoCEia9+dx+GEGfthUGk/9C4p7NRTqf0CBENh/Dx/EZ586m0sqFwfdX2YNbNvhh1n5ufhIBcDB2Mb6ZpwJFSyI3Hzoy+AS6o7apaRwKIWlpbllfRDZo4LGQ5mLdY2X+0mbPjpUwQaY8uM7J7twMl5TvRLYhjhQ/VN+NobiISORjEFirJkRVXlGMM/ClGhpyIgCCx9K8/MaunOaEbvL2byeVnfkJNSykoEFombW9SQtaRMVqNRQWDFRvsSVeQ+lWui1RfDR6yWlacnEFjMiHkTAIaUdnYTzcNMjfo75vNN5423FbZXUsYgCCz9sAoCKzZWu6ghbJ1nsdKPebwle6oHVgtefK5RA4yh0fQMs5pncMs4+UF8PICnYyz0v1UPLN3e39LkyZMz6zbXaKrEk8C6uigfdfQqineLJVCvKhTGkkAQbzR5sSms0/eHhE9WDvLLRkW0rhg+mCyTw2GEg34E/T74GmsR0pltjp5a7pULIft9kP0dw8lKS0tx/AnHY9iwoRgyZAjy8gvgys2NTCMzMxMZmdpzYtuTJ27fhsDKs0m4pqgAU3V6X8XCi5541IjyKAoWBwKxPHfaNGOTJEzfb2ccvM/OyHVmoXRQP+TluzpdGoZJfvbNL7j570/DpxGC2Ndux+45WZGsmWMd0S/muH+Dyja6iuQVdd2oe9V+b/8RCOKO2ka423kldUZgRdYn2wlXYS84nM3rpWURcf95n8cksSZnZeL0fBcGJpHA+tuWRszzB7QISUVRlA9WVlVO73ShRAGBQDMCgsDStxM+UcOR9JVOTimGAjAr1M/JaV5Xq0ztPpW5MXSVTm4hpmIloXZocrvp0LogsGIDLgis2Ph0dwJrO/Uj7TAd5BV1KvgxR88rK3jtpfhRErU7QWDpXwVBYMXGit4gzwHYQT+kSSvZ0wmsFmBJ+lCXjBmd6UWtmwRK2sp0bJgJACjmzczT0ew1lcDSfanbKYE11ZmDvxblo0nmuS51Vi/LWB0K46VGb8TbRy95ZstwIKf3ADh7D0LRiIlJGzDDBIN+L0J+H7z1WyDHKXAfbKiBv3oNQvTEieIBM378eBx51JHo168vysrKIuRVbl4+nK5mUXObzYZMh6NNqOHy5csxc8YRcLu3eYH1ttvxwYBmby6zjETZg/WNWBkMYWUwiHUGvOMGF+bhiOl7Yciw0shwGCEn2WzIkCQ4bLbIfwdlBQFZQWOTG9f9PTpxS68rZhWcmevCEblOzS+ggEIdLwX1JBx17KaN4TBeaPDga19bbpfeV1l9yzsNE+ScCvoOBvWxOK+oRn2x1Uux4ec5UdeedUhgnZbvwqAkElg3bWnAr37NbOmyosgPrKyq4keuMIGAHgQEgdU5ShS25G1Z8m5XOh8DSzCjDrO8bdZXPCmlXlcFSdONRcvkvgGwR1Jmqt2oILBiAy4IrNj4dGcCa4KqgXaQDvLKD+A3AE8C2tq+Kf5tW6G7/2fvOqDjqM7une3aVa+2LEuy3MA2YDC99xYgQCAhoQYIPwQSAgRCC0nokARIQg81kEJCCCX0FnpvBmPjIlvutiyrrLaX+c8djaxdaWd2tszuSJrvHB+D980r33sz8+a++93PBLC0z4IJYKn7ikzI3wI4TrtLdStpAljJruU+juLQb8hgkZGYwjVyuOMZCquBB5nUwPpE62pJC2Dt7nLi/MoyOAWtEJLWplOXo0D78kgUn4cjkt5Vp1bWFSDpW5W3bo0asq7sWsLjM+8rwwQjQT+i4SD8PWQo524UdQ+sXoJ4JIxoX4o6BWDbbbfF/vvvh/LyCkydOlUCtGjUzSotK4PTNZDtj/abX/0azzz9jCTyPmgEsJ6fNHBNvo0Mpud9fmm+vg5HQPAnUyM7y2a3wmmxotxuhc1igS8SRX8sjmBoJEGQIyXran+3Cwe4S7Cdgig9+0HgqjsWUQqRS9lVjumNQAi39yaHgjqqGuCaOAUWpzb2bGl1vcTI4p9U5t+4Ghs/f1ORhXVwiRPfLXOj1qpFqzRTrw+UTwNgxUQBP2pfsUKN+pldw+ZVY9UDJoCVfmYpQsyYf/1u7PR9YIm/yanoNdKbtVWaYam75D6kp+NmWHGWxcczgMXTT4J3RtLA4jSaAJb6Yh6rANaOMvOKaePVdRkGsmYyJJp6ac9nee+P1ctMAEv7zJoAlrqvqGd0qZxIQbtX9SlpAlip/cqPf2bufQ/ASgBfGCRjIcFPirWnMmbcZIbYb7QulbQAFkWwGcI0w87nn37GTHdLIzEJAHkvGMaaDNg8gmCBZ2ILXFUNqN5qni6dHGRbDYYK6tFIPBJCcG074uEgov3Unhxpbrcbe++9F7beemuUuN3YZps5qK6uTir4gx+ciK5NQ0AYwZ6ZDjsenVA3okJqWzEkUAsryQoBTotFkeXEcLsX/H68GwjhvWBIN9F/jyBIWRT3LXHh2DJP2rgTJiDwxWMZaXbRUR8Ew7ih25vkM1tpJVyNbbB5SKDQZjanC+6KGrhKR14TCwWwecnn6P6G+nYj7fRyNw6iiHsemXPDW1EFsEQxGhWwbUdHx3jN3qNtks1SiR4wAaz064Gim2qClulryE8JztVJ+akq61q4oTkHALOLGcE+lEMa02fZyF9vjcLAMiqARcD3tvy5O6eaTA0sdfflyz/MXMXsk3sB0HIizZNTfrAda2AtmJwWXg4XmwCWdueZAJa6r6oAnCsDy9q9qk/JYgBYHQAGQoeMb2QeUR7i3/Iz8X0Z5C9sSJ1OfhoEsPiVnvJ0g8yd40pLcIg73eFHdj1kNsFlkSgomv1JKJKRSLvUoiCgavpcVLZtA7uHz538WtDXh3g0ImUTDKsIs+etVVFE1O9FuGstYn4vYgHlxCnl5eXYd7990dg4UWJfOZ0uTJ8+DVdcfiV6eoYAMJsAHOtx45Lqoe8DHlWF43EExTiC8TiUFM4SAw4JYLml8L6hf3VbrCMoBOujUTze78c3EhhJRnd+rcJiwffLPDizQtt8b4pGpHFmaqkALIvTjZJJU2GvyEwMn2GEpTUT4PSUSdklB43su55lX6FzfuqstJdVlWEXl5a9W6ajGyhPptk1m72YH1YMIYws61hBZoRigexaNq8awx4wASz1yW2U07kraQEUcmkYAcC6BMBFAOoLOXCVtgjWM6zy3QL2xwSw1J39E1nEXd+TVG0Tni+ARltr2kqNNQbW/jJ4tQuATFJx8+T2RgC/0+a2cVPKBLC0T7UJYKn7ivsWvh9/r92lupUsBoD1FgCC68Vmz2fqVH4E/wcAQSyGNTFUj2zzUWvCvoBtVUvrfABbpxqFQxBwuNuF08pTh0DlMnJqJr0aCIGC2YvCmQOCzspalE6cguqtd8qrthPHFOijrlUcwb5uKbtgoU2MRSUWVqR3E6LeHsTDAdUuEMAqKSnB7Nmz8cUXXyAcHgq7cwoCLqgsx3FlQxEa1ITqpo5X6sxzmodbSgCLWlwAEsEs3ilLwxH8w+vDR6EQ1mXAqNPS+M4uJ/5YVy1pZqWzbAGsT0MR/J5C7gk+Eqw2lEyaBkdN5uQJglglZVWSLtagwDvDRruXzkfX1x+kHIbeABbDPX/f3Y/FEcX7jwCWfghauskzfx+NHjABLPVZuwrA5RpCYgox90YAsM4G8EsABPaMYNSNIPPj3gJ2xgSw1J3NNcKQW22x+/pOnAlgqfs3V/8cCOA6ADtlmdhhOYCLZdaBvith9NRuAlja58oEsNR9xexUpwC4Q7tLdStZDACLewMeuunD6tHNVUkV8xOdrAkmrCFLi6Lvj8jAVmF6kIdW+PVvndrceicEnKVU30FuJ86tUM+olklfYiKwPBrFE/0BvDtMJFtrPdUzd0BJbSM8E1q0XpK2HIXYg309kiB7oK8bZMcU2yRdrP4exAhmeTcjHlIHslL11yUIuK6mEvu4B/Z+DBfsk8LqMmclKfmDC8ljscIuCNLfg9YVi+GjYBiLIhF8FAxJrCwlm+2wY1eXEy5Z9Jyhf+zhv7z+EfSfNrsNP6+qAIGsdJYtgLU0EsV9fb5kcJVA4aTpcNZNStds6t+p9eVwwl1eDVdZJSL9veha9DH6Ohj+m2xVFgt+VlmK7Zz6aRuT+fiQ168mwG8CWNnN9Hi+ygSw1Gf/awBbZflxlu91ZQQA61Q5HGFyvgeXZX0MHWRK559neX02l5kAlrrXuD8lgGUEnbRcAZps1ke6a8YKA+sg+Vmwcw7PR24byZ4kS0Sznko6B4/y300AS/sEmgCWuq/4DD4ZALUri23FALCoy/c6gPyBIsX1IgEsal4OAlgM++Lzk0LwhjbiDkJbU8sPBKvwqFJP8wlg0VOrIjHc7/WpZT5TdppgQc3WO0phgxZbfj7so+EQQr4+iWnFv8U8Ajv5mn0CWTFfH6K+AVZWJkAW9ZNuq6vGPBnsIfuKoE7+4KuhUZKxV28bSdjpj8fxVTiCFREGK4p4zR/EF6Hwlj4wJHDvEpekbUXGGG1NJARCiP/1BfBXrx+hhDwCLHOEpwSXVVdKWltREXBZBphgwy1bAGtjLIbHvAGJJZhoJU0EsLiHzd6sNjtKKmoQD3jR9dV7CPWOFO/fr8SJ75WWYIKOGQgf8/rxX38QTJ6gYCaAlf00j9crTQBLfeaZ4j1LBDzvS8oIABY3w9caSFeCpyyk2n8v795WrtAEsNSdbQJY6v4ZCwAWwSs+B7JlXiV6qFsWMWZWK9MAE8DSvgpMAEvdV+MdwOIHLhlLRtHs1L6ytZVk5rLPZe0swgTM6vo0gPxkrdPWB02lJKRgalPTNFhtFO9MafkEsJhV8K7efjA8K1NzNzSjdGIrylu2ygt4FQ70I+z3SRkFKdJuROBquI/EaFjSyJLCC7s704YW8nq3IODPDbWSkDuNANZGncIiycAigJUusO+GzT34T79/C4B1f0PtiEyCBLAIqxCcetEfxJ/7kjMCTrRZsYvLKf1OVpkdAixyw9UWCw7zuDHFbpPAumw0sPxxEc/5A3jUm8x6yweAxXmwWG2I9Xejb8nnYMjocDu7woMDS5yawiQzvZcGy9/W0y9lj1ThGi5Y1rFiTrb1m9eNSw+YAJbytPP07jkAIzNqFGepaAGw+FQl1ZUUXqU/roTfqDcwWG7w34fr2Ay+IqQcIwB2NdCJJl87LwI4rIBTYgJY6s42ASx1/4xmAIvnjoNhg3w+5stWyIDY/fmqcBTXYwJY2ifPBLDUfTXeASx6hwD5WAWwEmefeyGK1lPjpk8GtQhmrdd+O+lXUtpEtra2VlpFaUJS2m4uB35U7kG1NTfNMuotURj7dz3KwuRKfajeakeUTmqDs7wG1BLKxciyCvn7EQ0FESNIkqMOVC59yfZaCsuTvRP19SHctU7KXKhkhQewCCUpQ1jdsRhu7u7Fy/6hPg8HsEJiHJ0JINvmWBzndfbArzBXlRYL9ipxYa7TAYcAlFks2NphR43VmjWARej5dX8If+pNXq/5ArA4X+HuDfCvYERRsnG3wfDBvUrSh0hmu4Z4HbMs8p5UNvG6ZR0d5ilmLk4ef9eaAJbynFM34nQABHaMYPzIY+YuNePDnAAUT0CG/+FpZKp/H/5viS/txJeDxAKnlIERnJHQh5flTISF6pYJYKl72gSw1P0zWgEsPj8OkTXn5upwszEUhqHA6Z5xOjRtqCpNAEv7dJgAlrqvTAALeAIAn7npuBraV53xSxLMWgngKxnA+xuA1wDkP1ObRl9oArBa7VacWOrGTjlmQ+uKxXFTt1dNMHpEtymazZDBitbZsDqz3/OLzLbX34ewz4soQ9Miah/tGr1ngGJk7jBTIUMKg+uXIx4euZYIYN1ZX4M5zoHQPr0ZWA0pQgipe/ZWIIgX/X70xkUsjURAUGrQhgNYBK8IYg1af1zEHb39eG8Y2DLP6cAPykvBMMkmmw31VguswhB8xnDFTdFoUl2ZTNsbgRBuTQRcLVZJxN1Zmx+9YSUAa47DLiVOmGbPJAFPJiMbKJsOwIpCnNfR0fFp5jWbV4xjD5gAlvLkfwZgu3G28RmNt4IJYBlr1kwAa+wBWGRqHgHgVwBm6bTcePp4NwAewhXtQ0unsWVSrQlgafeWCWCZAFa61TJbDrPT9wMtXS+K9zvBLDIvCGiRjcXQ7/ZCd0cCsNra2iqEWJwdSZnWm+DAMaUl+G5pbglgmImOLBqt0uju+smoaN0angnNsNizY6LEY1EEvT0S44oaV2QujUUjQBfz94Mhhv6ORRBjQ+Pk/P2+tho7y2wevQAsKwRUW21wWiwgYDU/FMJfvT4pix+JU8x4tzYaTTn/iQBWQIxjczQihQ8OWlAU8WR/AP/oHwrnm2C14vSKUhxbqqzrSiF4XzyWtd7XcABLsDlQMmkqHNUTcl5GnKvghlUIbeStl2ynlrlxuMe1RQ8s58ZSVNAdj4MhhF+ohPMKdptr6dKl43njp4frx3qdJoClPMOLAUwf6wtgDIzPBLCMNYkmgDW2ACx+a3wHwBVUMdF5qa0DcD2A23Vux8jVmwCW9tkxASwTwNKyWsiCyY8Qt5bWjFuGoVTUyeoB8H8AyOpXFFXO5zAkAKuhocFT6nI9DgiHpqqchY70uHB6eW4JYAhgndPJMaa3qhnbo2LKLNjdZRASstqlv3KgBBlWvp4uREMBxGMRxGNaYTOtLRi0nChKjKz+JZ9tyaLILIRX11RifzkLoV4Alk0Q4BCsEtD0XjAIMu7WKABWw733x7pq7FLiksI5u2IRMNw00QKiiEf6/HguIexwht2OC6rKsVOKTIRkbxG4CsbjWYNXbH84gGVxuiUAy15Rm/MCiPp6EVi1WJqv4XZuhQcHubNnHGrp3PvBMB71+rE6qnxvLOtYMZ4oslrcZpZJ7wETwFL2kQlgpV8/RihhAlhGmIWhPpgAlvp8jKYQwho5Q+B5AHLLhqN9jZJFThbW89ovGVMlTQBL+3SaAJa6r8wQwgH/XAjg99qX1ZgvyY92hhfyg/YUAEv1HrH0cTpv3jx798ZNJwsWQVHskADWGQUBsAQQvKqeuT2sjsw/4Alc9W5cI4E38WgUZCaNR+ud/9YWYXBm7LuoqgLHlpKxrV8IoSSUIlDqxDLAupJBWCa4+yYSwb+8PiwIp2bAsW+nlnlgF0Qpq+Bw64nHcWFnLzYnZIic4bDjgsoBAMsfj8EbHwJiOOtxqQ+52XAAy1ZWBVdjG2zulGTFjBpjNknf8q8g0dMSjOGDp5S5McOhLzv1Ea8fz/uCirpi7JIJYGU0pWbhAQ+YAFbqlTANwKsGyrZnrldlD5gAlrFWhwlgqc8H2Uw3M6DCANNGUGqNQj/qZdbViQAIZBXKyJbgx+Y1AJKz8hSqB8VtxwSwtPvfBLDUfWUCWAP+4TqhsLlpIz1A8MoPYDf5b118tIVdMb25uS0uWJYptXKwmwwsN8jmydbSMbAc5dWomr49yia1wWIf0GvSatFwCL3rV0FEXAKuxrslAlgOQcDp5aU4s4L32wCARY2pXMGdVD6W1HgFASWCBRXWIQCGoFRfPI6QKOIZnx+Pe/0gKDVoDHO8ubYCk22ptXzJ5jpzY3dSn6fabfhJZTl2cDrQQ5adDpM+HMBy1EyEa8IUWBzZhbQmdlECsNrJvEy2k8vc+LbHpWv2QbbI8EGOT3kdiG8s6+jYVwe3mlWObQ+YAFbq+f0egD8ZKAPh2F6FuY3OBLBy81++rzYBLHWPjgYGVgOAewEcACC3cI7sVlevzMIaj6GEJoClfc2YAJa6r0wAa8g/pwJ4SPvSGnclGU64EcAueox8Cxo1o6lpUsxqW63UyFYOG04sc2MbR/Yhn52xOH69uRdroqmhBkGwoGbOLqiesYPmsYYDPvRtXCOxWOIJDBzNFYzRgt5FH20JTbMJDAF144rqgayfDM9jmF5Ux+yLg0CW22JBuSWZSUQQiyGB12/uwWsJIYG31lZgSgrRcmYePGdjtyT+nmgEu/6vokzK1Ncdyz9oST+94g/hnj7flmYJXjkntEDIAchlZWI8jsjmDfCvWjRiBZLpSMaj3kZxegJYSibGxTPaV3U8oHc/zPrHnAdMACv1lP4WwNkASsfcjI+9AZkAlrHm1ASwRjeAVQfgWQDMNJj9R0Tua3IJgEsAPJl7VaOqBhPA0j5dJoBlAlhaVwvBvJEaMFqvHh/lCPgQyLoRwJ/zOWTNABbDLJ3lCQAAIABJREFU0Cji/p0chNx9cRH/8QXweIIQ9/DBVE7bTso6qDV8kABWz7qOfPpkTNQV6lyNwJqlErDHoL5tnA5QKJ1G4IqMJQqj621qfL1bhgEoqQAsZh8k8ypVXxttVvyovAz7u/UBsChy/lR/AE/6qFE3YK6JbXBNaMnZbbGQH4E1yxDt3ZRU1wy7DSeX5wYUa+ncplgcd/X24xMVAfdAJOxZu3YtaaCmmR7IxAMmgJXaW/8BcDiAzOjFmXjeLJsvD5gAVr48mZ96TABL3Y9GZmBRb2EhAGa+4Xa0mMZN763yx1RnMTtS4LZNAEu7w00AS91XJgMr2T+tAJZrX17jtiTZEh8B2CtfHtiCLzQ1NVU7LLa/CwIOVqr8+NISiYWViy0LR3FRF5m8CiYIqN9uT1RO3VZbM6KIjcv5bjQt0QPUAGMY4aC+Up3ViucnkcENxCDCG4uhv8iMNSUGEHc4XJjpZPdb7TacW1GO3VwO9MWjKbWzclkVSyNR3Nvrw+LIELsrXwBW1NuN/mVfjNC/+kFpCY4vc0vj19Ne9gfxr/4ANsaUAy8ra2scn3zyydhM26mnc826TQAr9Rr4GADpxXrf3pmuQP1PMjLtUfHLE8A6pIDd+LH8YV1scJNJBrjBJO3fSGYCWOqzYVQNLK5n6sTkrrmQ39XI9ZRXNkB+u5f32kwAS7tLTQBL3VcmgJXsH4IijwI4RvsSG9clPwdwPCWWc81WuGUjPWvWLEewz3ekYBUeV3It2Vcn5fhxvTwSxQWbVAAsALVzdkPV9LkQLBoOa0wAS/FO6Pn8fykBLEIWvlgMvfH8h91lclumC2FLVxffyBRyP7W8FNs67BKIxQVtF4S8HPN9EAzjhm7vlm5Y7E5JwN1RzYPE3Czq3Yz+pV8kVcK+EyA+LgeWo9Ze3dnbj5f8KuGDgK+qtqbKBLC0etQsl+ABE8BKvRw+k0NojLRYOFcnGalD47QvJoClPvEmgKXuHyMysBgq3c3cPga8pwnQMuX7U7l+RBlwbKm6ZAJY2ifKBLBMAEv7ahko2QiA4cm5MXwybXX0ll8nJ9WgJiwTbGRlSSfBbU1t0wVrnCdwKW1Xl0P6wFYS2tbSg1XRGK7q6kX3MD2jxGtt7lLUb7cXShs1JFRhONy6DoSDZqTTcP8nCrmTgfVUYz0o6M7j9kA8hs066EZpWQMsQx2sP/b0451g1mt3RFN8QzfbrTjaUyJptVnk1T0IajkggHpgWozsr3cCITDMcdDs1Q0omdgGSxbZMZPbFBHp3Qxf+/ykf260WnBiuRt7uPQ/rLyjtx8vqwFYYvye9pUrz9VAhNPiTrNMZh4gcl+lcePP25k3ERdqcRHpoTGaAFbq+TYBrMzug/FU2gSw1GfbBLDU/WMkAKtZBoV4wl5sRqGa1+4AcINKxsSx9PwxASzts2kCWOq+MhlYqf0zFcCHAKq1L7VxXZJMpvsB/CpbHbGkz/mpTU3TYLEuhCCkPDGptlgkAOsAd/Yf2BTvfskfxIN96oATAayKtjmaWFghnxe9G1aN65WQavCBdcsRWk/tNKDUIuAXVRU4zDMAEAfFODZFixMd5o2LeNYXwAv+IHpUgEz202q1oq6uDoOa6fxaj4Qj6O7uRjwhi6HS5HOBM8Ph9k479ihxosVmTQliDdwIgsTg4p+10Rge9vqxLDF8cEIrXBOn5LzO4pEQguvaEe5an1TXt9wu6f5yDyJvObeUuoJAXMTdfT5VAfeIGJ+zcuXKBTp1waw2tQd4isOHK2N97wOwFW8BFWfxdqBA21sAmFnpKwB8KfQAuiTl1DpvJoBlAlha14pZbsADJoClvhJMAEvdP0YCsBhK88goSVbBdcW+Dgmdjs0nkglgaZ9XE8BS95UJYKX2Dz8dmaTiRTPTtOabjQfv/NYhiMVQ84wsCcCaNmlSU9xme0aAwElIafzAphZWLrYwHMVlajpY5OE1NKNuzm5wVg4Ij6tZPBbDpo5v0hUbd7/HY1H0UQdLVs6c7bDjwQlMBlMcAIuhi72xOP7i9eN/gZDEBFMyt9uN+vp6VNdU4+qrfwO7fShxzfLlK3DXnXdh7do16OxMFkHPZpL5ZiczyyoztAh4MWnByuiQCpfA8MEJrXDWEmPIzaK+PvQv/QxIAOB4I/K++kGOGnNaesbMg//oD2BdwviGXxcTULVixQoCIabp7wFmBeCm6UFZI0lD7HTKTnHBcjPOFwLpzF1FYtCZAFbqNWMysPS/l0ZrCyaApT5zJoCl7h8jAVij6R7kB9QPADxvIAazHv4zASztXjUBLHVfmQCWsn94AE3tTB4oT9a+5MZ1SSbT+COA2zJlYiUBWLPq6koDbvfZFghM953SqIPFbIT8wM/WyGq5brMXm9MwaCbsdCDKm2embYaC5Z0di0cIYqe9cBwU6Pns9S2jnGyz4V8T62AThIIzsJhFkKymJ/oDeHtY2OCkSZNQVlaKLTQrAHNmz8YPT/8hbLbU8gmxWAyffvop7r7rbqxbtx78fz3NWTsJrqZpEIRssYWh3kX7e9G/5NOk7lZYBHyv1I3DPS49hyHVfX+fD88kZFZM0WCvaLW0tLe3q4vV6d7TMd8AqcZ8yTEOfI88Z2iiQO3fARA0KTQQaQJYJoA15m/ePA/QBLBMACuXJWUCWNl7758AfiGnes++FmNfaQJY2ufHBLDUfWUCWOr+IdtifxnEmqZ92Y3rkl8D+A2AJzI5SBiBQk1vbZ0bF6WPnpQ2y27DSeVuzHIMMWIydbsvLuJFf1Bi4qhZ9VbzUDVtO1id6owvMR5H99oViIbHOgs4U08DfYs+QjwwoONEHazrayqxvctZUACrLx7Hx8EInvcHsSQhJI99amhowPk/Ox9z524nhQtmagsWLMA/H/sXVqxYgfXrk0PyMq1Lrby9sg4ljVNhSbMW07UpinFEejbBvyI5Om93lwOnlrvRkIUP0rWZ+HtEFHF/n18K31Q0EfeE4tELVq9eHcikbrNsRh6gwB9Pfsks0OukhpN8DYC7AWzOqHe5FTYBrNT+MxlYua2rsXy1CWCpz67JwFL3jwlg5fZ0+CmAhwAMZe3JrT6jXW0CWNpnxASw1H1lAljp1xLvt31kZtHs9MXNEgCeBnAlgC+1emMEgDV18uQ5sFjfBlCRqhLyYU4v9+TMFPkiFMFvNvepCrVYHS5M2PkgeBqoCaliooiAtwfeTRS2Ny0JsOjrgm/ZgFg4s/NRIPx3ddUFA7A2x+ISWMKMdz3DGHeVlZU48aQTccAB+8Pj4TMxOwuHw3j3nXfx2muvY926dVi7di2i0dR61k6rFdVTZsDmKhlifIkiIqEgOjuWIRZWyMzHsMK6yVIYoZADyBQPB+FfuQhRL5PzDNmRHhfOKM/eB1o9tzQSxSN9fnwRVtY/EyDOW9rRwVSnjPo0Lf8e2Fp+UH8bgP6TPhBfTkpzoUAsE8BKvWY+kUNE87+isq/RzEKYve/yeaUJYKl70wSw1P1jAli53Y2k8DO1+7O5ZMXKrQu6Xm0CWNrdawJY6r4yASxta4n4CkGsmwFsA0D/8Bpt/TJyKYq6/xrAai2dHAFgzWhqmhSz2G6FID3MU9opZW5821MCa/ZRhFgeieLOXt8IRs7wBhu23xflLTMhWNUz8cYiYXStWqplzOOrDLM0fv6/LWOearfh/oZa2AWgU2cR965YHP+hWLsvmDI92owZM3Deeedi5lbpw0QtFgvcMsgViUQQCo5kEBG0+vijj/HBBx+gz+vFooWLsGnTgEaW3WJBw1bboLa8CtMPPgquqtotCQJEUYSvZzMWvP48gr3d8G7agM2rB8TvE83qLpMALFt5ddahhLFAP7yLPkqqlwL7x3pKcGyO2nJaFvbTvgD+6Q2gX1RUIIvY4rHWb1atWqulPrNMxh6gMDtZUfzgKGR6cb4UGGeejJxm3H1NF5gAVmo3valDqKimCVEpZAJYuXowP9ebAJa6H00AS90/RgawuNngRownqQfk53bRpRY+n08GsFKX2otbqQlgafe/CWCp+8oEsLSvJZbcCcDZAPYCMD2zS8ddacqdXCxnJ1STyZYcMwKCmjVrliPQ33+URbD8S8l1e7ucOKGsBI22zEO+BusMiyJeD4RwV69PdYbc9ZNRv92ecJSrZ6aMR6PYtHLxuJvttAMWRfQt/ADx0EA0WI3VgnMrynGIx4WuaEQXig2PsigQ/pwviOdUQtWcTid+ePppOOSQQ0DRdiVzOJzwlJaiqqZGKhIMBODt60MkEpb+O5UxS+Ftt96G99//QPq52lWCfX52FcomqkdrxSIRbGj/BoveeBFrFs4H9dUSzVZWJWUitLnLkzS70s4DC5Dp1d8N39IvkorPddrxwzI3Wuz64hl8Gjzq9ePf/cqRgSLwriMaOWrRmjUUADctvx6YAOAyAD9icsz8Vq2pNsaY3ypnKtR0QZaFTAArteP+IQOX2afxzXJCVC7je/40AOrx/Plv16wx2QMmgKW+IkwAS90/RgWwuO3ghod6jC8BeApAmpCKoj4a+I78XaZiwkXtsbbGTQBLm59YygSw1H1lAlja19JgSUa0HQHgAgDb51nvNvPeGPsK7kkZNbIwXTdTcqimNjfvAcHCMMKUVmGx4KxyD/YocaSrX/X3z0IR3NLjhTeuDrQ17XUUCGSpGTPubV7dDv5tWqIHRIS61iGwciBLIyXId3Q58Ye6KnTHoiCQmE8LiCI4r+8EQnhnmFh7qnba2qZIGlgzZ86EkCIxAHWxausbUFrGd8qQkTUVDAbh8/YhFAqNALJWrVqFO26/E599NiDnNqm6FruefQk8DdqyCPZ1bsCXrzyN9YsXwLc5OdMhGVglE9tARlYmJkYjCKxdhnBXcqjrQW4nflxROhJNzqRyDWUJKv7V6x8hop90aRzfd5a5n/j666/DGqo0i2Tmge8BuBZAsYQdicaeDuAxAAqxspkNSKG0CWCldgznnlormT048jIlipW8AuA8AGYaX339nK52E8BS95AJYKn7x6gAFkV5H5b1Tfjc47Pm+nQ3QxF/p2zCqfI7UllnoYgdzLJpE8DS7jgTwFL3lQlgaV9Lw0seCuAoAAeabCxFJ/IZzP0QE1GpytikBLDamtq2EayxvwOCovjYj8o9ONTtyimMcEMsJoUzvRpQ/5aqnbM7Kttmw2JXBswo5N6/eSMCfYWSecl+BRf6yng0gr4vh/BIhhH+sroSE20CAmkyQWbS1/64CIaovRsMY3VUe1bA/fffT8o4WF9fP6K52vp6VFRWSf9OwOq9d9/FV19+KQm+z5g5EwcceCBCwQB8/T4EAv4toYWLFi3CPXffi6+/ZnIDoLWlDTuech7ctSPbUBpjoK8Xi997Hd+8/QqCfcmJ3OxV9XBNmAKrS5k5NrxesuC833wMMQFkLREEHOFx4cQy7fVkMieJZV/xhyQG1nAtssQyYswyo311+5Js2zCvU/QAacTXATioyD6iQCLDOJi6Vi8zGoDFLBbMrHu1XgPWWO8JchhnncbyhSjGsJ7LZe2XQrRntpHaAyaApb4yTABL3T9GBLAYss4Mu4naHhMB3CSH6hn1WbBI/sBcY9QOZtEvE8DS7jQTwFL3lQlgaV9LqUrSf0fK3wIEtLSxKnJrc7Rd/W8AVwEY+IBXsNQAVltbhRCLnQkIpNKmtL1cDpxQ5sakHMIICa39LxDCH3sGsuQpmaOsChN3OQTOioEQspQmiggH/ehZ1zHaJkr3/hIw6Vv4IcTIAFDoFgQc7inB2RWl6B8WIpdNZ8jhIrvnaV8Qr/qDGH5sVVZahqaZcxCKhLFu0VcIpBBK/+73vovvHn88ysqHyAklbjcamwaYd/FYDF8tWIBLLroIXy9YIAFYc7bZBj+/5BLss+++kBhZgYAEYvl9Przz9tt44P4HsWzZMun6aXN3xvbHnISSSvVQ1OHjH9TGWvLua8kC74IAd8ssOKq0A2KxoA/ehR8mNbGV3SYlRZjh0D988F/9AfxNLfOniCWizXJge3v7WNSAyGZp5+uaSgCXALg0Vdh2vhrJoB6GSdygIwvLaAAWdb/40cQ/xTTqn71osBCaDXLIjOK7vpgOG0dtmwCW+mSbAJa6f4wGYFHnkYcGqbL6zQJwD4A9DXx/3yfr1mg/iTXwYACYAJb2+TEBLHVfmQCW9rWkVpKSIgcD2FbOSE5w37QBDxCsOAXAP9UcoijDPqV5ykEWQWTMekorswg4r6IUu7hyCyP8MhTBn/t8WJmGsTN5n2NQUqsOVJpC7qnnShTjCG3oQHDdkDD5PKcD19dUIiDm9n4mCPlQnw/rY3F8mCJksKapFdvsczAapsxAJBrBZ8/+C8u//HRER5mR8NrrrsG0adO2hBJOaJwkaV/R+vv7cfONN+KhBx7Ycq3dbsd3TzgBN9w09F06CGQ99eSTuPeee7CyYwCL2WaP/THrsO/AWZYyuabqQ6Ovcz0+f/4JrPjk3aG2K+rgaiQDS1sSOWpphTasQnD98qS29ipx4mcVpTkxGbU88ciII3hFdpySiSIu8AZ893V2dqojyloaNMskeuAQAL8HYJR0uqQTtuqohWU0AGujDNjdVuRlySw0XwGYWuR+JDbP84a7AJxvoD6Nx66YAJb6rJsAlrp/jARg8eScgLiS2Cbp5t+VM+Nq20AV/onAc1k+E8kgGwtmAljaZ9EEsNR9ZQJY2teSlpI84D4cANkQZOnPK3CCJy19LEYZJp7i81cxrE4RwJrW0rKDCIGnEBQcS2nnVniwf0luYYQMO3vKFwDZIWpWPXMeqmbMhdWhnIlSArBWL5PEsk1L9sBw9g+ZcxQO3zEHAPKhPj+88bjEohsOg7lL3Jg6aztM3G0/TJi29RbB866OZfj0v//EusULRkzRzjvvhAsvuhBVVQMhg9W1taiqHmDd9fb24uILL8QLzz+fdN3Rxx6LP95++4i6/vG3v+HOO+7A2jUDyfR2O/AITNn/CNg8A4BYprbwjRfw0ROPSpcJFitKmqbDUT1Bs5B7PBJG/zcfIy6z4FiPUxBwsNuJM8r138O9FgjhwT6fqt6cGI/t1L5q1SeUm8/UP2Z5RQ9ws36unErXSG46FsCTOs01xcq/Y6CXcDsAss7+YoAJYKYRo2WiodYAAQLTiucBE8BS970JYKn7x0gAVhOAdOF3ZB8w29SFxbvl0rbMzSND/8dCRmYTwEo73VsKmACWuq9MAEv7WsqkJCWqyUptA1AuawXq/3GYSQ8LW5Yi7nzvK+qxKwJYM2fOLIsEgz8SIJA5kNJ2cdpxcrkHTTmEEbLil/1B3JEmG6HN5UHT3t8GwwmVjJkIezesRiRkJlQa7iMCJ96vP9iSVc8mAPu6nDi/snQE+KS2Rv1xEX/r96M3TsZVBKEUYGF53QTsdMTxqJ3UDGfdMFakKGLVR2/h8xefRPcmEiOS7afn/xQHHXQgHA4HbDYbWtoGyArRSASvvfYazvzhD7dcQLbWxZdeisMOJ3idbA/cdz/+fM896OwckPo54LhT0Ljz3hCcygCo0ri7163G58/9G6vmfyQVcdRMhGtCKywqYOoI/4dD6FswxODi7212G84od2O2w67rYyEmQtIme1gtfBBYKFotR7e3t5upPPM7G0ydy8x/PFUxklH7iH3SI+vF4wC+bSAAi6AsdZ4UGcUFnBgTwCqgs0dRUyaApT5ZJoCl7p/RBmBxNFvLzFi+K4xq/5X1aozaP639MgEsrZ4ysxCm85QJYKXzUO6/M7TtW+Q5AGiQ9XPHG5hFIsUxcubalB5VBLBYempr69EQ8R+luaAA9c+rSsFwtFxsSSSKv/T58WVYPelHywHfg7OyVrEpCrkHvD3o71qfS3fG5LUMYQuuW47QxlVbxrdHiRNXVZdrEnJ/yR/EF6EIfKKIhWECVyPdZLNYJbH0aUd9H/Wt0wALAeWRFun34pN/P4yln72P4QkoGxsbcettt4AhhbS26TO2hBT6/X688vLL+PSTTyRA64ijjsK2224Lt2fkff2nP/wBD97/APr6+qR6DjnnEjTMmKPYJ7VJb//kXXzwzwcRCQZgcbpR0jgVdpV1OLwuhnAG13cgtH4ohJNldnQ6cElVKRwpsi/mcxEuCUfxiNeP+Sr3lwDhPIe//+GvzfDBfLqedX1fZv7oK3KWXa/54NYj09KzvOVk3Y3sepbfqwhcXSSH7+W35sxrex0AQU1+UBjFKJjJ7GDmi7N4M2IUAIvZKPcGMPJ0qXi+YcsmgKXu/9EIYPH9w1BChnarCNwWdeExuIAaFVcUtRe5N24CWNp9aDKw1H1lAlja11I+StLf3DPyeUnpj58UMZN5PsaTSR2MFFHEoFQBrNbW1l2songHICiyB04rd+Ngt0sSBs/WwqKIJ31BdYFphpRtNQ/VM3ZQzUZIkKF7bbLOULb9GlvXiYj5vfB+QzLCgE20WnFSmQf7lDgQTRE19nYghHeCYTDMc10shs2xuGJOS2eJG3sf/QOUt0yFZ+KA8Lqaedevxgf//gvWLh6ZZODoY47GGWecLrGwKqqqUFs3JJQei0bRtXkz4vE4GhoatoBbw9u6/trr8OgjjyAcGhCuP/T8q1DfNiNdt0b8vn7pQil0sHvNQHIAZ/1kiX0lWLXjEZKI/tfvQ4wOYQXSbqLEgZ9VDonWZ9w5jRe8Hgjh7l5fSrbcYBVxi7DP8uXL39IppExjT8dcMYYP/kjeoBtxcHoBWKQa7gIgNYJdeE8wdPAcAEag5jJshhox2cUy6+M7Zqb8pdpJlz7NmrUmeMAEsNSXgwlgqftnNAJYHBGBK4YRkiFrVGMI4X4ARjM73QSwtK8uE8BS95UJYGlfS/ksSZCFvmcyIIYYMrzpRACH5bMRg9XFzO084NiUql+qqFNjY6PbZXOcJQhSCExKq7dacFFlGWbmmEXtOV8Q9/f5VMPZqH/VvP/xsHs4d6ktGg5i82pKnpg23APxcBD9Sz9HPDSgN8Y32kSbFUe4XaCY+LJIFG8FQlgdiyEqAt3xOLpj8bQhhnanC4ecdzmqJjRBcGhk44kilr38NL544wX09ycnqvF4PHjk0b+Af1usVkyZOi3jybzy8ivw2N//LmUnpB36s6tQPyUzACsaDmPxe//DJ/95RKrHVl4D18QpsLkzA50IYPXOJzY0ZAy7Pb3cjR1yZC+mcww1ypgdUk1jToTwsUWMnbp05UrVlKXp2jJ/H+GBOfLp7cgYV2M4azsADCXMtzFtOuP4sz/VyG+PjKTxRDT+CwDUgDGKEeWnVMBoZxkYxZ/Z9MMEsNS9ZgJY6v4ZrQAWR8V3xa/krFPZ3Dt6X8NcRW/KIJbebelVvwlgafesCWCp+2o8AlgEUbifT2VMesXnb6GN4YXMbFcHgIflzNp3EgB9NWkKO8o35OgAJj8aYWk/MKZObj0BFjws09dSVvDr6nJs58zNZ1qypLHx1kNOgqNUOZNcNBxC99oVW7SeCutrg7cmioj0dcHXzgP3ASNFotQioMxikRg63rgIMuK0qnh77E4cePE1qKifqFnQfLDtiK8fb/7lTqxZNPIber/99sMlv7hYArAaJzWhxM37U7tdcelleOwf1JIesGwArHXffIW3HrkLQW+vVIezoRklE9syHKeIwJp2hDYOZEMctG0cdvyyukz38MGPgmHc2duP7uGxmgl9ESGeaLHb/7106dIBuppp+fIAY9iZBjazxZuv1tPXw9Obv6UvlnEJxilTyNcoZiQAiz5ZDWCSUZwj94MbtAsM1qfx1B0TwFKfbRPAUvfPaAawCK4w1P56AOnp+8V5KgQBPDKKk12YAJb2dWMCWOq+Go8AFgHs3RXcwqzeytpG2tddLiX5Kc8+8A+BLYbeUTDaaPvMTMdIDaCjABDIGmFpAayWlpYpVliuECCeodTyHi4HTi33gGysbI1HHGSJ/F1daBp12+2JyimzFUO44tEIvF0bEPINaB+NBgttXo/QuuWSKHjpdMWkj3kZCrMR9i/+DGIsd+mblto67HTelXBXZS9f4F22CG/96yFsWsdvuiGz2+146uknYbVawf9unsJDOu2WK4Dl6+nGly8/jcVvvyw1yoyDrklTYbFpZJgNdlUUJfYVNcgGjXfJTk4HLqvOjMmlffRDJd8MhHBrT78yICmKURHioe0rV76aTf3mNaoe4EeFYvy2AXx3CYDf6tAPowE0JoCVfpIfkHXCuBkzrfAeMAEsdZ+bAJa6f0YzgMWR8ZCHYcyXFv7W09wiRUyZXfdTzVcYp6AJYGmfCxPAUvfVeASwmAlvDwW3hAHcYaCMqsR1KFFBpg+ZRTvLhwOZfURrv1/0LEkuzcEAXknVSFoAiySdttbWswQRdyn1khntrquuyDmM8GV/CH/1+tETJ5yV2qzOErQceAJsrtSkBoZ6hfr70NeZLouvnj7PoO4EgMNW4kHN3H0RCuoo1SKxsDbD155b5FBzTR12v/A3cJQqh3Nq8kI8jnfu/R1WLPoSsWEZDbfffnvceNMNsFgsaGpplYAsrZYrgLV+ydd49e7fIhaNQLDZ4Wxogas+88NB6l71fpmcBZTaY2eVu7G9K0MwTOvg5XIrIlE82OfHFyri7SLEW2PAbzs6OtZlWL1ZPL0HTAArvY/0LkE22I0A7tS7oQzq/wWAXwPIPCVqBo1kWJTi3dTmImPQtMJ7wASw1H1uAljq/hntABZHR/bAtQD+r/C3n6YW+WFCfUcKKo82MwEs7TNmAljqvjIBrJH+Ibg9RfsSK2hJfjhzTfMZsCuAhygpXtAe5NYYAawBJskw0wJgoa257QhBEG8FREUxojPL3TjA7QIzE2Zr/rgoAVjP+snWVba2w08DwR4liwT9UhjhaLBQ1zoEVi6SukqNr+pZO8NaXougt1u37hNUCXWukjLjZWOTqmux10VX5w5eyY3HAwG8eNeN6OxYltQdQRDwwouaKhFSAAAgAElEQVTPS//mcLkwublFc3dzAbC6162WQht71w6E/TlqJsI9eWaGoYMDXfV1LERkc3Jyr60cNlxfU6G7wvWHwTBu6PaqhoOKEL/T3tFBlpDWqFHNc2AWlOLijczAIquWzJt8m5EYWC/IAu5GeiFwQ9Epn5Dl2/fZ1sf7n4KZZEGYVngPmACWus9NAEvdP2MBwOIIGfpyNYDZhb8FNbVItsXTAI7XVNo4hUwAS/tcmACWuq9MAGukfyjkTA3RP2lfZkUpyQAghhiSPfEegK2L0ovMGs0NwCINra259UJBkE6yUxq98vvaCkyxa8/OlqoiAlhqgtO8ZvLeR6OktlERUBhNABbZOYPZ6RieVjl9W1RO2w6961cjFuW7Uh+joHtw/QqEu5SJN2QeIR6DmMCIc1gs+Pav/4CSiqq8duzD+27B0q+/QDQ2FGrHBvbaey9ceeUVsNlsUhghQa1BGxRoH/z/xN8SAawymw37/ORKVLemF4NnnRuWLsRLt1OOAbC6y1DSOBW2suzG2/PZ6yP8tLXDhhtqlHXc8uFYCvD/pz8gCbgrmoglcTF25vJVqxjfbVr+PWB0AGsqAD0yXhgJwPqrLGyZ/9nNrUaeUFTmVkXer+ZD70oTzM67X7VUaAJY6l4yASx1/zC07WZZEF3LetOzDPUPcwmBuMXgenzMRniuUliLno7NoW4TwNLuPBPAUveVCWCl9s8SAJllCtO+JvUqyefCfQBONVDSpeFjzRnAwrSWlnNFCMxGqBjHdVlVKeY5HbDlwML6PBTBo14/lkaiihPmqpmIpj2PhIUASwqLhALoXb8S8WFgiF4rIJd6EwEOjqdiyizUbbsnwkG/NIZE8CiXdlJeK4oI93QisHqJBFRJJljgrG+Cs3aS9O/h7g1bLrXZHTjy0htQVtuQ965AjOPZ312FrtXJRAkCV08+9R84HA64PR5MaJwkZQScP38+rrjsMsz//HO0TpmC8y+4AMccc4wk+k5LBLAm1U3Azj/8KcomNaftd9eqFXjull8NaFYJgqR95W5m1tLMLRYKwvs1Qe4hq7Fa8KNyN3Z1EQTXzz4LRfCbzWl04ET8X2VdzYOffPJJ7oJo+g1lNNdsdACLpzD5nnuenL8GgNn2im0M+XhUfjkXuy/D278HwJlyHg2j9G25fIr4d6N0qED94EYi3/dBpl03ASx1j5kAlrp/xgoDi6Pk/UhNGTKEsxfWzfQOzKw8TyaZXVg9XCSzOvUsbQJY2r1rAljqvjIBrNT+6QJwGQBqro42Y/j2vwHsaMCkU7kDWG1tbc1CNP4bCDhNaWYqLQJuqq1AgwwiZDODBCce8PrxjBpzBMC0o86ExZ4aBKBuUf8oEXIfCWDNRt22A1pxIb8XfRvX6AtiKUxS1NeHwJqliPkGMvBZBAGHnHkBarfeVlFAP5v5Trzm68cfwvwP3kQ4PMQ8o/7VcccfhzPOOF3SwKIW1tq1a3Hjddfh6aee2nL5TjvvjF9cfjl23pl6dckA1owd98C2R3w3rdh8JBjEgjdfxPxn/yXVYa+ohbt1NgRLdnso7zcfI+Yns3TIyFC8tVZf9hVDcV/yB/GQekKEXhHi6e0dHU/kOm/m9Sk9QKrgMfJLwYgu4gc7NyL5/nBnJrvfyDH3xR43dZ3IKHq82B1J0T4/0nwGTHnMdPYMJUymwhrQgXnqEh/uZFMwZS3DOotlJoCl7nkTwFL3z1gCsDjSQ2XhYX2zGmV/t/P5SHkApq0fDdmbTQBL+1ybAJa6r0wAS9k/X8o6UzoKWWtfyBmW5F5oBwCU3WDIUXYfvhk2qqF47gAWG5na0nIRIFBkUVF89oaacsx02HMa+eP9fjzRH4R/mKh34kDVdLBEMY5gfx+8nWs1+Ka4RZIALLsT1VvNQ/WMgXf2gCB9L7xd6wsKYomxKAKrFiexryY2NGL3H10IT90E3RzGefvvDZeie0PyvHk8Hvzt739FSUkJyioqsHLlKnzn6KMRTwhtJND1k/PPx0UXXyz1L5GBtftBR2HKvofBWqqc9Y9Mt00r2/H8rdRWBgSbA86G5qyE26W5i8fRO/9NTuIWf/FpMMthx7U1OQrfp5mBReEortrch7DK/QOI14VisVtWr169WbcJNSs2MgOLL6kjdAAq/itnDdGecUG/dUKEm5oqyllB9GtbS80Ux9OBzqqlacUy9Bl1sLgRGw82Rx4rXzo8OdoIoBibTxPAUl9tJoCl7p+xBmBxtAyJPNsghyGpvM9QQia+eGwUPChNAEv7JJkAlrqvTABL2T+UhmCk2jXal5vhSm4DgNIbDD0ywj4+PwBWa1PrLlaLeC0E4UAll7farPhNTTkqsmStsF5mIby314d3g8oaULVzdhsAehTCFcMBH3rWZSdSXsjllAhgUcS9dpvdUdE6pKsWj0Xh7+mCv5fsRP2NwIukjdW5eiCMDoDNasXB512B2jb9w3sX/PMBzP/wLUQiQ8QQhg+e9X9n4cgjj4DD4URffz9+9pOf4JtvSLAYsElNTbjw5z/H8d/9rgRsXXnZ5fjnYwP7igNPPReN2+0EWJX12UK+frx2323obF8khVE6Kuvgbp2VtcMZeunvWJgEYFVZLPhppQfbO/XLPhgURbzhD+GuPpI7FI3sqx+3d3T8LesBmhdq8YCRASy+pBbooHfETf10Lc7RuQxfHlzfP9S5nVyqZ9/0ENHPpU+8lqcA3ISNdRYWX2hDLxGAL1mCd8wcUmjRfxPAUl+1JoCl7p+xCGBxw8ZwnO/LwsO5Ptf0uP45GWRjtlsjmwlgaZ8dE8BS95UJYKn75zM5+sL4AITyOPh9cLt8qDegy1Mc4x6UbNxXUjWfccrAtubWqwRBUttX/Aq/pqYcs3NkYd3f58ML/iAiCrnRbCWlmHLYyRCE1Cy3UQlgudyYMG9/eCYkZ9sLenvh3bQOZCjpbVFvNwLr2hHzDeknTWmbiR1OOAOehka9m5dAs2eu/Tl6upKjOWpra/GXRx6WwgjdnlIsXrwYv/n1r9HZ2YmysjKcdPLJOP3MMyWtrL6+Pvzqyl/imaeZLAY46MeXYuJMHrSnNoJ2axbOx2v3/k4qYHV54G7ZWhJwz9Z6v3wH4jAR/kabFXfW6avbvDwSxZVdffCpsK9EEQ9FEb9m5cqVegh4Z+uysXidUQEsfpxvCyA5vjX3GeA7gaBY+mwJubeVroavAfwUwKvpChb59345lLPI3Uhq/hE5DDQ5LayReph7X6jR9i6J5cOq4oaJwoVkfiwsIHvPBLDU59QEsNT9MxYBLI54Tzmz13YGFRnm84JshfN59p77Y0m3GkwAS7trTQBL3VfjEcB6S34WaVlFfCYQ2Gam0tEQXqw0pl0B3AVgrpZB61SGWebox3dS1Z8FgNV8BATLNYLKoCbbrLi5tgIlOYi5fxQMS2LuHVHlQ+Dpx5yjqE/ETIQ9eoug52HGEhlYNncpJu1xJJzl1Uk1BxlGSAArIWQuD02PqELKTLi2PSl0kIUOPOsiNM6aq8h2y3dfFjz+ED5/93XEEkT4y8vLccWVl2Pu3LlwulxomDgR7e3L8dILL2DOnDnYZ7/9wDBC2tKlS3H9NdfizTfekP4/HYDl6+7Ck9ddjFgkDMFihaNmIkqasieR0I/eRR9CTOg/dw9znXb8slq/8EGyr172BXG/mvaVKPYDlguXrVw+GoUG873U9K7PqADWiQD+CUA5U0Z2ntlF1vyalN3lebtqcANxVN5q1K+iewH8SL/qs6qZx0YXypuX0bwBUxq8GwBjxS9S0Xn4XP6dDK1cMqppnQATwFL3lAlgqfuHeos3GYT9mmsWwuEjpabieQCSN8Za7yz9yy2VQ4aYMET/U+bsxmMCWNr9ZgJY6r4ajwAWGUD7ZaALxcMv6sG+qH3ZGbLkYQDuBpA+A5o+3ackyc+HMeW3tJQxgMUJnNrSchMg8MRBMT7yV9VlmOt0IJsG2DvuoG/t8eLNgHIY4ZRDToK9NLUgdiwSgrdrA8J+HnAb1xIBLLunHC0HfA8WezK5rRAAFsGx0IYOBDd0JIW9uRxO7HvWRaifnn04XabeJwvr8St+jIB/KAyO4NT06dPxxz/9AVarFZVVVaisrklZ9Xvvvovf3Xwzvvj8i7QAFsf9xYtPYv4LT0gAna20Ep6p20HIAXz1r/wG4c3rkvxYbhFwZXU5ZtiVwxgz9dPw8qujMVywqRcRVe0rvCBAvGJpR8enubZnXp/WA0YEsN4EwJTrm9L2PvMCTMf7AwAlmV+a1yuoLXUDgD/mtVZ9KqOeJE/u9U1LmnnfuXEg03p+5pca/gqGbjLLWbp1Show2RU8hWRorJ5mAljq3jUBLHX/jFUGFkfNk8kH5ZP4dPesnveoWt1kXPwCwFfF6kCadk0AS/vEmACWuq/GI4DFzF48EM1E/+VtAHxvEcwarUYxdwJxlFYohjGrIwG0lOzWrPClqZNbj4aAqyGAcZIpbZLNgj/WVSGX4Mm/ef141hdUDIeqnLoN6ufunbJ9AhMBb7eUjdDIlgRglVaAoNxwKwSAFfX3Ibh2OaLeZE3vqrJy7HHKj1FNAEshXFMP/3766F1Y8PG7kpD9oDGM8DdX/xrTpk2Dq6QEDRMbYbONBISefOI/+OMf/oCVHR1wWK3Y7+xL0DBjdspubly+BC/cxgM+CrfbJeaVoyp7XWWGeXoXvI94JJm4UGO14P56Pgv0sZAo4jlfEA+rZx70QhSuWLZy+Z/06YVZ6zAPUHyQH8BMUWsE48PwIHmTrRCcnVM3GftfTLoxO89xke69/yjRcOIrkmxII2p1Maaaf4z9Es1syX5b/hjW+jDmByk3b09m1kzGpU0AS91lJoCl7p+xDGBx5PMAkOE006ChhGReEWSjqLsRs0eZAJb2R7IJYKn7ajwCWGTKM3KB7G2txmQwDwG4RM44rfU6o5U7WT7E47wX2sgsVtx7ZQVgySys2wDh/9QQyYsrS7FHSfYHy6uiMdzZ24+F4dSRLhaHC9OOPEPRoSFfH3o3rC60wzNqzygAVqhzNQJrliaxhjgQLpCtd90H1S1T0TR3ZzjcpRmNL+vC/X3461U/SQojpP7VHnvugcsuuxRWmw2VVdUSE2u43XPX3bj37rvR29uLhtp67HzKj1HVklqW5/k/XovOZbJwe/UEuJu5P8reIr2bJPF2ZnIcNO4cdnc5cFFV9ppaaj3iF/u6aAwXbepFQI19JZLOGr9i2cqVn2Q/QvPKDDzALB7XyZnwMrhMt6JkJTHMpFeHFjhWZrDTP9ODeufJLLteFiHXYZi6VEkqKfWmUtOJdWlSU6XMqENghenix0IoIZmHdwKg/pUWo/7Cbwu0lkwAS31GTABL3T9jHcDi6PkhyBN5fYVEtTwZUpdZKYcm/8WAhycmgKV9Xk0AS91X4xHA4r6ZupiZasAU6gBM++rOvOQ+ckbYnTO/NKcreCjALOL8rkhp2QJYaGtp+RYgXCcAFFdMaTUWC+6sr4Qzh3CsG7u9eF8lG+GM75yr6KGQz4veDcZODtI7/60tYAfDIRUZWJ36irhLANbqJYq+ZCbCrfY5FNX1EzF53m6wOrIHJrUu6ffvvw2L53+cVLxpchOuueZqNDY2osTtRv2EiSNYWDdedz0euP9+KRvh1nN3wpwjT0BJ7UhW1TdvvYwPHn9Yql+wO1E2fQdYnIzoyd76l3yGqK83CQikFtxNNRVotufCR1TuU1gU8UifH8/4g2od7xUgXr20o+OW7EdnXpmhB4j28sPr9xlep0dxpuSk5o9eej7MWsfTBH1QWm0e4QvvfQCk5Y6mDHp8mP5K/jjTNtLClWJoDPWwErP1Fa71/LX0Pfk+1KrPxjS4zALCTase4bbDR2YCWOpzbQJY6v4ZDwAWN1DMLMuxZhLKk7+nSPqaXpZDrz9KX7SgJUwAS7u7TQBL3VfjEcAicE4tpmx0+Jgs5lI5MkD7KjROyQkALgfwkwJ36Ut5/0X/pbSsASyJhdXceicEKfRB8WXyvdISfL8sE9Zdcj+f6A/gKV8AvfHUES9TDjsFdoVscSG/F30bVieFoRV4AtI2513yGWL9A+GdigCWt0fOQqhH1M9AF9MBWIMD8bhK0LbngWioa0DjLvvoKuwe2rAWj13PQ7ch83g8+Na3DscZZ54hsbCqqqpRMYyFde3V1+ChBway0+9+1AmYsvv+sJYkr8HezvX4702XS8LtDI10TWyDq2Fy2vlSKxAL+uBb9gXi4WSyQqXFgocatEasZN6FZZEofr6pV4qdUrEX4hbh0uXLlw8Ig5lWKA+QdszQh2LaP+QXqF5pfXlzMdsfs5YU0wg0EKTjCfhoM4aZUneKQvhGM9LgGRpj7NOg1F5jjPkJMhMyEyFSAnZcS88WaDJMAEvd0SaApe6f8QBg0QN8Pj4DoK5A92WmzXAbxs3ntQCY7dcoZgJY2mfCBLDUfTUeAaxzZHalVvZ2ogd5sMq9HUEgZukebcY9FA8xyUIrpPFQl3I3jARIabkAWGhrbj4AguX3aiwsqrzfVV+JWmt27JNNsTh+2+PFNwphhDWzd0HNVjumHBwzETJ7X3QYoFDIGUjXln/1EoQ7B8Ici8nAinq7EVi7DDG/N12Xpd9ryiswcee9MGliExp2ZKZjfezVW36FNR3J2dxnzpyB62+4HqWlpXB7PKhrmJDEwkoEsPb94U/RvN1OI4C2tx69G8s/fkdiStnKqlE6dducwTj/qsWIbE7OFskb7DC3C2dV6BM+TJrJzZu9+CCknOxA5ANAxE3tK1cU+gGkz6IYXbUeAYDx8xOL1O0n5BcnRaj1QsDJUqFOUGORxshmeQP8WxaRL2I3sm6ah0CM9yfYaEQjKEiRYgrkjxZjqBHBK55+tmTQaYYCUcC+kMCzUQAs0rD5Qt+Ygb8KUdQEsNS9PF4ALHqBH1MMzc+NLq/fquUzkievfJaTyWkEMwEs7bNgAljqvjISgMUQM0oc6G0k6lCagmykbIwgDMXIbzPgu1XLeH5WICmFxL5QEJwawoqWE4Als7DuggCKfKXMDsIG9i1x4vzK7LWTfrW5D1+EUr8HlEAfjjgWjcDf3YmAN6WAvZZJ070Ms9X5OxZJ7TjKqtB6MJN4JVshRNyZ+S+8eQNCG1ciHgpoHnd9bR3q5uyIaW3TUbFd/kNkuxZ/hWfvuDGpP5WVlTj+u8fjuOO+M8DCqq5GReUAwykWi4EA1iMPD4QG7nfmBZi8DfU/h2zhmy/h06f/jlgkIoFWpdO2h00hm6VWR9B//Ys/QSwwlDmR13LXcEddJSbYsgNw07X/ZiCEW3rSZtp8QRDjFy1dufLrdPWZv+fdA0wpTvoxP1ALbQz/4ikGxdX1CqnjGQVPxClYn+v7JBf/kH11KIDRrO9GwIXACanqRjOCn38HwI0Ms/MZ3cjUOE4GsHgPajVuNJm98hod75lUfTEKgEUBar4wjQZUmgCW+grmh9zNAKZqXeg6luP9pleoOrtNsP8lOVS8mO8cNRcykcjFAD7Q0c+ZVG0CWNq9ZQJY6r4yEoDFCId/AkgtlK19ztOVzFSCIFV9ZGKQmcl91GjTFC00gMXnJ/fBH6pNTM4P/6nNzfMgWJhFaXulhlyCgF9UlWJ7Z3Zh6/f1+fCqP5RSoFqwWDD9GLL7Rhoz2AXl8Lt0q7NYv8cC/fAu+kgCUlxVDWjejzqzyVYIAIstxqNhKZwxtHH1gI6TRhMEARMbGlExbWtMmzkbVdvupPHK9MXisRieu+pcbO4fAmnY3rx5O+Caa6+BxWKBp7QUtXX1sNntWLN6NW684QY8/+xzUu7lfYYBWL6ebrx0+/Xwblovsa9cjVPhasgksiR1n0OdqxBc3wExmgy0VlkseFDH8MFzO3uwJqqMTYjAckC8tr2jYyCm0rRCe4DP2B8BuKfADVOLgydG7+n8smRcPBkuxWRfMdsLWWCPFNjHejRHptAdAL6lR+U51kkQiyy385k3QkdGX47dBF+iFMckNTsTTTay+HjfcC0VOvvLT+UTTr62imkUUiQIYrRMapxP6uwRMC+26Q3QZDM+fmAx4UBuOgjZtDzymkL4hyzB1wGMTEOdnzHkWguflWStMsX18lwry8P1vG8OUxNEzkMbWqvgfoFarEZhpw3vNw+S+FHJ/VOxTTULW5E6x3fq6TKbqEhd2NIs95/M/pnMHMh/rw6R9/CZMLlT9YK6Tgwl5OEyQwtHg1GjlXIKZL0Wysj25z5YdV5zBrA4mrbm1l9DwE8EBYEz7shmO+y4piZTAf8BXy0IR3Bnry/lhzoBrGnfPguCJTXDheBP30Y9D4Nym08xFkPv/DfBcXgmTEHjbiQRJFuhACypVTEOgmqhzjVgRr3EbHrpRmq1WlFTNwE1U6Zj+uztUTmM+ZTu+lS/E4Rc+8m7ePWRu5J+rq+vx8mnnISDDz4YbLequkbSwnr5pZdw6+9vweJvvkF1VTV2PfFs1E6fteXad/56L1Z8+p7EzhNsDpTP3lVx7WTS3/6lnyMqMf2So7TOLvfgUI8+TPc/9/rwrLpwO7vztBC2nbl0/dLRwJrIxOWjqexe8ul4oTSiuLFnxsG3AWinU2buUSK/BEb3LyL7ijccgStuqPRimWXumeyv4CkPXwL0K7MTGtGel1l3BGWNtAmjFhtDBnlyx3SymYBBXEft8vXJmUMKMwOFPuFUG1UhAIhMvUrQlABWXvasmTY+rLwR/XOanKQgG5HhHN0x4vJC+YdrgiE5RrXNAM6Un5V6M0TS+YCb0FOKcJCWql8EHK42mEZYYj+Z8YkhoAxVLbYdD4AyEEZ6zzLchQcKZCkX23j/k3nKAzU9jeFFTCCRD4YrdYi5R3lFzw7nsW4eijAy4P/yWKdaVUyAQfbqG+nay8tmYGrj1Mmwx5jqUJGFxUyEh7mdOK08cy2gkCjil119WBxJ8Q4QBDTteSTc9akPnowOYJEF1PP5/yBYrShvnomGHfYbMWcFBbDk1uPhIGJBP0IbOkZk1Uu3qGwM66upQ8WkFrTO3h6NO+6R7hLV38P+fjx22dlJ0JDFasHee++Nyy7jYQ4kFlZNXR3uu/fPuONPtyMYDGLODrti1uHHwVU3ELa84LXn8OVLTyEsh/mVTt0OtvLc93vR/h74V32DeJBEkGT7+4RqMAthLtYXj+N1fwjLolEE4kMQ2ZfhCHhvKJvwlYj4L9o7Ooj2m1Y8DzB+mg9kCmHrbS/IL3Rm49MTvOI4eLrMEzD9MhSk9xZRYzJtkoXy0l9n5BIVMmuPjAqjGgXdPwXADbYRTtIZwkrmFPcgrVk4rUvWICN1vRhmAljqXjeSf6bLzxu9NAWzWX/nyQCfERhJfB4zbF3vj26+V5lsoZjs33RzxY9VHq7wWVlM4zuF2ZCZKbjYRrCB+wayeY1o02Tx6JFsgsL3lgeRBO6NdADN+4172UIBGmpe5z6X7329k1PxmU+pDB6M5cPmy0z2/+WjMp3r2Ff+pshfaJV6hwmMcu+bVpA7ty/rhE5Ma24+OS5YbhJUxIonWC34ZXU5JmWhB3RZVy8WphRyF1A2eTom7nxQSpeEfH3o27gWoqj3uzTLJZQIYLVsjYbt9xlRUTEArMFOMLMes+oFKfAeSKu1lNR3q8UKT2UVKhsmYcoOu6JlZxJRMrd4JILF/30MH/6P3+ZD1tQ0CaeedqoEZFmsVlRX1+D+++/HnbeTeQjsfvxpmLrrPhBsdvT3bMYb992GzauXS1kpHdUT4G7eKmfhdrbj71iIcPdGib2WaFvZbbixlvuGzKwrFsNrgTAWhiOIiPw6FLE+Goc3Hs+IYiKK+BBi7Nz2VauKwSjIbNBjv/QBACjmljrjRH7Gz0MEPvy/0jlskL1lyBNpvsX+eGAoyTv5cZ+haiGyzlNOnlQb1fgB/6YcbkfBzWLYNrK+HDdZ/PDI5gOeLzaGCCimay7AwIwE0HATQvamkTZNRvIPT6MJBhhJx8RI/qFvrgTAcFS9jZtKPoOMbDxA5PuymIcsPMUliFasZDKJ88P3BjXt7jPopJFt8yIAhhIW25hUg+9WVS2gAndyKwCUDdIve5f2AZE1wERJjDrQ05glmmDT7Dw2Qk1i7qGp56echSuPDWZZFZmbFKBPqXOeZZ1KlxEk5LuDAF9ayxuANauurjTk8bwLEdxQpjSbAMxzOnBZVSayFANV/amnH28HwykZJ7YSD9oOJ4N6pEUCfni71iMaLsS7NK2/RxYYBLAsVpQ2TcPEnQ4cUaaYANZAZ0TEggFJ3ymweokMZGk/fLQIAkrKK1FaXYutdtoDrTvtBdHBsFqNJoroX78GT9w4wLYaNDK9Djr4IPzsZ2SSA56yMjz04EMSC4u218k/xpQdd5f+++1H70bH5x8MCLdTGGXrXWB1MeIkN6N4u2/ZfJCFNdxuq61Aq13b9xR1rF7yB7EoHJXWeFc8jv64mFPaOBHwCRA74nH8dfmqDmYgHAshVrlNWPGuJvWUmfr4wtLDeJpJsXjqbegdrsANA4GVuUUO6eGHttE/XnKZa26a+HDjC93Ixg/5zwF0yKEX/Ftv40ko76cdADCUNXNq90APea+QIlzMDwSCwARFipHoIdU8EbyiXk5mJ1b6zriRABpmaJwBQLtQqL6+4SbjAvmUXN+WtNVONiNDbQrhHylPjkHYIEre4fOR+jG3q6WE1+barEtNAkDWbN6++bLuycCFPFTlmuWzxmjG94FR+sU9Ow9XXjWQkyiFwf7k/gGVn0FRJ+y/Ou97+ZxhgqDt8tPlLbWskPfSj2thHOW5ba3VUcOXmdT1Nu43+F3BsFBNrP68PswmT548xyFYn4OgLCRZZhHwbU8JjivNDMz7LBjGnX0+dMZGHgpa7E5MO4qh5iONgIWvp1MSczekJQBYnsYpaNyFz6pkKz6ANdQfhhZSFyu4brmkkZWJcbG5Ssvg9JRhxoxZmEugs98AACAASURBVLrPIbDXaTsQCvu8+Pi+W7G0fXFSk83NzRILa88990BnZycefPBhvPrKK3BZLNjt5HMweYfd8Mkzj2HJO69tCR10t86Go7IuL+yr4IYOhDauGiHezk4+PqEaNpXwQV9cxNvBEF7yh+CLx9EbF1MmKsjExwpluyGKj1stwi2LV6wYSHlpWjE8sLWchYQZo/JpBK94wlsIYW1mdyN9nEh7dlk58jNyts9TNyOxRPIzsqFa+MgkiMWNPsFJoxs/1PiRxI0IP1BIA09+YOc2Am6YGbLItc7TcQI/uQoMMuSQ4QfaT2RyG0Oqq6nbxY/w3OPZ89M3bh7rARhl0zRFfuakPqXMz5gzrYXpov9R5HUz2GdqEP5OTcIj08Hlofy2MhO4EPdVW5HZTVrcRT0snsAyLfxIrQktNWRfhqfFfH8wI7FRjAcH7M+dBnrO0DcMmWBoHA98jWKPysLffLcawYwE8NEfPLTlnpqHaHoaw6J5aJtv44EID9AYBl6Iw79M+s8DQkaOpA5xy6Sm9GXJ8uJBHp+VmiyvABbR/anNrQ9AwPcBpKTYsMEZdhsuqSpFjTW18HqqnkdEERdv6sWKFBnXCGBNPfIMMDvdcGO4WKBvM/q7NmhySMELbQGwLPA0tKBx98NHdMFIANZg58jGIvsosGYZIj28/zIzh90Be4kbFZXVmHf8aahq5h5E2TiP3Svb8d9bkt/BFHD/1rcOx7nnnYtXX3kVDz30MDZu3IiWmbMx98gTEIWA9//5ALpWMRmfCMFZgrLp24NrJh/mW/4VIj0jw9MPdTtxVkVpShVhsq3+3OfD6mgMgbgIv5gb00rjOAIixCeionj9ypUrSV01rfAe4AOPTAI+pPOlG/WkLBTLU2+9bZ7MBiI7Iz83UHY9/jYAColrOqXJrgnDXMWXGoENaqjpxd7L92D50UowixsRzhG12BgK8R9ZRyKTkw+CFtSQIcuKviB9m+BVPvYuZNEsLTIIwecAnwmF0MfLZJ4paE+Wm95sTi19YggNs7hQ88goxrVNkMYIGYJ4fzChgja6d2E8yCyWzNhViPXD9ypBPIbiGNm6ZRYWRacLyW4kKEPwI/PQF329SYYes5sRCNY7i5zWkcyR2VeZa39obSHzcnx/HiUf2BU7ioIHagRiOW9GMe43yMCi5IKeIJ9eABb9yH0Sn5mUQiAryyjG7LbMpqr3YTVBWq6pjMCEfGwCkxwthRK6ParCinzb7ORy4NIMQwkv2NSL5SmE3C1WOybudig8DdzjjrRAXze8m/ROUpDleksAsNwNLZg0SgCswdESxIpHwvCvWICYP63m2ggnEXS0u0rgsNmw94FHoGa3/SE4Ux+q+zZtwCs3X47eULL0BFlYp5xyMtasXSuFEBLs2uXYkzFjjwPw9t/uwYrPPoAYHyBqlM6YB5uH7/Hcl364e4PERIuHRmpl319fmQTQ8gm7MhLF9d1e9BNUjYvFoI6ERTH+e9hsN7W3txeC3p/lTTGmL+PipignhSfzYTzRLYT+EEWyqa9FxkoxU9kT4Sd93ciaAfmY1+F1cEPNUEJmrxltxscfN96M4+e8ZcKa4/1Curb20y5t3qFeVjE1adhLvoS4QbzfQOEYid7jaXA2gvjaZkBbKWa0I3DL02mjGUEsgkfUHiyWfUfOWJpdim99e01wj/NXCGPmOGatypfIsl595jNwNQAeBvXp1UhCvXxXsz0yKo1oBPJ4GMV7nEyaYhqfdUziUag1m8lYuVZ4cMfQxkKAwkp9I2j/QR6Yz5mMXUtZAkAEfsjMX6nlgizK6AlgDXZnEORmyHGxNRaZUe4h+fAwC3dpvoTaYjygzVirOfev+BR9bG1q2sVqtb4CCIonZszMdrDbiR9mkJXw55t6sSwSHcH1FywWlDXPxIR5PIQZaQFvN7ydowDAmtCKSbuR3JBsRmRgDe8jRfIJ5PiWfYl4OLvkZxRi51xWl1XggB9fCoecPXCwLTEaRef8j/HCw5QSGDKCYMccewzKy8slAIu22wlnoHPFUiz78K0t4JWzrgmuiVMgWPNzUCmJt29eP2K+HALwYH01PBZBWqsfBEK4tdeHOERJlL2oJopRCJYLlnUsT3ZiUTs17hpnKBTpsifnYeSFALAIkJHqT50hSx76nG0V3JzwI6WYG7hs+56P68h6u3aUglj5GH8+6iBdliK9BGeK+TSmqDLTtFPjTO/TzVz8xlOpI7WktM6lEYVrCcoQ6L9eBwAzX90lIMvNJbVRCnkoRGDiOAAPFpkNm86PZNY8LLMj0pXN5Xd+y8ySwxZzqacQ1w4yVAnc5FtOILH/BGTIts9Mr6UQHkhug4cbBCB+Le8zMj8Jz73P1DJZKIcQ5l6bPjXwWcOPfAJZmbCY89Ub6toRxDEak29wfIP3FQ+ImSE73wBQIQAsjoX7W94DBOWLFWXAueZ7l5INuuBE8qQxscTlMns24/2Ybh2b2tzyCQSBp/WKbWzlsOGc8lK02LUdrv6lz4fn/aGUOkFqQu6jA8CyonTS1JTZFEcDgJX4hIz6++BfvgDUy8rVtpo5GzudMyTe3r12Jf772yulcMBEo6A7gaxIJAKPwwF3bQO83l4EvUOHXGVb7QRrSX6iEEKb1iC0oUPK0Djczin3YH+3E28EQri9N3/MaI6PIZPPPPccpk2ftiVkloyzlR0d+OGpp2H1qlWIy2wzFd93CPHY+UtXrSrmyXGuS2O0X8+0vAQRGVuey3OYLziCYfwQzvgFoOJE9oknkbz5ii0uzXERvOJJTSbsndG+RpT6T70bhp1pe3GOVS9kNi6uG4YZMPtVofUEeC8N3uMMGaSGF9l0xQSDM/PewIaaHwX8OKDxnszn82awP4O+IiDEsLhCpe7O1B+pyvP0nCfn+fZR4vohiM0kGg8YLKQynf8IUjBbLBljZK7psX4YWkwmT3K2n3Q9K/7vZIycA2AwzXY2vklcI/z45EGPNoHZ4o9/eA8IFBwtM8f0eNYk+opgDLM2G5F1pTYzBNuoxzR4mKfHvmjQT9xnMLTN6CG6w/21QD6sGvwQzdVHhQKwEsfBZ+beOj0vldbXZFmf7gwdHw18xjFSj9IJ/8q2nVw+nNK2ObWllSdSqtTmPVwO/KyyFHYVsevBhpZGorih24uuFELuagBWyOeVMhHGo8UCM1VclZiFcIwAWIOjjfq9CK5dhpivD2RoDQed0i6ghAJWqw3T52yPOUedgGWvPIPP3uO3bGqb3jwFvoAfazuHvlM8U+bAXlGbF+H2eCyKwKrFiHSn/g462uPCs/4QqNuWD3M4HLDb7bj5d7/DfgfsD/5/KiOQNf+L+TjlxBMRCARUgSwB4nlLOzr4gTBe2Sz5mJpc66AgOlOOM6tLLmAEPw4oAs2TDCKq2c4p3wf8QOIzmyfDBNhy6Veu/hk8ieJmdixnG8zGT2Tv8WONKa2LOUfZ9L3Q15ASzM0YNbhyP1VR7j2ZlcPngiAVRdp/IjNEdN1zFcCxfKnxxUcAhSL9g5osfO5oDeulT+irRF/w3xj+RfCBoH5+TpoK4BCFJsiQoI/4fB+kpNNX9JOSjo3a+iHAQYZRMcO38+VNrhNm9CIQ/3JCpfz3XFkTDHF6fxSwjpR8SaCYB4sEQhP11QZDr/l+Hv4M4b8x1T2fcdT1y0+IQb5mO7d6mASEwPkzcjV8/vAZnm6PQx/QL8MPCRg6Tq2dQwHU5NY1Q1xNf5CVxQOtL+Ue8fmSSaIAhumneq6wTrLvuaZGsxG4ItOH2rPvJQyEayiTcKFiAFjsLu/9P8gZ+thnvfYwvF+2AfAEoJyILw8LgeuTiXMuyTW7pq6bqbbm5gMEQXgBEBQfqNztHeB24czy/2/vPKDjKK82/M5sUbfkIstWLwZswKaYXgwEsEPvYDoGEupPCJBKx5DQTO/NNiVgSggm4NBMixN6CWAwVu+9SyttmfnPHRXL2pV2V9oqvfccHdmab77yfLO7s+/cEg+rDyLWRQ2tqPGQyN0QsA4726NA4ZDQtub6wSp0AdiAUbuQvFBGQnnFhwesE1jAGoCkOXqNSn325jpAcxnJ30Npakw8EvJ2GJ/3lSRa75+75L2yNwU3JFVVVSQkJCAmJga/veoqHHX0UYiP961qbVlpKW66/gb897//hd0+wncKHRW6ol9YXFb2Zij3gmO5ERARS74Iiog13i8nkuvirwCkKqF8MIv7n7cXm6ih8hRSxpYbOslzJWWJw23iOikfpOLGLAnAae4EZL9EuJQEr3ITGtTP8yjcAHkNSHEDKSoTirLo8rRUXsc+fPBHIc2Rpyyigwg18gXBF5OKLVJ1aSJ8gfRlvQNtPu9nNFS0GXr++v6n7ZNRkJYvZiLaSBjZeEw+zyTkdc0EEvblyftd/Tl+5PNZXjeT9b1eEl1LHsjnvVwk8tBArqVIz4k2nmt9pHPls25/PzoWwfSICfR68WXpcl/8cv/DJV/aS5twCVgD8xPhSh7CSeoBmb/kj/NHgPO0TrlXkSJB8tBa8kxKxetgmryXifeJCO7u+Xf8HDnob4L5ublvKTokAfCIlmpScWJiHA6Jj/X6KHkkAcsUE4/sg06ExUjQvbWJx0xXayNsbT5XZ/QT49bNexsqoagmmJOmQjFbjbxOI5kkF2/79kOjfWJ6HmbvucStabSFEI621t6majiaaiBVDA2POPHMCqIJ1/j8+bAkbV30zfAI0/o9tfs9pcSDyfBsNxyn+r2n+o8ZIlxjdV/FwSDOOSkpCckpKZg6dSou+b9LccCBBxreV/5aeXk57l5xF9a98QaczhEeVum4MCYxfuXGjRt9fXLu7zTY3jcC8oTrnv5KSoGo7icfdHJT8pgPCS337vd6kKf7kWDyZVhEB/Em+1sYcwBEAgtf5yB5sUR0lKfLkZxPydf1jLedfKhIriu5/qV6XXCfNmyZbbhvcMfLbazny820vH/5WmBArlN5Ih6puVTGysHbeXJ9SOjoSA+NJuv1M8BNBCzhM17boT/vliRKnygmry95QCXv9Z6rHE2UlY6+DvnSK0K5eDeOZvIF+dr+z8TJQWbLKuVByn5+LFpCA8XrdbKZVPD252GtP+/P8pkoX7wCcT/vaV/knkbubUTIlS+rA95k4sEp99DDv1gPRFeIZ7PkxJP7RPlbKoBnAEjYcTBN5iMReXJtSkSFtwfrPs0l6ALWgYC5IifnR0CRm5YRbZcYC85KSkCel3xY/9fQigoPHliqxYoZ8/dBSp58dg03Hd1tzehsCk3qC1vlZhgilsmC2PR8WFNSoZjFCc0dt6u7Ex2bPjc8x+Kmz0LWAe45HSeKgDV0V6RioXhluWydRq6sYHllWafNRszMzD5vuCHCk6un20g6LxUU4XIYlQt1l7PPy6r/N+S3y5unsk+vs1EbJSYmYmZamuFtdcSRR2LpaaciJUXSOYzPvv/+eyy/4QZ8+YV463u0DxToVxSWlckbMy28BORDRT5IpIqDb6524Z1vMEaXErqSu0Nu1v8TjAEmcJ/yBE0SOkveSSnHOxm9OGR7Rbgq7PcklCTJoTR/bnBDOa9gjyU3p5L3iQLW6KQpYI3OJ1ACltxoS84e8VaQ6q0TwShg9e0iBSzvVzMFLO+MpEWwBCwRkCSvmkQOyANiya8WzPsx+ZIq9z0SHil59GTs4SGkIkCIOCLORFLERryggzmnoTsgYpU8sJJiHhIxEDALuoAlqk1uRsZOJrNFvpiMmg/roLgYnJEUj+mmkT2Wbm/pwGe9djiHpRcSL6eE2XlI30tCm92tT8Aat8eaT+Bt1cWGODMgmMSk5Rj5lySB+HBvrO6KTbA3ilcsYElKQd7i093GiDgBa0g4nSE8DSQNF28lOeZHblfxxOqpKYXLFoTCI4qKuPQ8owqheH7pHhKu+7ShQWgUFxeH7OxsJCQmYOdddsU5y85BekZGwEd6f/16XPOnP6OuzrN4q+jKyYXlJRJyFlxXuICvbMJ2+Hj/h95kym0kHlfF/SV7JS9bQJ7OTNgrZPSF7dv/5FmuHxGyQvEZHwmo5RqSMtpShlaEvMBVz/B9dRSwfGNFDyzPnCbr9TNAI1AClvQniYjFA+dXvl2SEd+KAlbfFlHA8n6pUsDyzkhaBEvAksqf5/TnJhMhXfI6ymdeTghFI98IBL+VFBsQz1HxuvInL5tPMwvJzW1mZmZcjMl0O6BcMtoNtchWv4yPxclJcUgZIezune4erGzvRreHBNmWxGTkLZGcc+EVsBxtTeipKTa8iwZMtcYgdlYeLOKNZdqSEqz1mw8Hha6R5h9UAavf80hzOQCXqy/Z+kBo3QhClOZy9XkvDfw4ew2RSPJbGTmu+oUsn67AIDZSLNa+NYU459ZIS5JKiTk5OZg1exaysrNxzrJlmLONFKMLnrW3tWPlk0/i/vvuG2EQ/U6XoqwoLS0NjbobvKVOpJ5366/OcfAE98YSl2L5gHujP2F860TaxDCv5WQA5/aLWPPCPJdgDi95AaSajYRlifgbGjdrzyuarAKEPPyQL9iSHNkXo4DF68cTgUAKWNL/Af2Cdq4vF2WEt6GA1bdBFLC8X6gUsLwzkhbBELAkx5Pczw4NTRRPp8P7iyyI55OE6030KAvxPivrD/eVfJdBsZAIWDLzuRkZ0+0m8wuKokg59BEtSVVwTEIclsTHQv493GqdLvyhqR1tA14/QxqMJmBJ/iupRBgqkxDC3rpySO6koSYhhabYBJgTUwzRp/17ea/pM5l/7qGnGvmwhpohYDXU9IlLPpsOzeGA7ujtD4mTc92r4umGGNUNp63DEKSM8DlXnxBFCwwBEa723mcfTJs+DUcfcwz2X7QIkqQ9VLbuzTdx43XXo7FRCiMNN71TUZSjCktLRy7rGKqJcpzhBMTdVj7wPLuVRi8vSdAulXPk5xEAJdG7lIifuSRVlApmMwCId9ZEMfG4kqTYcg090X+zFO61UcDybQcoYHnmNFmvnwEagRawJOLjwv5CIKEKl/HtFeB/KwpYfcwoYHm/dihgeWckLYIhYIm3kVQclr49meQmk6Iy8hm4M4CZvk01alr90B9NIV7wwsBddAjgUkImYMmc82bPzlGtMS/0V+oZcRkZZhOWJsZhz1irx8qE59W3oMnlLuaMJmD1dLQaApbhKRQK0zX01JUbubAkTG4rU1TEzs4z/t5bXz54yBwbj1m7H4L4meL9vMWMuTeKgLXlWjCSoNt7+hKhG15Pw9al63B2d0Lrbofm6IHu7MvvRAsdARGpfnnYL5GUNAW/++MfApLXaiyzr6qsxP333Y+XX3zR8+m6crZL1V8sLS0NVnnWsUyb5/QRkBweD/VXColmIUvevERBlVByyVEk4px82NOCT0DUcvHCksT48uRP8mSJO3u0meR6kFBTyafwU39p6Ujy2pusAoS8tiUHFj2wRn9FMQfW6HwCLWDJaJKD5k4A+0Tbm92w+VLA6gPij4B1XQiSU0fiZUUBy7ddCbSAJV/CJXerLxUg5YGieMjvBEByx0jBCUmwHo0mAofk35JcSM8BkKIAISkMFlIBa+HChZbm+vqDVMX0BBQjRn1EWxBjwamJcdjWanHLNDaigJUwBdkHnQRTjHuRDrutE53N9XD2hu47unhfdZf9CGdHi08XpeTHik/LQcY+hxueUPaudji7O9DT3gJbW5ORX6rPdLjsvXCJOCVhfP0ilk+DsFFICCw64ABkZWfhT1dfjdjYwBWNkYqCra2taG1pQX5Bgc+eXKtXrcItNy2H5kHA1XW8DU29tLiyWNw+aZFHQN6n5f1Squ9IOU2pGDP+LP+hWae8af0TQFW/p5UIV+HITxSa1Ub+KFIyWSqFSCJPKccu4aqSKyuSTa4XuYYkyb/cIEr56+BX1/CfiFRQi3SW/q/K+xnyGn8XwEvemxotpPKRsJLCFZPJ5GmlVIf9boRFCxNJ+DtZTYouCJ9AmnheLQJwSiA7DUNf6wHIF4ljAGzJQRKGiYR5SPHelmtkS+iK5wmJcHnEBPRw8QW/PCC83ZeG/W0uBxApVaj9mPa4m8oDBank56t5e0Al6Qwk7548cPbHxBPrxP7PRQl3ltDnYFUv9Gdeo7WVz3zxfhePK0kFIrlHJXl8SO/LQipgCY3s7OypFsV0KaDLl7FRN2mvWKuR1D3TvLX370gClngwpS08GAmz3O8hnfZedLU0oLdL3v9CZ13F38HR5il0y/MczHEJmLrNzoYo1dvWBHt7E5y2rj6RihbxBEwmE5YsWYLzfnU+Fuy8MxRlbC+xjo4ObPzhBxQVFaHHtkV03Xf//RAfF4eGhgbstPPOkPF8sffefRe3/fVWFBcVeWou2ff3KyorY+U3X2CGr41cTLMBSIloeWojXjVyc24J35Q8jiyunmv7k2rLvyVM0OOFF2HznkzTEa8suYYkxFCuIxETpEqN3EyNWmwlRJDEs0q+qEiooNwgyTUkAlYkm7w+x/aGH8mr8m1uckPrT7hA6GLofZt/KFr5yygUc+IYJDBRCUzW92N/32fIybdXgIjI8/ubbvEm6fvckx9JhSH342MVcWQfduwX2+V+TB70HBVBD6vlXkxEK3F0kNxIUvFQhGSbb/gC3yosN1tzMjIyNbP5RgWKuNCNaoviYnB6UhzShnxR/01DK8qdLre7JdVixdQ5O2H69vJweWuTxONdrQ2QXFihMldvN2zlm+DsjKQoh1CtfvKNI5UFDzv8MJx55hmYOm0aMrKy/RKwaqqr8dlnn6GqssrwsPr666/x048/wmaz4bDDD0duXh6OOvooFMyZ47NwNbALzU1NuO/e+/Ds00973hgdF3b22p6tq6ujd0x0XLrWfvdjESAS+nNlSXx9epimL/mIPgUgb3byAf63/lBBf77UhmnqHHZIaOFe/WGr8pRfvLVE0JKbtmAnHf25//qRsFK5fsTbQNzRI1204sVDAiRAAiRAAiQwsQlIYRwRlcQ8CVjyoE1SJAXK0vrzZcl9mDzwkXt7uT8LRVEeCYeUqAlxapBk7CJYNQD4NwCpsrh1cu9ArdjPfsIiYMkcs7Oz8y2KKjHvS73N+YA48cRKQKqp76HdPa2d+NjW61ZrXVEkBC8LGfse6d6lrqOrtdHwwgq2SVifo6PFCB10dra458AK9gTG2X9SUhJmz56N9Ix0pM6ciYSERMTEWGGxWhFjtfoctjbaNCSfl93uQG9vL3psNjQ2NaKstAwlxcXo7u7eKt/XOJfj9+kZGRk47YzTRzxv/Xvv4csvvnQ7npCQgAcfesBgJ55XeXO28UnAKty8Ge+9+x5+3rQJX3zxBUTIGgj122fffbHrwoU45thjkZObMy72Dz3wIO66U9JBeDL9a0XTTiqsqKCnjN9XTNhPELEhrz/fh3zIyfu6hBiK8CAfeBJ2GCgTgVNCYCQPkeSjGHANlReEiFjyIU7RKlC0w9ePuHbKjZNcQ/JUcKiAJddXUn/OBvm7JCKVmy35m3hVy48IrHIdSC4EcXuWD165XsQduaM/jHTok0oJe5DrRwQsJmsM375zZBIgARIgARIggcghIOLHrP7UD3P7pyX3YZKfRvJpSdiZCFsSgu5L+KEIVJKzSsLa5Tuf3JfJfdpAuI/cg9UA+ARARaQIVsO3I2wClnzJysvIW6CatVsARWKVRzTZuf3iYnBOUjymmVT8q7sHT7V3wz4kqfnAyTEpM5BzsOdwd0PAag78A11JDC9eVs6OZiNPleS+cna1GxUAI8VEUBGBZfsddsC2222LqVOnISkpEWaLe/RRQnwCZsyYgRmpqZg6baoRsibilVTTs1gs4xJRBniIgCX5nOx2uyFitbW2oqamxvA+6umxDX4DdjocqKyoQG1NLT7//HO0tHjPJ2ayxCBmaiqsU6bBFBMH1WSGiJsDwR0Sjtn04+d91RY92MLdFmLNy5JmxbO9+/Y7uHvFCmzaJNXbt5gkbX/yyScM4U8sf5ttRxWwRKj617p/4T8bNuCzTz9FV9cW56f09HQsOeyXOPKoozB33jzExPjynjT61fbqK3/HijvvRG2NvC+5m0vBLqWlpd9EyjXLeYyZwIDAIJVORIAYHhIm4oJcUPLhJ28A0l7eZuUFIR9sIizIB5m4Bg9/kcjfRGyQJNryoTdWd+kxL44nhp2AXC/i9Sdu7nINidAlPyJmybUlP3JdiYAlAqe8sckbt7igi4ded/8PhaqwbyUnQAIkQAIkQAIkEGUE5D5M7uOl0JOkFpGH2PIwUe6/vJnc5w88VJSHhnJfJvdpkSNaeFtBuPM1bL/99lZ7R/dBuoobvFUmNDIxxlmxbEoCWlwa/tjUDlsECFiaww5HawPszTVw2TqHJFr3gX6Am4hINX/BAuy+xx5IS5uJKVPke2u/RqnAEEGysrIwOz0diQkJiI2L8zsULcBT9tqdzdaN4s2bjcTlhYVFhsjT1NRkCD91dXWD50v4aOLsPMSlZkA1W2BJmAJzXCLk74pq2kpIEuGq6I2nIHvnybwJWDKH6665Bq+96l4p9ZFHH0Fubo4x3mgClnhbiTfU119/g6bGrXOk/fLww3D0MccYnlciJAbKpBrhijtXYO0/PFd41RVc3GO3r66urpYvmLSJS0A8tkRgkJ+BhLDyRiGCg3ywyY+8OER8oMgwca8DrowESIAESIAESIAESIAEoopAOD2wDFDbzdguyRlvOxVQr/FWmdCiAPvHxuCsKfG4pL4VXREgYDnam2Cr+BmaPXTVDcU7Z+9998G8efOMXEviGSUmoomEr2VlZSMxKTGg1e/CdVV3dXaitlpCcbdYbW0tnnj8CXz8sYTj9pk5NgHTt98dyXmSh9i7Fa59wvCU82QiAj61ehWmTh058krEq/vvvRelpaVbdXHuuctwzLHHGOwlB5aIhENNvM6+/fZbrLj9DsPraqjtsusuOOKoo7D//ouQl58XEE+3of1LWKKIh9AGvgAAIABJREFUZo88NFLhDf1HOMxLiqqLxGWURgIkQAIkQAIkQAIkQAIkQAIkQAIRQyDsApaQmDNrVqpuifk/qIqU85Q8GiOaVQH2jY3Bv3t64fCQaSUmeQayDz6pL2RsmAUshFBRoJpMRmiavakW7ZulumbgLTk5GZIDaa999sbMmTNhMfeF+yUkJhheVNOmTTOEEgldm6jW0d6O+tqtQ946Ozvx+tp/YtUqqdzZZ1K9cfq8PZCc51s12MqPX0N3vXhOultBQQH+ctutWLibVJj3bG1tbfjj73+Pd956e6sG4uF254o7kJKSguSUqZgxUzw6+0zEq2++/ho33XCjUWFwwLKys3Hc8cfj4EMOQX5BPiQZfLDsgfvuw4P3PwCHw2NVS113qdsVVxZLlQkaCZAACZAACZAACZAACZAACZAACUQMgYgQsIRGbm7uLJOGP0LBhd6SkFkVxWP+K+nHmpSCjH2PMkLIhptUIOxsqYfkrBqPiaeTNT4RCVNTjTA0V7fkpB2buew9aPzhU9g7+nI7iVB10SUXY9vttoPFYkVqal8uKgn/m8hC1Uj02tta0TAkVFDaiSfRp598ihtuuHHwNH8FrM7qElR/ss5jyKfwvvDii3DOsmWjburyG2/EmudfQE/PFu87k8mEZ559GtOnT4fJbEZufoHRh+T8qqiowAXn/wqbf/7Z8JaTPT7n3GWYO3cesrKzDNEr2Pbeu+8a+bt++lFSGLmbDv3E2ISE1zdu3Og5vjLYE2T/JEACJEACJEACJEACJEACJEACJOCBQMQIWDK3vLy8NNWl3wQF5/cnFfZ70yTv0cydFyExXfKZbW09nW1GFULXCLmP/BlMPLBiEqYYIpZ4Yo3VREzrbW1A+ft9ScOl6t/v//AHHHfC8WPtckKd19rSjKYG98qRX331Ff70xz8PrtVfAUtzOVH02uPQdXcx02q1GgnU77733lFZfvvNN7jxuuvxv//9b6t2z/3tOcyYMd34W8G22xm/RXSTnF3FRUWQKo8DSfXTMzJCGuop+bb+estf8I9XX/W4Nl3XPjM7nUf8XF29dWKuCXVVcTEkQAIkQAIkQAIkQAIkQAIkQALRRiCiBCyBN2fOnFTd6bwTOs4aC0zVGoOpc3bG9Hnu4V92W5dRhdDRK4W0xm8SpmiOiUFs0lTEJY3de0ZyMUlOJrHExEScvHQp/nzN1eOf4ATooaWpCc1N7lqKu4CViOnb74HkXKkk6pttfvXhEb3x9l+0CCufXj1qRxKGd8lFF2H9u+9t1e7ee+/BdnO3M0SqAQFLGrj6qx6Kl1a4rLurC39ZfjNeeOGFkabgMGuu3E0VFVJilUYCJEACJEACJEACJEACJEACJEACEUEg4gQsoZKRkTE91mR5EApO8ZeSVJxLTM/H7D0Xu53q6O1BV0s97N2d/nY7ansZM27KVCRMneEx95a3wYYKWCJuSN4rb+KJtz4nynHxvhIvrOHmWcDaHcm5vuXAkv5GE7D23W8/rH72Ga8YL7nwIrz91ltGiOCAnXXWmTj5lJNhsViQN2cbn0I/N/6wEc89+yy+/OIL2Lo9FwFMTEqCJPA/dPGhOO6EE4z+/bXOjg7cfuutWPPCmkFBbXgfmsM+t6S6+uf+qnT+DsH2JEACJEACJEACJEACJEACJEACJBBwAhEpYMkq86dOTcaUKU8pUPyOpYubMRtZB7if5nI6DA8sCSUMtIm3jWq2wBwTh9iEKbDGxUOELV9sqIAl7SV5+JqXX/Ll1AnfprG+Dm2trW7rdBOw/KxCKB2WvvMC7O1NHhn6KmA9+/TTePihh1FXWzvYz7bbbovb77jNSMY+OyMT8QkJI+7T+++tx0033IDWtjb02GxGovehYtjQE41rTFWNfGjyIybhjuItdusdt/t0LbS1tkAqKK5auQrl5eUez9E0/QHdpPyutLQ0dKU1fZo9G5EACZAACZAACZAACZAACZAACUxWAhErYMmGpKenx8dZrKLkHO7PBsVNn42sA90FLMlDJAKWrd3do8ef/r22VRRsBVZVYbZIqGEyYhOSoQyrGuguYC3Empf7cmJNdmuoq0V7m7vgKHmnrr/uBnT3eyuZYuIwfd7uSCmY7xOyjqZatPz0JXpqSz22332PPfDwY496TawuFREvOP98I6n8gInQ9MrfX0ZCQgKmJCcjNW2W2xgiVP3rzXX43ZVXjlQR0O0cqUop4qZ46O20805GJcqpU6caopav3ljNjY2orqrEfffdj/XvrR+JlUM3qanFxcWBV3p92h02IgESIAESIAESIAESIAESIAESIIGtCUS0gCVTXbhwoaWtqekNXcchwNa60EibOZKAJe1FwOpqjYz81CJ0mKyxsMbEombD69CdDmNJC3ejgDWwt/W1Nehob3fb6s2bN2PFnXehpKTEOOargNXZXAdbW4uRvN3Z2YrOzV97vIwKCgpw9bXXYtGBB3h9zzj7jDOx4d//3qqdCFiSz2xoJcKROhIxS/JpiYkQZTaPvSiAt8mKgNXS3IR77r4X69atG7G5S8HU0tJSd9c3bwPwOAmQAAmQAAmQAAmQAAmQAAmQAAkEgUDEC1j9azbnZ+esUxTlINEqvHGIFgFrYB265kLn5m/h6u5zeNl1oQhYLxlJwCe71dVUQ/I2DbeKigo8+sij+PzzL4xDqiXGSNyfMmenLU3781K5XA50NNTC0SO5pbbkqpIKkG3ffugRcXJKCs4860xcfsUVXrdg2Vln4+OPPxrateGBJQKW7GH+Ntt67SNUDQYErHvvvQ/r3lw3YriixemY8VNVlef4ylBNluOQAAmQAAmQAAmQAAmQAAmQAAmQQD+BaFJITAU5OW8ByiJxVBltB6NPwNJgq/oZ9sYaY1nb77A9Hnr0UWRmZk76C7W2ugpdne5J9+vr6/HMM8/i7bfeNhgpqhlJufMwJW97Q6Jy9toMwUrrr/w3EsjWr98fkfGhSxbj4Ucf9boHN990E15+8SVIOOGAvbDmeSO8L5IELAmhFQHLyIP12lq8uGYNGhs9a1QuzXVsaUXFWiZy97r9bEACJEACJEACJEACJEACJEACJBACAtEkYBk48rNz3uj3xIobiU/stDRk7n+MkVR9uEVSCOHg3HQdvU3VsFVI4TcgOzsb11x/HX5x8MEhuAQie4iaqip0d7kLWK2trXj55Vfw0ov9ye4VBbFpuYidnevXgkYVsBYvNvJgebMPP/wQN11/PcpKywab3nDD9dhr772M/FRSiTASvOkkSXxzYwNsNpuRwP3BBx/CN19/43F5GvSrS8rKbgWgeVs/j5MACZAACZAACZAACZAACZAACZBAsAlEnYBliFg5Oc8qUI4EkOwJUEzydMzaYwlipkyNDgELOpyd7ejc/JUx35SpU3HOsnNw6WWXBXv/I77/mqpKdHd1uc1TkrdLCNxjjz0+eCx2Vg5iZ+f7tabRBKxDFh9qeGB5E586Ojpwzpln4ttvvh0c+/gTjsevfnU+VJMJ6RmZiIuP92tewWgsnlfigSWeWGK33Xob1q8fwQNNx9NF5aXnAnAFYy7skwRIgARIgARIgARIgARIgARIgAT8IRCVApYssCAn5w5AkQRF6vAFWxKTMXOn/ZEwKydKBCxAKhG2f/8fY76SyHvJYYfhnvvu9WcvJ2TbkQQsSXz+/vsf4M477hyfgPXNh4Du2cnogAMPxL0P3G/ksvJmp5x4Ir784svBZvPmzcWKu1bAZDIhZeo0TE9N9dZF0I+3NDWhuWlLAYNRBSzg+aKy0jMpYAV9WzgACZAACZAACZAACZAACZAACZCADwSiVsDqE7Fy7Z7yYZnjEjBt3u5IydshKgUsmfS+++2H1c8+48MWTuwmNZWV6O5298CSVW/YsAE33bh8XAJW+8ZPofVKcnd322HHHXHt9ddht9139wp5uIAVGxuLv7/6iiFgWWNikJXjObRR8maVlZaipaXF6xjSQPoTQS0jMxPTpk3z6Rxp5HK50NIk+a+2FBZcseIuvPvOu4MeWVt1puvPFJWXLaOA5TNiNiQBEiABEiABEiABEiABEiABEggigQkpYKnWGKTkz8eMHfakgBXEiycUXY8mYP3nP//BjTfcNC4Bq6v0Bzha6j0uJTU1Fedf8Gucd/75Xpc6XMCSE954858wm82DebCGdmK32w3h6uOPPsJrr/4DGzduHLEi4NDzRBjLys6GhDfO33G+Ed6YkJCAufPmYtr06SPOUxLhNzU2wGEXzbfPVq9ajbVrX98q+fzAMR36XcVlZb+ngOV169mABEiABEiABEiABEiABEiABEggBAQmpIClmMxIypyDWbu5J0GPyCTukil7SAih7Ds9sPqu/mALWD115eipLvL4UpNQzhNPOgnL/3KL15fiecuW4d8ffWx4Og3YaAJWZ0cHPvjgA7z/3nq4NBdE0HLYHcZvCY/s6emB3d5r/K3X3mv063A4oGu60UYqLYrJC3hmWhqOP/547LhgPqZPn47t5s51m29bSwsaG7YW6ta+thZr1ryIxsYtYYWDApaGi4orSh9jEnevW88GJEACJEACJEACJEACJEACJEACISAwIQUsiFfKrBxk7HOEG8LIFbDs6PjxU+gupzHnPffaE48+8YRP+ZdCcJ2EbYhgC1iOtiZ0Ff9vxPUdfewxuOuee7yu/5bly/HiC2vQNSTh/GgC1tAORZiSpPRSHVB+ent6IInhpS+pHNjZ1QWnw2GIWiJgdXV3Qx+Wt0s8sSS0MCc3Fwf94hdbzdfldKKluRmSxH2ovfnmOjz/t+dRX+/ugaZrrj2KKyq+AAa1Mq8M2IAESIAESIAESIAESIAESIAESIAEgkUgugWs7JwGKMoMT3DiZ2Yhc/+jo0bA0p0OdBZ/B1dXmzHnedtvj1v++hcs2GmnYO19VPQbbAHL1dNtCIcjma8C1tOrVuOB++9Dc1PzYFf/fON1IyG/qqrIzss38leFwyR8ULyvRAQbav/4x2t4cc2LaGpqcptWj9Mxo6qqyv1AOBbAMUmABEiABEiABEiABEiABEiABCY9gagWsPJzcj9RAPdEVwCiTsByudBTW4Le+grjopw1ezYuufRSnHr6aZP6Ig22gKVrLrR9+9GIjA8/4gjccdcKxMTEjLoP773zLm647jrU1NQMtnv6mdVIS0uDoqqYNTsd8QkJId9LXdfR3taKRg9eVqtXPw0JI5RE8sPNpWBqaWnplozvIZ85ByQBEiABEiABEiABEiABEiABEiCBLQSiW8DKyvmboiqnetrQaBOwoGuwtzaiu/QHYzmSrPvY44/HzT7kX5rIF3RNVSW6h4TlDV1rIJK4Q9fR+s0HIyLcZ999ccNNNyK/oGBUzD98/z0uu+RSlJWVDba74cbrsffeexuJ1uPi441qhKqiGIKW/E08s1TVZHhmqSYTzCbT4LFA7amEI0rydlu3e6XFe+65F++8/Taczi15uwbGpYAVqB1gPyRAAiRAAiRAAiRAAiRAAiRAAoEgENUCVkFWzk1QlWsnhIAl5d5snej46fPB5SxesgQPPfpIIPY5avuora6ChMB5slAIWPn5+bjst5fjyKOOGpVhTXU1zjnrbBQVFg62O+3003D22WdtdZ4IV4M/hoA18CNClghb8uPDdhn9yLlbfktfJpMZqkl+m6AqquFd1VBX67HD2269DevXv+92TAe+tXTF7L+pcVOHDzNhExIgARIgARIgARIgARIgARIgARIIOgFfvioHfRJjHaAgK+scqKaVE0XA0nptaN/4yeByDl28GA8/9uhY8UyI82qrq9HV6VlHCYWAlZCQgLPOORtX/u53bjwl+XpnR7tRHVA8nc4/73wUFW6paLjHnntg+fKbgrYPW4lh/Z5dIloNiGKKqgwmfx8+CUkWv+LOFfj443+7zc/l0n4TPyXxkY0bN9qDNnl2TAIkQAIkQAIkQAIkQAIkQAIkQAJ+EIhqASsvK2uxqpreooDlx45HWdO6mmp0dvgmYMWk5SAuPQ+AH5e1lxBCEYlOOfXUwVBOySklIY3dXZ2GcGXv7YXL1ReCd/FFF6OoqHiQcOrMVDz77DMRSXzDhg1YverprUIeBybq0LUdysvLf2QFwojcOk6KBEiABEiABEiABEiABEiABCYlAT++6Ucen7yMjJ1Us+WbiSpg7b9oEe6+716kpKREHvwQzai+thYd7X2VGYfbcA+smNRMxKbnQ1H9qPbnRcCSMU9ZuhQ33bwcHR3tRi4pqeYn4pWIWUNtuIAlYXxvrnsjRKT8G+bRRx7F66//01jHcDO5nJk/V1ZW+dcjW5MACZAACZAACZAACZAACZAACZBA8AhEtYCVnZ2db1HULTFbQzh5SuKuaxo6W+pha2sOHtFx9CwhhJIDSyrjiW2/ww64+tprsedeHgstjmOk6Dm1oa7OqKLnyYYLWNZpsw0BS7VYfV+gDwLWkUcdid/97ipD7BnwtvI0wHABS9q89fa/fJ9LiFrW1tbi4YcewSefbAlXHRxawUsu4NesQBiizeAwJEACJEACJEACJEACJEACJEACPhGIagErLS1tZmJsXJ2nlcanZiB93yOhmsyDh11OO7qaG9DT6dmjxydiQWykOXrRVfI9XF3txijTZ8zAeb86H7++4IIgjhrZXTc21KOtpcXjJD/79DPcfPMt6O3tNY5bUlIROzsfpth43xel62j74b/QHX19eLLFSxbjN7+5DGbzlmvJU7toEbD+9rfn8dJLL6G7y70yIaDvW1RWJsqW5jtEtiQBEiABEiABEiABEiABEiABEiCB4BKIagErNzc3xaTDo7oRN2M20vc6DKaYuEGC9p5udDXXw9Hj6Yt7cEH70rvucqKnthS99RVGc0nGfdwJx+O2O+7w5fQJ2aa5qREtTU0e1/bVV1/j9ttvR0tz3yVgTpqGuPR8mOKTfGeh6+go/AauTs9eXtLRXnvvhYsuugizZqWN2m80CFibNm3CU0+uxDffeIi81XUnNNe8osrKLaUUfSfJliRAAiRAAiRAAiRAAiRAAiRAAiQQNAJRLWCJxlOQk9sXbzfMYqfNwuw9FsOSsEXM6OloM0IINad73p+gEfajY13X4GhrQnfJ94NnHX3sMbjrnnv86GViNW1taUZTQ4PHRf3www+45+57UV5ebhw3xU8xBCxz0lTfIUhS9srNsDeOnPJp7ty5OO+8c7FgpwV+C1gvvfwipkyZMnie0+lEXV0dGuobUF1TY8xd/t3W3oq21nb09PT4PPfk5GTMnz8f551/Hsxm73m/NE2DeF+98PwLHnNfadAv7XU4VlZXV0emwuszGTYkARIgARIgARIgARIgARIgARKYaASiXcBCQU7u1pm0+3codmoq0hb+AjHJMwb3rLu1EZ3N9RG9h67uDnRs+oICVj+B9tZWNNR7jBJFYWEhHnnkUXz3v++M1mpMvCFgSSih76ajp6EKPZWbRzxl9uzZOP2M03HooYf4LWAlJSVCUdTB8yTxuwiVmqZD01xwueTfmpEQfuDH17lLhUQJa4yNjcWU5Cm4+uqrUVCQP+Lpr7zyd6xauQp2u91zG13brai8/CtWH/R1B9iOBEiABEiABEiABEiABEiABEggVAQmrIBlnTIdM3dZhPgZ6YMsu1objRDCSDaXrdNI5D5ghx1xOO5YscIQKSajdbS3o762xuPSKysrsWrVanz80cfGccVsNQQs6/TZfqFytDejq+jbEc+JT4jHySefhFNPPdWtzXvvvmt4NdXXN3isTOjXRPxonJqailNPXYq99t4bfSJZn5glvz3Z2rVr8egjj0E8wDyZBuU6XdHvZ/J2PzaBTUmABEiABEiABEiABEiABEiABEJGYOIKWIkpSF2wLxJm5QD9X+qjUcDaeZdd8Kerr8bC3RaG7KKIpIG6OjtRW+05vK+xoREvrFmD19e+3jdlRTUErJiZWX4twdXbg46N/x31nGOPOxYXXPBro42E/T3zzLP49JNPPYbi+TX4CI0l/9mALVgwH4cffjh232N3xMf7kaAeMASrN954Ew89+NBo09IAff+isrL/BGLu7IMESIAESIAESIAESIAESIAESIAEAk1gwgpYhp5hMmNK7jzM2GFP+R+625pha28ONMOA9tfngSUhhH2RkTPT0vDrCy/AOcuWBXScaOmsx2ZDVUVfjqvh1tHRgddeW4tnnn5m8JBUIYwV0dIPk+T5bf/r8+IKp4kHldVqRV5eHpYuXYpddt0FFsvolQ89zVdCEqUyY2FhEZ568ils3LhxtGW5NF05dVr5tH98iS8jMzlcODeFY5MACZAACZAACZAACZAACZAACUQEgQktYA0QVswWxM/KRUxqJlyaC4rqPeF1uHZH6+1GV/H3cPV0GVOQkLBTli7FzX/9S7imFNZxHXY7yktLPM7B5XLhnbffxd133z14PIIELE0coHTAoUhyK0WR/wO6rkJR5ALcUh6zf/aLDlhkhCmmp882hKyhXlgjbYJ4WElOK4fDYXhbyVClJaV46qmVKCoq8rZ3knlrg66ql5SUlPzPW2MeJwESIAESIAESIAESIAESIAESIIFwEZgUAtYgXNVkhJdZp82CarFGpJClOezoqSmBval6cNoiYN1y61/DdY2EdVwRqUqLCkecw/r17+O2W28Lp4AlwlRb34/uhKL0uc5peruuKJugaz9DUToAtOq6boJimqLoeqai4FwAW8oT9q9g1qxZOOCAA7DX3ntCqgx6M8kDtmHDBvz04yaUlZV5a771cR0VUPRzisrK1vt3IluTAAmQAAmQAAmQAAmQAAmQAAmQQGgJTAQBS0qqWfzBppgsiE3Lhjl5BlRrTEQJWbrmgqO5Dt0VmwaXdLIIWH/9y4gJuv1Ze7S1FY+i4s0/R5qA5YCu10FRmqHr7YD+ouJyvVpYVSWqY5+n1SiWl5eXpmjaHxQolxuxraE3XQfKFegXFZWVrQv98ByRBEiABEiABEiABEiABEiABEiABPwjEI4vz/7N0EvrguycDVCUfcbSqWKJQWxaDsyJyVBj4qEMSZw9lv4CdY6zsxWdm78e7O7oY47BjTcvR1JSUqCGiJp+QiZgfbcB0L1qT+3QIW5OJdCxsld3vlVZWWkbC8z8rKzdFEVdDUXZfiznj+OcVgDFuq5dX1xe/s9x9MNTSYAESIAESIAESIAESIAESIAESCBkBKJewMrNzPylyWQelxeJKTbBCC00xSdB/j1QtTBkuzBsIGdXGzp//mrwrwsWLMBVv/899tlv33BNKWzjBkfA0qHZeyHhmtCc0DUN3eWboDvFmW8U07EWuunqooqi7wMARMnLytpfVU1SHnCHAPQ3WheizNUBerGu6x/B5VpVXFU1sltbkCfD7kmABEiABEiABEiABEiABEiABEjAXwJRL2ABMOfn5H6uADv7u/jh7cUTyzo9vV/Iig9TdBcwXMCSXEgXXHQhfn3hheNdYtSd703A+uD9D3D7bbfDpfV5T8XOzuuvQiiXtg7N4YDu6DF+D3hYSZ/OjmY4O1qg2Xv8YKLcUlRWco0fJ3hrquZnZx+kKOrFugKLoutTdSiZCjAbQIy3k0c8rksuLtTqulKsAC0AenQdn9p154uVlZVVY+6XJ5IACZAACZAACZAACZAACZAACZBAmAhMBAFLyc/OPlhRTDcAekBclCzJMyA/5qSpUK2xId8aZ1c7Ogu/BvpFGZnAOeeei2uuuzbkcwn3gN4ErP/+97+4+6570NYmedRh7Jv8GF50um5UcxRBULN1QfKLjcN0QL+lqKwsKJuQmZkZF6MoBZqq7iVirOKW4F0xiz4HHSZd0U2Krph1RXcogB1Qeo0E8lusRwO+haq+W1JSIqUIhx4bBwKeSgIkQAIkQAIkQAIkQAIkQAIkQALhITARBCwhZ8rNzd3NpEOSYh83Lu+VIfsg3ljm+KQ+ISsmLmQ75LJ1obvsB8jvAaOA5Rn/d999h4cffgRFhaLTBNV+1HTtupLy8peDOsrInVszMjKSLBaLxeFwmONUNUbV9Z4eVe22Wq3dhYWFvWGaF4clARIgARIgARIgARIgARIgARIggaATmCgClgFq1qxZqQkxMZfpOnIV4JdQlBmBIGidlgZTfDIsU0TIktDC4Jrm6EVPTQnsTTWDA0klwj9fczUSExODO3iE9e7NA6ukpBSrVq3CJ//9JJgzbwX0+zt7em6rq6vboioGc0T2TQIkQAIkQAIkQAIkQAIkQAIkQAIkMEhgQglY/atSsrKyZptV9TgVyAOwF2BUKRzXWqVCoVnCCuOnGB5ZprjgCUkS6mZvroOtYtPgRu2199646ve/w8677DKpLl9vAlZjYyPWrHkRa19bGxwuOjZD0Z/WVPX1kpKSb4MzCHslARIgARIgARIgARIgARIgARIgARIYjcC4RJ1IR5uenh4fYzLtpiqmvQAUQMEvAWSPZ96KaoIpMQXmhCkwJyQbYlYwzNHehK6i/w12PX36dPzfb36DM846MxjDRWyf3gSsnp4evPbaa3jqyZWBXEOHruMDAP/VoW2Os9n+tbGhoTOQA7AvEiABEiABEiABEiABEiABEiABEiAB3wlMaAFrKIZtMzMznCaTkSAbOo6FouzoOyYPLVUVpthEQ8hS4xNhTZ4BxWQZV5dDT5YqeZ2FWxx+FEXBxZdeit9eeUXAxoiGjrwJWHL8zTfexH333R+o5dh06G/qTufykqqq7wD0lTekkQAJkAAJkAAJkAAJkAAJkAAJkAAJhI3ApBGwBgjn5uamqJq2UIG6EIp+JjBOIQswKhWa4pOMRO+W5FRD1BqvDRewpL+LL70EV1x11Xi7jqrzRaAqLSqENqQi4/AFrFu3Dvfcfa/HdVmslvZ999lHnz9/fmJMTIxpoNH99z+A3l5Pec/1Sh34TXFZ2d+jChQnSwIkQAIkQAIkQAIkQAIkQAIkQAJudtcJAAAWKUlEQVQTmMCkE7AG9nL71NREW2ziroqq7ahA+Q2Abce7zxJeqMYmQLXGGMnejeTvsQlj6tbZ2YpOCSHUXIPnLzvvXEPAiosLXUXEMU0+gCeJgFVRWgKHwzFir8MFrEMXH4o999jDaG+1Wnuzc7L1mTNnWk0mkzrQyQnHn4DOTo/52H/UHfZfFldXlwdwGeyKBEiABEiABEiABEiABEiABEiABEhgHAQmrYA1wCwzMzMu1mTaWVeU7aDrywElcxw8B09VTGaosfFQTRYoFisskgA+aSpE5PLFXLZOdJdvgqu7fbD5fov2x5VXXYX5Cxb40sXEaKPrqK6qhK2722cB68KLLsBxxx036vpHErAU4NvkstLdvwRGVswmBlmuggRIgARIgARIgARIgARIgARIgASihsCkF7AGdio3NzdWdanzYdLmKJp+HxRlRsB2UVWhWmKgmq2Aohi5ssxJKUa4oXhreTLN0Yue2jLYG6sGDycnJ+OK312F0884I2BTi4aOGupq0d7WFlAB66QTT7K1t3e4ubLpwDfFZaWTq9RjNFwEnCMJkAAJkAAJkAAJkAAJkAAJkMCkJkABa9j2z5kzJ8blcs01OZ25ump6UaLQAn6F9ItYqtkCqANRbQoUs9nIp6VaYqHGxMJl60JvXdng8JLIXUIIL7rk4oBPKZI7bG1uRlNjQ0AFrOU3LW/asOE/0yVEcahRwIrkK4FzIwESIAESIAESIAESIAESIAESmKwEKGCNsPMLFy60tLS05DmdziyLor4MICXoF4miAIoKEarkN6BDd24dySYCliRzn0zW1dGB2prqgApYn33+eeX1116foWna8NfARif0Q8rKymomE2OulQRIgARIgARIgARIgARIgARIgAQimQAFLO+7Y56TkTHLabHMMWn6SwENLfQ+tluLk085BZf99nLMmjVrDGdH5yn2nh5UlG/xRBu+iuFJ3H3JgeV0OlxHH3WsyeXakiRf+tWBEsWhnVlUXb4hOmlx1iRAAiRAAiRAAiRAAiRAAiRAAiQw8QhQwPJ9T025ublJqlPNgkm7VQEO9/3UwLWcs802+P0f/4BfHHxw4DqN8J40lwslRYUjznIsApZ0dsThR8LpdA7vt0nXcUdxeeltEY6F0yMBEiABEiABEiABEiABEiABEiCBSUOAApb/W60sXLjQ3NTUNN0MXKTruM7/LsZ+hoQXXn3dtThn2bKxdxJlZ2qahpLCzQEXsI468uguu92eMKxjB3TtzaLy8mOjDBOnSwIkQAIkQAIkQAIkQAIkQAIkQAITlgAFrPFvrSU/O3sJFHW5AmVHQJfkVcI1aGyvEQHr3HPHP/Mo6SFYAtYDDzxY9/ra19PcMSgbispK9osSPJwmCZAACZAACZAACZAACZAACZAACUx4AkETWSY8OQ8LTE1NTUyKjz8ZUC5TgFxAMQF6DABzIAWtP/zpj1h23nkwm6XbiW/eBKx33nkX9917H+x2uwHDlxxY0q6+vq7uzDPO9iBg4T9FZaUiYG1donDio+YKSYAESIAESIAESIAESIAESIAESCAiCVDACuK25GXk7aSo2q8UVTkEQJIOSH1BUZ1E1LLqgEUBTMOmIKKJJGaS31ZP0zv40ENwxZVXYru5c4M4+8jp2puA9eEHH+KBBx5Ee3u7XwKWNF6y+JeeFvq17rAfW1xdXR45FDgTEiABEiABEiABEiABEiABEiABEpi8BChghXbvzfmZmfOgmPeFqi8AlLkKkLH1FHRxIyrUdcWkKDjK0/QSExNx083LcfSxkyNNkzcBa8OGDXjowYfR2NjYJ2BdeAGOO/44n3b28MOOcLpcruGubLW6jluLy0vv9akTNiIBEiABEiABEiABEiABEiABEiABEggqAQpYQcU79s4LcnJ+AShv9ntruXV0y61/xSlLl459gCg6UwSs8tISuNwrBhqr+Oyzz/DIw4+gqqra+P95553rPPGkExVVVYd7t7mt+uILL64sKi7OHHZA03X9zeLyMo8CYhSh41RJgARIgARIgARIgARIgARIgARIYEIQoIAVoduYn5k/H6rrIUVRPCYTv/raa3D6mWfCavUYZRihqxrbtETAqqmqRI/N5rGDr7/6Go899hiKi0uM4yeeeELbaaefZklISIj3NuI777zbdOcdd04f3k5R8E5haelib+fzOAmQAAmQAAmQAAmQAAmQAAmQAAmQQPAJUMAKPuMxjbAgLS2hKzZ2GaDc76mDxUuW4LdXXoFttt12TP1H00m6rqOxvh7tba0ep/3dd9/jySeewI8//mQcX7xkcfPZZ59lnTFjRqK3dXZ0dHSdeMJJCcPb6To+smvO4yorK5u99cHjJEACJEACJEACJEACJEACJEACJEACwSVAASu4fMfV+5ys3GN0FX8HoA7vKDklBbfefhsOXTzxnYREwOpob0dDXa1Hnj/9tAlPPfUUvv3mW+P4fvvt137uucvMGZkZXj2wnE4njjj8SE/9FusKrikuLX1+XJvIk0mABEiABEiABEiABEiABEiABEiABMZNgALWuBEGr4O8rLxFqqI9CUWZ42mUu+65B0cfe0zwJhBBPff29KCyvMzjjIqLirFq1Sp8+ulnxvFdd93Vdt7555rmzJnjNb6yX8DSPIiEvTr0Z4vLys6PIAycCgmQAAmQAAmQAAmQAAmQAAmQAAlMSgIUsCJ42wsKCmbqDteVioLfe5rmNdddh1NOXYq4uLgIXkVgpiZCU1lxkcfOysvL8czTz+Cjjz42jhfMKei6+MILTTsumB/rbXSXy4WlS09ta29rT/bQ9h9FZaW+lTP0NhCPkwAJkAAJkAAJkAAJkAAJkAAJkAAJjJkABawxowvNifk5OacrUJ71NNovDj4Yv/vjH7DNNtuEZjJhHGU0Aauurg7PPfcc3vrX28YMp0+b1nL5by+37LHnHl5zYGmapt9xx501699bn+5heeuUjvalhc3N7WFcOocmARIgARIgARIgARIgARIgARIggUlPgAJWhF8Cc7LyjtZV/XEAM4dPdcqUKbjn/vuw6IADInwV45/eaAJWS3MLnn/hBbz2j9eMgaxWa9uVV15hOfCgA73mwNJ1Xf/g/Q9qb731ttnus9S/0jTt8pKKij7XLhoJkAAJkAAJkAAJkAAJkAAJkAAJkEBYCFDACgt23wctyMycA9V8LRSc5emshx97dFIkch9NwOrs7MSLa17EmjUvGogURXH89orfKkuWLDZ7Iy0J4isrK9vOP+9XnkIIGzRNv6ekouwv3vrhcRIgARIgARIgARIgARIgARIgARIggeARoIAVPLYB6XkhYGnNybkAUO731OGfr7kGpyw9BQmJXqPlAjKfcHUiuaqqysvgcDjcptDb24tXXn4Fq1c/PXjs8t/+BocddphP0+3s7NROOP5Et0qPuq67oCiri8tKz/OpIzYiARIgARIgARIgARIgARIgARIgARIICgEKWEHBGthOC7LzzoKiPwzALSRu4W674aabl2O7uXMDO2iE9aZpGhrq6tDZ4Z6OSo69+vdX8dhjEmnZZ34KWDjh+BM9rliB8lxhWckZEYaD0yEBEiABEiABEiABEiABEiABEiCBSUWAAlYUbHd+VtZuUEx/URQcOny6MTExeGLlSuy9z95RsJKxT1FC/drb2tBYX+exk1dffRWPPPwoBayxI+aZJEACJEACJEACJEACJEACJEACJBCxBChgRezWbJlYenp6fJwl5kpAv8nTdB978gkceNBBUFW3KLgoWJ3vU+zt6UFleRkFLN+RsSUJkAAJkAAJkAAJkAAJkAAJkAAJTAgCFLCiZBvzc3MvV3Tc7Wm6p552Gi79zWVIS0uLktWMbZoOux3lpSUUsMaGj2eRAAmQAAmQAAmQAAmQAAmQAAmQQNQSoIAVJVuXn5NzhALcCig7Dp9yckoKVq5ejQU7LYiS1YxtmsEQsOrr65vvuetu7cuvvp7haVbMgTW2veJZJEACJEACJEACJEACJEACJEACJBBIAhSwAkkziH3l5+cnw+W6ToFyhadh1rz8MhbutjCIMwh/14ESsKoqq+off+IJvbKiMs1ut7saGxt1l8tlpoAV/j3mDEiABEiABEiABEiABEiABEiABEjA8/dzcokWAkpBTs6fAeVmTxO+9Y7bceRRRyE2NjZa1uP3PJ1OJ2oqK2C3293OHZ7E/YILfm076BcH2Zqbm7uLi4pNX339tfrTjz9NdTgcVofD4ero6IDL5TKNOgldb4SCe4vKyjwy93sBPIEESIAESIAESIAESIAESIAESIAESGBMBOiBNSZs4TlpTk7O+XqfgOWW7Gr+ggW49/77kJ2TE57JhWBUzeVCc1Mj2lpbvQpYVqtVN5vN0DRN1zRNxCr58TfL/b8crS2nlbe1tYRgeRyCBEiABEiABEiABEiABEiABEiABEhgBAIUsKLo0sjLy8tRNO1mBcoZw6etKArWvvFPzNt++yhakX9T1XUdXV1dqKuucjtx7Wtr8cgjjxpCVUBM1zs1YGVJedllAemPnZAACZAACZAACZAACZAACZAACZAACYyZAAWsMaMLz4kFOXk3A/rVnkZ/7Z+vY4cd3XK8h2eiQRq1t7cXlWWlbr1/9OFHePzxJ1BfXx+AkRUndP3NovLSYwLQGbsgARIgARIgARIgARIgARIgARIgARIYJwEKWOMEGOrT83Nz/6TouAZA/PCxl556Kq76w++RkpIS6mmFbLyRBKz//e87rHxqJTZu3DjmueiASwFqFQXPFpaW/nHMHfFEEiABEiABEiABEiABEiABEiABEiCBgBKggBVQnMHvrCCrYEeortsAHD58NMn59Na77yAnNzf4EwnTCHbxwKooh65pW82gpqYGT69+BuvXr/d3ZjqANgDtAL7q7LGdUVdX1+VvJ2xPAiRAAiRAAiRAAiRAAiRAAiRAAiQQPAIUsILHNmg9z8nOvVtXcLmnAf65bh22m7sdJCfWRDSnw4GG+jp0d22tMdlsNjz33N/w0osveVu2KF9tOtCmAHZAd+masry4ovR5byfyOAmQAAmQAAmQAAmQAAmQAAmQAAmQQHgITEyVIzwsQzZqQU7OTYByFYC44YP+9qorce555yEuzu1QyOYXzIGkomBHexsaPeS6ev75F7Bq5aqRhv8ZQKeuoAsa/q47lFdLakrKgjlX9k0CJEACJEACJEACJEACJEACJEACJBAYAhSwAsMxpL0U5OTsA+A2QNlv+MDTp0/HP/+1DqmpqSGdU6gGk0qEnR0dqK+tcRtyVAFL1/YrKi/fEKp5chwSIAESIAESIAESIAESIAESIAESIIHAEaCAFTiWIe2pICfncUA539Og776/3siDNdHCCB0OB3psNrS1tqC3p4cCVkivOA5GAiRAAiRAAiRAAiRAAiRAAiRAAuEjQAErfOzHNXJBTs5yQLkMwJThHV13w/U49fTTYbFYxjVGpJzsdDrRY+tGd2cXOjok17pne+XlV7By5SqI0DXcNE05oKSi5GMAkrSdRgIkQAIkQAIkQAIkQAIkQAIkQAIkEEUEKGBF0WYNnWp+VtZuiqre7SmMMDMz0wgjTExMjNLV9U1bErbbbN3osfWgva3V61o+/uhjrFq1CpWVVW5tdV07qri8/F/SrdeO2IAESIAESIAESIAESIAESIAESIAESCCiCFDAiqjt8Gsyypyc3Gd14DRPZ2349BOkpaX51WGkNO7t7UVvj80IE2xva/N5WuVl5YaAtWHDf9zP0XFBZ6/tubq6uq3LF/rcOxuSAAmQAAmQAAmQAAmQAAmQAAmQAAmEiwAFrHCRD8C4+dm51ykKJIxw+vDufvXrX2O7udthz733xuzZswMwWnC7kOTs3V1dRvifrbsbtu4uyN/8MRG+Vq1ajb+/8ncPp+krTA7HrT9XVzf60yfbkgAJkAAJkAAJkAAJkAAJkAAJkAAJhJ8ABazw78GYZ5CXnredatYfh4L9PXWSOjMVixYdgIzMDJjNFmy/w/bYZdddkZycPOYxA32iw25Hd3e3ES7Y1dUJ+f9YzGazobCwCC+9+BI+/fRTty50BW/rivLrkpKSsrH0z3NIgARIgARIgARIgARIgARIgARIgATCR4ACVvjYB2Tk/JyclxQoxwNQR+vQZDZj2223xYKdFmBK0hTExMZizjZzsMsuu2B2ejpUddTTAzLXgU5cLhe6uzpht9vhsPfludJcLr/GkMTuVVVV+O6771FXWwsRsEpKSlFUVGT824NVq9AP2VxW9qNfA7ExCZAACZAACZAACZAACZAACZAACZBA2AlQwAr7FoxvAvk5ORcrwJ8BJcOfnqxWKzIyM7HNtttgxvQZUFQFcXFxyM3Nw/wF85GXn4/4+Hh/uhy17YBoJXmtXC7NyHHlqVqgp04klLClpQUbN25E4eZCdHZ2wulyobGhEcXFRWhubvEl3FDTVGXXkpKSbwO2KHZEAiRAAiRAAiRAAiRAAiRAAiRAAiQQEgIUsEKCOXiD5OXlpama9rKnaoT+jiqi1owZM5CZlYWZM2dC/j9g06ZNQ2Z2FnJycpCVlWWIXxaLZcQhRHQSgcrwtOrthaZpxu+RRCv5e319Paqra1BTU4OK8grDM0tMUmF1dXWhuroKdbV16Ont9Xdp0v5DJ/RlZWVlJWM5meeQAAmQAAmQAAmQAAmQAAmQAAmQAAmEjwAFrPCxD9jI+Tk5zyhQTgIQE7BOh3Uk3lnJKSlISUkxcmhNSZ4Ck2oadTjxupKcVi6X0+u0xCurs6sTHR0d6GjvQFtbm88eWl47FxEM+hmaorxSWlra40t7tiEBEiABEiABEiABEiABEiABEiABEogcAhSwImcvxjyTnJycvc1QngQwb8ydTOATdR23qlbzXYWFhQ0TeJlcGgmQAAmQAAmQAAmQAAmQAAmQAAlMWAIUsCbG1loKcnI/BLD3xFhOIFehr+hxOu+pkozv4ohFIwESIAESIAESIAESIAESIAESIAESiDoCFLCibss8T7ggO/tXUNSbAMyaIEsa7zLsgH6zpqqPlZSUiOeVNt4OeT4JkAAJkAAJkAAJkAAJkAAJkAAJkEB4CFDACg/3gI+6fWpqoiMubqbTZLKYdP14XcefACQFfKAo6FDX9Zc1VXnQbDZ/VVhY2B4FU+YUSYAESIAESIAESIAESIAESIAESIAERiFAAWsCXh5paWkJKVZrskvTVN1kStN15RKoOE2BErQk7xGAsR06VkF3Pe5QlKry8nIRrlwRMC9OgQRIgARIgARIgARIgARIgARIgARIYJwEKGCNE2AUnK6mp6fHWq1Wq6Zpiq7rcaqq7mnSlaMV6IdAUTKjYA3Dp9irQ/9JAd7VNHWtS3F9p6qq7nQ6eysrK6XKIHNdReGmcsokQAIkQAIkQAIkQAIkQAIkQAIkMBIBCliT89qQfTctXLhQsdlsg9dAb2tvmm5x7gFdWago2FmHvjOAmQoUU4gwtQAo0aFvVIEfoanfA84frElJFcPHj4uL07/88kvJayU/FKxCtEEchgRIgARIgARIgARIgARIgARIgATCQeD/AchpIQ+vVpvMAAAAAElFTkSuQmCC;" parent="1" vertex="1">
          <mxGeometry x="931" y="25.319999999999993" width="160" height="48.93" as="geometry" />
        </mxCell>
        <mxCell id="A_eStXad5IxPxG3o9evb-11" value="" style="fontColor=#0066CC;verticalAlign=top;verticalLabelPosition=bottom;labelPosition=center;align=center;html=1;outlineConnect=0;fillColor=#CCCCCC;strokeColor=#6881B3;gradientColor=none;gradientDirection=north;strokeWidth=2;shape=mxgraph.networks.user_male;" parent="1" vertex="1">
          <mxGeometry x="50" y="23.819999999999993" width="20" height="50" as="geometry" />
        </mxCell>
      </root>
    </mxGraphModel>
  </diagram>
</mxfile>
